<?xml version="1.0" encoding="utf-8"?>
<!-- Generator: Adobe Illustrator 16.0.0, SVG Export Plug-In . SVG Version: 6.00 Build 0)  -->
<!DOCTYPE svg PUBLIC "-//W3C//DTD SVG 1.1//EN" "http://www.w3.org/Graphics/SVG/1.1/DTD/svg11.dtd">
<svg version="1.1" id="Layer_1" xmlns="http://www.w3.org/2000/svg" xmlns:xlink="http://www.w3.org/1999/xlink" x="0px" y="0px"
	 width="257.084px" height="95.108px" viewBox="0 0 257.084 95.108" enable-background="new 0 0 257.084 95.108"
	 xml:space="preserve">
<g>
	<g>
		<path fill="#E03216" d="M257.084,84.969c0,5.601-4.539,10.14-10.14,10.14H10.265c-5.6,0-10.14-4.539-10.14-10.14V13.987
			c0-5.6,4.541-10.14,10.14-10.14h236.679c5.601,0,10.14,4.54,10.14,10.14V84.969z"/>
		<path fill="#EA5B30" d="M257.084,81.165c0,5.601-4.539,10.141-10.14,10.141H10.265c-5.6,0-10.14-4.54-10.14-10.141v-70.98
			c0-5.599,4.541-10.14,10.14-10.14h236.679c5.601,0,10.14,4.541,10.14,10.14V81.165z"/>
	</g>
	<g>
		<path fill="#FFFFFF" d="M85.849,61.023c-0.379-1.108-0.772-2.204-1.179-3.286c-0.407-1.081-0.8-2.19-1.179-3.326H71.618
			c-0.38,1.136-0.766,2.251-1.159,3.346s-0.78,2.184-1.159,3.265h-5.314c1.053-3.001,2.053-5.773,2.999-8.315
			c0.945-2.542,1.871-4.948,2.776-7.22c0.905-2.271,1.803-4.435,2.694-6.49c0.892-2.055,1.811-4.083,2.756-6.084h4.879
			c0.946,2.001,1.866,4.029,2.758,6.084c0.893,2.055,1.791,4.218,2.697,6.49s1.839,4.678,2.799,7.22
			c0.959,2.542,1.967,5.313,3.022,8.315H85.849z M77.555,38.35c-0.623,1.434-1.333,3.178-2.129,5.232
			c-0.798,2.055-1.629,4.286-2.495,6.692h9.248c-0.866-2.406-1.704-4.65-2.515-6.733C78.853,41.46,78.149,39.729,77.555,38.35z"/>
		<path fill="#FFFFFF" d="M106.697,61.632c-2.109,0-4.002-0.325-5.679-0.974c-1.677-0.649-3.097-1.602-4.259-2.859
			c-1.163-1.257-2.055-2.792-2.677-4.604c-0.622-1.812-0.933-3.894-0.933-6.247s0.358-4.434,1.075-6.246
			c0.716-1.812,1.697-3.346,2.941-4.604c1.243-1.257,2.704-2.21,4.38-2.86c1.676-0.649,3.474-0.973,5.395-0.973
			c1.162,0,2.217,0.088,3.164,0.264c0.946,0.176,1.771,0.372,2.474,0.588c0.703,0.217,1.284,0.446,1.744,0.689
			c0.459,0.244,0.784,0.42,0.974,0.527l-1.501,4.178c-0.649-0.405-1.575-0.791-2.778-1.156c-1.203-0.365-2.508-0.548-3.914-0.548
			c-1.217,0-2.353,0.21-3.407,0.629c-1.055,0.419-1.967,1.048-2.738,1.886c-0.771,0.838-1.373,1.893-1.805,3.164
			c-0.433,1.271-0.649,2.745-0.649,4.421c0,1.488,0.168,2.854,0.507,4.097c0.338,1.244,0.858,2.319,1.562,3.225
			c0.703,0.906,1.595,1.609,2.677,2.109c1.081,0.5,2.379,0.75,3.894,0.75c1.812,0,3.286-0.182,4.421-0.547s2.014-0.71,2.636-1.034
			l1.379,4.178c-0.324,0.217-0.764,0.433-1.318,0.649c-0.555,0.217-1.21,0.426-1.967,0.628c-0.757,0.203-1.609,0.365-2.555,0.487
			C108.792,61.571,107.778,61.632,106.697,61.632z"/>
		<path fill="#FFFFFF" d="M140.28,32.915v4.421h-8.639v23.688h-5.152V37.336h-8.639v-4.421H140.28z"/>
		<path fill="#FFFFFF" d="M144.174,32.915h5.111v28.108h-5.111V32.915z"/>
		<path fill="#FFFFFF" d="M182.138,46.949c0,2.407-0.358,4.53-1.074,6.368c-0.717,1.839-1.69,3.374-2.921,4.604
			c-1.23,1.231-2.671,2.157-4.319,2.778c-1.65,0.622-3.407,0.933-5.273,0.933c-1.865,0-3.63-0.311-5.293-0.933
			c-1.663-0.622-3.109-1.547-4.34-2.778c-1.23-1.23-2.211-2.764-2.94-4.604c-0.73-1.838-1.096-3.961-1.096-6.368
			c0-2.406,0.365-4.522,1.096-6.348c0.729-1.825,1.724-3.359,2.981-4.604c1.257-1.244,2.71-2.176,4.359-2.799
			c1.649-0.622,3.394-0.933,5.232-0.933s3.583,0.311,5.232,0.933c1.649,0.623,3.089,1.555,4.32,2.799
			c1.229,1.244,2.21,2.778,2.94,4.604C181.772,42.426,182.138,44.542,182.138,46.949z M160.194,46.949
			c0,1.542,0.189,2.941,0.568,4.198c0.378,1.257,0.926,2.326,1.643,3.204c0.716,0.879,1.588,1.562,2.616,2.048
			c1.027,0.487,2.19,0.73,3.488,0.73c1.271,0,2.42-0.243,3.447-0.73s1.899-1.169,2.616-2.048c0.716-0.878,1.264-1.947,1.643-3.204
			s0.568-2.657,0.568-4.198c0-1.541-0.189-2.94-0.568-4.198s-0.927-2.325-1.643-3.205c-0.717-0.878-1.589-1.562-2.616-2.048
			c-1.027-0.487-2.177-0.73-3.447-0.73c-1.298,0-2.461,0.244-3.488,0.73c-1.028,0.486-1.9,1.176-2.616,2.068
			c-0.717,0.893-1.265,1.961-1.643,3.204C160.384,44.015,160.194,45.408,160.194,46.949z"/>
		<path fill="#FFFFFF" d="M206.678,61.023c-0.92-1.542-1.947-3.197-3.083-4.969c-1.136-1.771-2.312-3.555-3.528-5.354
			c-1.217-1.798-2.454-3.542-3.712-5.232c-1.257-1.689-2.454-3.21-3.589-4.563v20.118h-5.03V32.915h4.178
			c1.081,1.136,2.244,2.481,3.488,4.036c1.244,1.555,2.495,3.171,3.752,4.847c1.258,1.677,2.475,3.36,3.65,5.05
			c1.177,1.69,2.224,3.265,3.144,4.725V32.915h5.07v28.108H206.678z"/>
		<path fill="#FFFFFF" d="M224.564,57.211c1.839,0,3.177-0.311,4.016-0.933c0.838-0.622,1.257-1.5,1.257-2.636
			c0-0.676-0.142-1.257-0.426-1.744c-0.283-0.487-0.689-0.926-1.217-1.318c-0.527-0.392-1.17-0.757-1.927-1.095
			c-0.757-0.338-1.622-0.669-2.596-0.994c-0.974-0.351-1.913-0.736-2.818-1.156c-0.906-0.419-1.704-0.939-2.394-1.562
			c-0.689-0.622-1.244-1.365-1.663-2.23c-0.419-0.865-0.629-1.907-0.629-3.124c0-2.541,0.879-4.536,2.637-5.982
			c1.758-1.446,4.15-2.17,7.18-2.17c1.757,0,3.318,0.196,4.685,0.588c1.365,0.393,2.439,0.818,3.225,1.278l-1.582,4.137
			c-0.92-0.513-1.927-0.906-3.021-1.176c-1.096-0.27-2.225-0.406-3.387-0.406c-1.379,0-2.454,0.284-3.225,0.852
			s-1.156,1.366-1.156,2.393c0,0.622,0.128,1.156,0.386,1.602c0.256,0.446,0.621,0.845,1.095,1.196
			c0.473,0.352,1.027,0.676,1.663,0.974c0.635,0.298,1.331,0.582,2.089,0.852c1.324,0.487,2.508,0.98,3.549,1.48
			c1.041,0.501,1.92,1.095,2.637,1.785c0.716,0.69,1.264,1.501,1.643,2.434c0.378,0.933,0.567,2.063,0.567,3.387
			c0,2.542-0.898,4.509-2.697,5.901c-1.798,1.393-4.428,2.089-7.889,2.089c-1.163,0-2.225-0.075-3.184-0.223
			c-0.961-0.149-1.813-0.332-2.556-0.547c-0.744-0.216-1.386-0.439-1.927-0.669c-0.541-0.229-0.974-0.439-1.298-0.628l1.501-4.178
			c0.729,0.405,1.717,0.811,2.961,1.217C221.306,57.008,222.807,57.211,224.564,57.211z"/>
	</g>
	<path fill="#FFFFFF" d="M47.471,50.917c0-0.287-0.21-0.533-0.49-0.644c-0.282-0.109-0.609-0.022-0.82,0.178
		c-0.373,0.332-0.794,0.622-1.262,0.82c-0.257,0.134-0.423,0.379-0.423,0.644v4.746c0,1.951-1.683,3.547-3.743,3.547H21.267
		c-2.059,0-3.743-1.596-3.743-3.547V38.209c0-1.951,1.684-3.547,3.743-3.547h2.622c0.139,0,0.255-0.045,0.374-0.089
		c0.889-0.51,1.941-0.953,3.112-1.33c0.352-0.067,0.606-0.354,0.606-0.71c0-0.399-0.349-0.708-0.747-0.708l0,0l0,0h-5.967
		c-3.721,0-6.738,2.859-6.738,6.385V56.66c0,3.525,3.018,6.387,6.738,6.387h19.466c3.721,0,6.739-2.862,6.739-6.387V50.917z
		 M53.017,39.917c0.583-0.555,0.583-1.44,0-1.996l-8.984-8.516c-0.282-0.265-0.656-0.421-1.052-0.421
		c-0.188,0-0.398,0.044-0.587,0.112c-0.537,0.22-0.911,0.729-0.911,1.307v4.258h-3.746c-15.255,0-17.218,6.83-17.218,12.774
		c0,4.434,3.719,9.425,3.882,9.645c0.141,0.178,0.376,0.29,0.609,0.29c0.094,0,0.188-0.022,0.282-0.045
		c0.301-0.133,0.514-0.442,0.468-0.755c-0.726-5.1-0.167-8.427,1.73-10.489c1.824-1.973,5.1-2.904,10.247-2.904h3.746v4.258
		c0,0.577,0.374,1.086,0.911,1.307c0.188,0.067,0.399,0.112,0.587,0.112c0.396,0,0.77-0.134,1.052-0.421L53.017,39.917z"/>
</g>
</svg>
