<?xml version="1.0" encoding="utf-8"?>
<!-- Generator: Adobe Illustrator 16.0.0, SVG Export Plug-In . SVG Version: 6.00 Build 0)  -->
<!DOCTYPE svg PUBLIC "-//W3C//DTD SVG 1.1//EN" "http://www.w3.org/Graphics/SVG/1.1/DTD/svg11.dtd">
<svg version="1.1" id="Layer_1" xmlns="http://www.w3.org/2000/svg" xmlns:xlink="http://www.w3.org/1999/xlink" x="0px" y="0px"
	 width="68.388px" height="68.137px" viewBox="0 0 68.388 68.137" enable-background="new 0 0 68.388 68.137" xml:space="preserve">
<g>
	<circle fill-rule="evenodd" clip-rule="evenodd" fill="#FFFFFF" cx="34.914" cy="34.068" r="33.474"/>
	<path fill-rule="evenodd" clip-rule="evenodd" fill="#2F3539" d="M34.913,59.155c-13.833,0-25.087-11.253-25.087-25.086
		c0-13.833,11.254-25.087,25.087-25.087s25.09,11.254,25.09,25.087C60.003,47.902,48.746,59.155,34.913,59.155z"/>
	<g>
		<g>
			<path fill-rule="evenodd" clip-rule="evenodd" fill="#FFFFFF" d="M19.388,49.833h8.487v-6.41h4.327v6.41h8.488V17.875H19.388
				V49.833z M34.283,21.038h4.242v6.408h-4.242V21.038z M34.283,31.69h4.242v6.409h-4.242V31.69z M27.875,21.038h4.327v6.408h-4.327
				V21.038z M27.875,31.69h4.327v6.409h-4.327V31.69z M21.548,21.038h4.246v6.408h-4.246V21.038z M21.548,31.69h4.246v6.409h-4.246
				V31.69z M42.822,29.238v20.595h9.233V29.238H42.822z"/>
		</g>
	</g>
</g>
</svg>
