<?xml version="1.0" encoding="utf-8"?>
<!-- Generator: Adobe Illustrator 16.0.0, SVG Export Plug-In . SVG Version: 6.00 Build 0)  -->
<!DOCTYPE svg PUBLIC "-//W3C//DTD SVG 1.1//EN" "http://www.w3.org/Graphics/SVG/1.1/DTD/svg11.dtd">
<svg version="1.1" id="Layer_1" xmlns="http://www.w3.org/2000/svg" xmlns:xlink="http://www.w3.org/1999/xlink" x="0px" y="0px"
	 width="67.991px" height="68.137px" viewBox="0 0 67.991 68.137" enable-background="new 0 0 67.991 68.137" xml:space="preserve">
<g>
	<circle fill-rule="evenodd" clip-rule="evenodd" fill="#FFFFFF" cx="34.582" cy="34.727" r="33.41"/>
	<path fill-rule="evenodd" clip-rule="evenodd" fill="#2F3539" d="M34.582,59.764c-13.808,0-25.037-11.231-25.037-25.037
		S20.774,9.69,34.582,9.69c13.806,0,25.037,11.231,25.037,25.037S48.388,59.764,34.582,59.764z"/>
	<path fill="#FFFFFF" d="M42.438,37.418c0,0.309-0.255,0.551-0.58,0.551h-4.062v3.855c0,0.312-0.253,0.552-0.579,0.552h-3.48
		c-0.326,0-0.581-0.24-0.581-0.552v-3.855h-4.061c-0.326,0-0.579-0.242-0.579-0.551v-3.305c0-0.311,0.253-0.55,0.579-0.55h4.061
		v-3.859c0-0.31,0.255-0.551,0.581-0.551h3.48c0.326,0,0.579,0.242,0.579,0.551v3.859h4.062c0.325,0,0.58,0.239,0.58,0.55V37.418z
		 M30.838,24.746v-2.204h9.281v2.204H30.838z M23.876,24.746h-0.579c-2.229,0-4.062,1.739-4.062,3.855v14.326
		c0,2.121,1.832,3.859,4.062,3.859h0.579V24.746z M45.339,24.746h-2.9v-2.754c0-0.915-0.779-1.653-1.74-1.653h-10.44
		c-0.962,0-1.741,0.738-1.741,1.653v2.754h-2.898v22.041h19.721V24.746z M51.719,28.601c0-2.117-1.831-3.855-4.061-3.855h-0.58
		v22.041h0.58c2.229,0,4.061-1.739,4.061-3.859V28.601z"/>
</g>
</svg>
