<?xml version="1.0" encoding="utf-8"?>
<!-- Generator: Adobe Illustrator 16.0.0, SVG Export Plug-In . SVG Version: 6.00 Build 0)  -->
<!DOCTYPE svg PUBLIC "-//W3C//DTD SVG 1.1//EN" "http://www.w3.org/Graphics/SVG/1.1/DTD/svg11.dtd">
<svg version="1.1" id="Layer_1" xmlns="http://www.w3.org/2000/svg" xmlns:xlink="http://www.w3.org/1999/xlink" x="0px" y="0px"
	 width="68.365px" height="68.137px" viewBox="0 0 68.365 68.137" enable-background="new 0 0 68.365 68.137" xml:space="preserve">
<g>
	<circle fill-rule="evenodd" clip-rule="evenodd" fill="#FFFFFF" cx="34.765" cy="34.537" r="33.6"/>
	<path fill-rule="evenodd" clip-rule="evenodd" fill="#2F3539" d="M34.766,59.718c-13.886,0-25.181-11.296-25.181-25.181
		c0-13.885,11.295-25.181,25.181-25.181c13.885,0,25.18,11.296,25.18,25.181C59.945,48.422,48.65,59.718,34.766,59.718z"/>
	<path fill-rule="evenodd" clip-rule="evenodd" fill="#FFFFFF" d="M7.795,23.906l9.213,4.593l9.213-9.187v16.079l11.515-20.672
		v22.97l6.909-11.484l9.212,9.187l13.818,2.297l-2.303,4.594l-13.818-2.297l-6.909-6.891l-11.516,22.97v-22.97L21.614,46.875V28.499
		l-4.606,4.594l-9.213-4.594V23.906z"/>
</g>
</svg>
