<?xml version="1.0" encoding="utf-8"?>
<!-- Generator: Adobe Illustrator 16.0.0, SVG Export Plug-In . SVG Version: 6.00 Build 0)  -->
<!DOCTYPE svg PUBLIC "-//W3C//DTD SVG 1.1//EN" "http://www.w3.org/Graphics/SVG/1.1/DTD/svg11.dtd">
<svg version="1.1" id="Layer_1" xmlns="http://www.w3.org/2000/svg" xmlns:xlink="http://www.w3.org/1999/xlink" x="0px" y="0px"
	 width="281.225px" height="183.254px" viewBox="0 0 281.225 183.254" enable-background="new 0 0 281.225 183.254"
	 xml:space="preserve">
<g>
	<g>
		<path fill="#E03217" d="M280.818,172.497c0,5.941-4.937,10.758-11.024,10.758H11.207c-6.084,0-11.021-4.816-11.021-10.758V14.28
			c0-5.939,4.937-10.755,11.021-10.755h258.587c6.088,0,11.024,4.816,11.024,10.755V172.497z"/>
		<path fill="#E74928" d="M280.818,169.362c0,5.939-4.937,10.756-11.024,10.756H11.207c-6.084,0-11.021-4.816-11.021-10.756V11.144
			c0-5.94,4.937-10.756,11.021-10.756h258.587c6.088,0,11.024,4.816,11.024,10.756V169.362z"/>
		<rect x="0.186" y="54.848" fill="#EA5B30" width="280.632" height="69.233"/>
	</g>
	<g>
		<path fill="#FFFFFF" d="M16.242,108.387V74.844h22.651v6.341H23.792v6.583H37.2v6.195H23.792v8.083h16.214v6.341H16.242z"/>
		<path fill="#FFFFFF" d="M65.823,108.387c-0.944-1.868-1.979-3.76-3.102-5.677c-1.123-1.916-2.412-3.537-3.868-4.86
			c-0.452,0.499-1.023,1.192-1.716,2.081c-0.693,0.888-1.385,1.832-2.078,2.83c-0.692,0.998-1.342,2.033-1.945,3.104
			s-1.053,1.913-1.347,2.522h-8.615c1.411-2.619,3.077-5.323,4.999-8.113c1.921-2.789,4.064-5.75,6.43-8.884L43.636,74.844h9.147
			l6.392,9.713l6.531-9.713h8.616L63.437,91.033c2.854,3.577,5.204,6.855,7.05,9.835c1.845,2.98,3.302,5.487,4.368,7.518H65.823z"/>
		<path fill="#FFFFFF" d="M89.278,74.457c5.001,0,8.841,0.88,11.52,2.638c2.678,1.759,4.018,4.639,4.018,8.64
			c0,4.034-1.355,6.945-4.065,8.736c-2.711,1.791-6.583,2.687-11.617,2.687h-2.371v11.229H79.21V75.328
			c1.646-0.322,3.388-0.548,5.228-0.677C86.277,74.522,87.89,74.457,89.278,74.457z M89.762,80.895c-0.55,0-1.09,0.017-1.622,0.048
			c-0.532,0.033-0.992,0.065-1.379,0.097v9.681h2.371c2.614,0,4.582-0.355,5.905-1.065c1.323-0.709,1.984-2.033,1.984-3.969
			c0-0.936-0.169-1.71-0.508-2.323c-0.339-0.613-0.823-1.105-1.452-1.477c-0.63-0.371-1.396-0.629-2.299-0.774
			C91.859,80.967,90.859,80.895,89.762,80.895z"/>
		<path fill="#FFFFFF" d="M142.327,91.591c0,2.873-0.429,5.397-1.283,7.575c-0.855,2.178-2.025,4.001-3.509,5.47
			c-1.484,1.469-3.251,2.573-5.3,3.315c-2.05,0.742-4.252,1.113-6.607,1.113c-2.291,0-4.453-0.372-6.485-1.113
			c-2.033-0.742-3.808-1.847-5.324-3.315c-1.518-1.468-2.711-3.292-3.582-5.47c-0.871-2.178-1.307-4.702-1.307-7.575
			c0-2.872,0.451-5.397,1.355-7.575c0.902-2.178,2.121-4.009,3.654-5.494c1.532-1.484,3.307-2.597,5.324-3.34
			c2.016-0.742,4.138-1.113,6.364-1.113c2.291,0,4.453,0.372,6.486,1.113c2.032,0.743,3.807,1.856,5.324,3.34
			c1.516,1.484,2.71,3.315,3.581,5.494C141.891,86.194,142.327,88.72,142.327,91.591z M116.722,91.591
			c0,1.646,0.201,3.13,0.604,4.453c0.403,1.323,0.984,2.461,1.742,3.412c0.758,0.952,1.687,1.687,2.783,2.202
			c1.097,0.517,2.355,0.774,3.775,0.774c1.388,0,2.638-0.258,3.751-0.774c1.113-0.516,2.049-1.25,2.808-2.202
			c0.758-0.951,1.339-2.089,1.742-3.412c0.403-1.323,0.605-2.808,0.605-4.453s-0.202-3.138-0.605-4.477
			c-0.403-1.339-0.984-2.484-1.742-3.437c-0.759-0.952-1.694-1.686-2.808-2.202s-2.363-0.774-3.751-0.774
			c-1.42,0-2.679,0.266-3.775,0.798c-1.097,0.533-2.025,1.275-2.783,2.227c-0.758,0.952-1.339,2.098-1.742,3.437
			C116.923,88.502,116.722,89.978,116.722,91.591z"/>
		<path fill="#FFFFFF" d="M157.766,102.627c1.064,0,1.943-0.088,2.638-0.266c0.693-0.177,1.25-0.419,1.67-0.726
			c0.419-0.306,0.709-0.669,0.871-1.089c0.161-0.419,0.242-0.887,0.242-1.403c0-1.097-0.517-2.009-1.549-2.735
			c-1.033-0.726-2.808-1.508-5.324-2.347c-1.098-0.388-2.195-0.831-3.292-1.331c-1.097-0.5-2.081-1.129-2.952-1.888
			c-0.871-0.758-1.581-1.678-2.13-2.759c-0.549-1.081-0.822-2.396-0.822-3.944c0-1.549,0.29-2.944,0.871-4.187
			c0.581-1.242,1.403-2.299,2.468-3.17c1.065-0.871,2.355-1.541,3.873-2.008c1.516-0.468,3.226-0.702,5.13-0.702
			c2.259,0,4.211,0.242,5.856,0.726c1.646,0.484,3.001,1.017,4.066,1.597l-2.179,5.954c-0.936-0.484-1.977-0.912-3.121-1.283
			c-1.146-0.371-2.525-0.557-4.139-0.557c-1.808,0-3.106,0.25-3.896,0.75c-0.791,0.501-1.186,1.267-1.186,2.299
			c0,0.613,0.145,1.13,0.436,1.549c0.29,0.42,0.701,0.799,1.234,1.138c0.532,0.338,1.145,0.646,1.839,0.919
			c0.693,0.274,1.46,0.557,2.299,0.847c1.743,0.646,3.259,1.283,4.55,1.912c1.29,0.629,2.363,1.364,3.219,2.202
			c0.854,0.84,1.492,1.824,1.912,2.953c0.419,1.13,0.629,2.501,0.629,4.114c0,3.13-1.097,5.559-3.291,7.284
			c-2.194,1.727-5.502,2.59-9.922,2.59c-1.485,0-2.824-0.089-4.018-0.266c-1.194-0.178-2.251-0.396-3.171-0.654
			c-0.919-0.258-1.71-0.532-2.371-0.823c-0.662-0.291-1.219-0.564-1.67-0.823l2.13-6.002c0.999,0.549,2.233,1.041,3.702,1.477
			C153.836,102.409,155.636,102.627,157.766,102.627z"/>
		<path fill="#FFFFFF" d="M189.905,109.064c-2.356,0-4.389-0.332-6.099-0.992c-1.711-0.661-3.122-1.581-4.235-2.759
			c-1.113-1.177-1.937-2.581-2.469-4.211c-0.532-1.629-0.799-3.428-0.799-5.396V74.844h7.551v20.232c0,1.355,0.153,2.509,0.46,3.461
			c0.307,0.952,0.727,1.727,1.259,2.323c0.532,0.597,1.178,1.024,1.936,1.283s1.589,0.387,2.493,0.387
			c1.839,0,3.331-0.564,4.477-1.694c1.146-1.129,1.719-3.049,1.719-5.76V74.844h7.551v20.861c0,1.968-0.274,3.775-0.823,5.421
			s-1.388,3.058-2.517,4.235c-1.13,1.178-2.565,2.089-4.308,2.734S192.292,109.064,189.905,109.064z"/>
		<path fill="#FFFFFF" d="M220.832,74.457c5.034,0,8.89,0.896,11.568,2.687c2.678,1.791,4.018,4.574,4.018,8.349
			c0,2.356-0.541,4.268-1.622,5.736s-2.638,2.622-4.67,3.46c0.677,0.839,1.387,1.799,2.129,2.88c0.742,1.082,1.477,2.21,2.203,3.388
			c0.726,1.178,1.428,2.404,2.105,3.679c0.677,1.275,1.307,2.525,1.887,3.751h-8.44c-0.615-1.097-1.239-2.21-1.871-3.34
			c-0.631-1.129-1.278-2.227-1.942-3.291c-0.664-1.065-1.32-2.073-1.968-3.025c-0.648-0.951-1.297-1.815-1.944-2.589h-3.727v12.246
			h-7.551V75.328c1.646-0.322,3.348-0.548,5.106-0.677C217.872,74.522,219.444,74.457,220.832,74.457z M221.267,80.895
			c-0.549,0-1.04,0.017-1.476,0.048c-0.436,0.033-0.848,0.065-1.234,0.097v9.1h2.13c2.839,0,4.872-0.354,6.099-1.065
			c1.226-0.709,1.839-1.919,1.839-3.63c0-1.646-0.621-2.815-1.863-3.509C225.519,81.242,223.688,80.895,221.267,80.895z"/>
		<path fill="#FFFFFF" d="M243.291,108.387V74.844h22.652v6.341h-15.102v6.583h13.407v6.195h-13.407v8.083h16.215v6.341H243.291z"/>
	</g>
	<g>
		<path fill="#FFFFFF" d="M71.853,31.504c0,1.596-0.233,3.002-0.699,4.222c-0.467,1.219-1.099,2.236-1.896,3.052
			c-0.798,0.816-1.726,1.43-2.783,1.842c-1.059,0.413-2.179,0.619-3.361,0.619c-1.184,0-2.304-0.206-3.361-0.619
			c-1.058-0.412-1.985-1.026-2.783-1.842c-0.798-0.815-1.43-1.833-1.896-3.052c-0.467-1.219-0.699-2.626-0.699-4.222
			s0.232-2.999,0.699-4.208c0.466-1.21,1.098-2.223,1.896-3.039c0.798-0.815,1.726-1.429,2.783-1.842
			c1.058-0.412,2.178-0.619,3.361-0.619c1.183,0,2.303,0.207,3.361,0.619c1.058,0.413,1.985,1.026,2.783,1.842
			c0.797,0.816,1.429,1.829,1.896,3.039C71.62,28.506,71.853,29.909,71.853,31.504z M69.917,31.504c0-1.255-0.161-2.38-0.483-3.375
			c-0.323-0.995-0.78-1.842-1.372-2.541c-0.591-0.699-1.304-1.232-2.138-1.6c-0.833-0.367-1.771-0.551-2.81-0.551
			c-1.04,0-1.977,0.184-2.811,0.551c-0.833,0.368-1.546,0.901-2.138,1.6c-0.591,0.699-1.048,1.546-1.371,2.541
			c-0.322,0.995-0.484,2.12-0.484,3.375s0.162,2.379,0.484,3.375c0.323,0.995,0.78,1.842,1.371,2.541
			c0.592,0.699,1.305,1.237,2.138,1.613c0.834,0.376,1.771,0.565,2.811,0.565c1.039,0,1.977-0.188,2.81-0.565
			c0.834-0.376,1.547-0.914,2.138-1.613c0.592-0.699,1.049-1.546,1.372-2.541C69.755,33.884,69.917,32.759,69.917,31.504z"/>
		<path fill="#FFFFFF" d="M79.947,39.652c1.452,0,2.581-0.265,3.388-0.795s1.21-1.388,1.21-2.574c0-0.683-0.13-1.253-0.39-1.711
			s-0.605-0.845-1.035-1.159c-0.431-0.314-0.924-0.583-1.479-0.806s-1.139-0.458-1.747-0.708c-0.771-0.303-1.462-0.614-2.071-0.936
			c-0.609-0.32-1.129-0.683-1.56-1.086c-0.43-0.403-0.757-0.865-0.981-1.385c-0.224-0.52-0.336-1.129-0.336-1.829
			c0-1.595,0.528-2.805,1.587-3.63c1.058-0.824,2.527-1.237,4.409-1.237c0.502,0,0.995,0.036,1.479,0.107
			c0.484,0.072,0.937,0.166,1.357,0.283c0.422,0.117,0.807,0.247,1.156,0.39c0.35,0.144,0.642,0.296,0.874,0.457l-0.646,1.533
			c-0.52-0.358-1.151-0.645-1.896-0.86c-0.744-0.215-1.546-0.323-2.406-0.323c-0.592,0-1.134,0.059-1.627,0.175
			c-0.493,0.117-0.919,0.305-1.277,0.565s-0.641,0.587-0.847,0.981c-0.207,0.395-0.31,0.87-0.31,1.425
			c0,0.574,0.107,1.058,0.322,1.452c0.216,0.395,0.516,0.735,0.901,1.022c0.385,0.287,0.838,0.547,1.357,0.78
			c0.521,0.233,1.085,0.475,1.694,0.726c0.735,0.305,1.43,0.61,2.084,0.914c0.654,0.305,1.224,0.664,1.708,1.076
			c0.483,0.413,0.869,0.915,1.156,1.506c0.286,0.592,0.43,1.318,0.43,2.178c0,1.685-0.587,2.949-1.761,3.792
			c-1.175,0.843-2.766,1.264-4.773,1.264c-0.717,0-1.371-0.045-1.963-0.134c-0.592-0.09-1.12-0.202-1.587-0.336
			c-0.466-0.134-0.86-0.273-1.183-0.417s-0.574-0.269-0.753-0.376l0.592-1.586c0.179,0.107,0.421,0.233,0.726,0.376
			s0.663,0.282,1.076,0.417c0.412,0.135,0.878,0.247,1.397,0.336C78.746,39.607,79.319,39.652,79.947,39.652z"/>
		<path fill="#FFFFFF" d="M98.231,38.146c-0.18-0.448-0.437-1.04-0.77-1.775c-0.333-0.735-0.706-1.537-1.121-2.406
			c-0.414-0.87-0.837-1.766-1.269-2.689c-0.433-0.923-0.847-1.788-1.243-2.595c-0.396-0.807-0.747-1.515-1.053-2.124
			c-0.307-0.609-0.531-1.04-0.676-1.291c-0.232,2.241-0.416,4.675-0.551,7.301c-0.135,2.626-0.256,5.382-0.363,8.269h-1.802
			c0.162-3.388,0.346-6.632,0.552-9.734s0.461-6.068,0.767-8.901h1.613c0.538,0.896,1.113,1.932,1.724,3.106
			c0.61,1.174,1.217,2.393,1.818,3.657c0.603,1.264,1.187,2.51,1.752,3.738c0.565,1.228,1.064,2.335,1.495,3.321
			c0.432-0.985,0.93-2.093,1.496-3.321c0.565-1.228,1.149-2.474,1.751-3.738c0.602-1.264,1.208-2.482,1.818-3.657
			c0.61-1.174,1.186-2.209,1.725-3.106h1.532c0.305,2.833,0.561,5.799,0.767,8.901s0.39,6.346,0.552,9.734h-1.855
			c-0.107-2.886-0.229-5.642-0.363-8.269c-0.135-2.626-0.318-5.06-0.551-7.301c-0.145,0.251-0.368,0.682-0.673,1.291
			s-0.654,1.317-1.049,2.124s-0.807,1.672-1.236,2.595c-0.431,0.924-0.852,1.82-1.264,2.689c-0.413,0.87-0.785,1.671-1.116,2.406
			c-0.332,0.735-0.588,1.327-0.767,1.775H98.231z"/>
		<path fill="#FFFFFF" d="M134.021,31.504c0,1.596-0.251,2.984-0.753,4.167c-0.502,1.184-1.205,2.169-2.11,2.958
			c-0.905,0.789-1.986,1.381-3.24,1.775c-1.255,0.395-2.636,0.591-4.142,0.591c-0.753,0-1.542-0.04-2.366-0.121
			c-0.824-0.081-1.551-0.202-2.178-0.363V22.55c0.627-0.179,1.354-0.309,2.178-0.39c0.824-0.081,1.613-0.121,2.366-0.121
			c1.506,0,2.887,0.197,4.142,0.591c1.254,0.395,2.335,0.986,3.24,1.775c0.905,0.789,1.608,1.775,2.11,2.958
			S134.021,29.927,134.021,31.504z M121.06,39.222c0.107,0.018,0.381,0.054,0.82,0.107s1.143,0.081,2.111,0.081
			c1.344,0,2.518-0.184,3.522-0.551c1.004-0.367,1.846-0.892,2.527-1.573c0.681-0.681,1.192-1.51,1.533-2.487
			c0.34-0.977,0.511-2.075,0.511-3.294s-0.171-2.313-0.511-3.281c-0.341-0.968-0.853-1.792-1.533-2.474
			c-0.682-0.681-1.523-1.206-2.527-1.573c-1.005-0.367-2.179-0.551-3.522-0.551c-0.969,0-1.672,0.027-2.111,0.081
			s-0.713,0.09-0.82,0.107V39.222z"/>
		<path fill="#FFFFFF" d="M149.86,33.897c0,1.094-0.158,2.088-0.471,2.985c-0.314,0.896-0.754,1.658-1.318,2.286
			s-1.232,1.116-2.002,1.465c-0.771,0.35-1.623,0.524-2.555,0.524c-0.934,0-1.785-0.175-2.556-0.524s-1.438-0.838-2.003-1.465
			s-1.004-1.389-1.317-2.286c-0.314-0.896-0.471-1.891-0.471-2.985c0-1.093,0.156-2.088,0.471-2.985
			c0.313-0.896,0.753-1.663,1.317-2.299s1.232-1.129,2.003-1.479s1.622-0.524,2.556-0.524c0.932,0,1.783,0.175,2.555,0.524
			c0.77,0.35,1.438,0.843,2.002,1.479s1.004,1.403,1.318,2.299C149.702,31.809,149.86,32.804,149.86,33.897z M148.004,33.897
			c0-1.739-0.404-3.124-1.211-4.155c-0.807-1.03-1.9-1.546-3.279-1.546c-1.382,0-2.475,0.516-3.281,1.546
			c-0.807,1.031-1.21,2.416-1.21,4.155s0.403,3.119,1.21,4.141c0.807,1.021,1.899,1.533,3.281,1.533
			c1.379,0,2.473-0.511,3.279-1.533C147.6,37.017,148.004,35.636,148.004,33.897z"/>
		<path fill="#FFFFFF" d="M162.623,26.933c0.16,0.896,0.37,1.85,0.629,2.863s0.545,2.043,0.857,3.091
			c0.312,1.048,0.644,2.083,0.994,3.106c0.35,1.022,0.705,1.982,1.065,2.879c0.306-0.681,0.629-1.509,0.971-2.485
			c0.343-0.976,0.684-2.006,1.026-3.089c0.342-1.083,0.66-2.177,0.957-3.281c0.297-1.104,0.544-2.132,0.741-3.083h1.723
			c-0.647,2.73-1.353,5.224-2.117,7.48c-0.765,2.257-1.606,4.397-2.524,6.421h-1.62c-0.272-0.633-0.557-1.339-0.854-2.119
			c-0.299-0.779-0.605-1.612-0.922-2.499c-0.315-0.886-0.622-1.817-0.917-2.793c-0.296-0.976-0.578-1.975-0.847-2.996
			c-0.268,1.023-0.549,2.024-0.843,3.002c-0.295,0.979-0.6,1.911-0.914,2.798c-0.314,0.888-0.62,1.721-0.917,2.5
			c-0.296,0.78-0.578,1.481-0.846,2.105h-1.681c-0.919-2.024-1.76-4.166-2.521-6.425c-0.763-2.259-1.464-4.751-2.107-7.477h1.855
			c0.198,0.95,0.445,1.976,0.742,3.078c0.298,1.102,0.617,2.195,0.959,3.279s0.688,2.111,1.039,3.08s0.679,1.794,0.984,2.476
			c0.343-0.893,0.688-1.851,1.032-2.874s0.668-2.055,0.972-3.096c0.303-1.04,0.588-2.067,0.855-3.08s0.508-1.968,0.72-2.862H162.623
			z"/>
		<path fill="#FFFFFF" d="M174.49,27.417c0.52-0.144,1.219-0.305,2.098-0.484c0.878-0.179,1.953-0.269,3.227-0.269
			c1.058,0,1.94,0.152,2.648,0.457c0.708,0.305,1.272,0.74,1.694,1.304c0.421,0.564,0.722,1.242,0.9,2.03
			c0.18,0.789,0.27,1.658,0.27,2.608v7.771h-1.748v-7.207c0-0.986-0.067-1.819-0.202-2.5c-0.134-0.681-0.358-1.237-0.672-1.667
			s-0.726-0.739-1.237-0.928c-0.511-0.188-1.151-0.282-1.922-0.282c-0.825,0-1.538,0.045-2.138,0.134
			c-0.602,0.09-0.991,0.171-1.17,0.242v12.208h-1.748V27.417z"/>
		<path fill="#FFFFFF" d="M193.312,41.077c-0.592-0.018-1.107-0.094-1.546-0.229c-0.439-0.135-0.807-0.34-1.103-0.619
			c-0.296-0.278-0.521-0.636-0.672-1.076c-0.153-0.439-0.229-0.99-0.229-1.654V20.291l1.748-0.323v17.479
			c0,0.43,0.041,0.776,0.121,1.035c0.081,0.26,0.202,0.466,0.363,0.619s0.372,0.265,0.632,0.336c0.26,0.072,0.569,0.135,0.928,0.188
			L193.312,41.077z"/>
		<path fill="#FFFFFF" d="M208.505,33.897c0,1.094-0.157,2.088-0.471,2.985s-0.753,1.658-1.317,2.286s-1.232,1.116-2.003,1.465
			c-0.771,0.35-1.623,0.524-2.555,0.524c-0.933,0-1.784-0.175-2.555-0.524c-0.771-0.35-1.438-0.838-2.003-1.465
			c-0.565-0.627-1.005-1.389-1.318-2.286s-0.471-1.891-0.471-2.985c0-1.093,0.157-2.088,0.471-2.985
			c0.313-0.896,0.753-1.663,1.318-2.299c0.564-0.636,1.231-1.129,2.003-1.479c0.771-0.35,1.622-0.524,2.555-0.524
			c0.932,0,1.783,0.175,2.555,0.524c0.771,0.35,1.438,0.843,2.003,1.479s1.004,1.403,1.317,2.299
			C208.348,31.809,208.505,32.804,208.505,33.897z M206.65,33.897c0-1.739-0.403-3.124-1.21-4.155c-0.807-1.03-1.9-1.546-3.28-1.546
			c-1.381,0-2.474,0.516-3.281,1.546c-0.807,1.031-1.21,2.416-1.21,4.155s0.403,3.119,1.21,4.141c0.808,1.021,1.9,1.533,3.281,1.533
			c1.38,0,2.474-0.511,3.28-1.533C206.247,37.017,206.65,35.636,206.65,33.897z"/>
		<path fill="#FFFFFF" d="M216.518,26.61c0.914,0,1.689,0.13,2.326,0.39c0.636,0.26,1.151,0.619,1.546,1.076s0.682,1,0.86,1.627
			c0.18,0.627,0.27,1.309,0.27,2.043v8.766c-0.18,0.054-0.439,0.112-0.78,0.175c-0.341,0.063-0.735,0.13-1.183,0.202
			c-0.449,0.071-0.946,0.13-1.493,0.175c-0.547,0.044-1.106,0.067-1.681,0.067c-0.735,0-1.411-0.081-2.03-0.242
			c-0.618-0.161-1.156-0.417-1.613-0.766s-0.815-0.798-1.075-1.345c-0.26-0.546-0.39-1.214-0.39-2.003
			c0-0.753,0.143-1.398,0.43-1.936c0.287-0.538,0.69-0.981,1.21-1.331c0.521-0.35,1.139-0.605,1.855-0.766
			c0.717-0.162,1.497-0.242,2.34-0.242c0.251,0,0.515,0.014,0.793,0.041s0.547,0.063,0.807,0.107c0.26,0.045,0.484,0.09,0.673,0.134
			c0.188,0.045,0.317,0.085,0.39,0.121v-0.86c0-0.484-0.036-0.955-0.107-1.412c-0.072-0.457-0.229-0.87-0.471-1.237
			c-0.242-0.368-0.583-0.663-1.022-0.888c-0.439-0.224-1.018-0.336-1.734-0.336c-1.021,0-1.783,0.072-2.285,0.215
			c-0.502,0.144-0.87,0.26-1.103,0.35l-0.242-1.533c0.305-0.143,0.775-0.277,1.412-0.403
			C214.855,26.673,215.622,26.61,216.518,26.61z M216.679,39.571c0.682,0,1.277-0.022,1.788-0.067
			c0.512-0.044,0.945-0.103,1.305-0.175v-4.894c-0.197-0.089-0.511-0.184-0.941-0.282c-0.43-0.098-1.021-0.148-1.774-0.148
			c-0.431,0-0.879,0.032-1.345,0.094c-0.467,0.063-0.896,0.197-1.291,0.403s-0.717,0.489-0.968,0.847s-0.376,0.833-0.376,1.425
			c0,0.521,0.084,0.959,0.255,1.318c0.17,0.359,0.412,0.646,0.727,0.86c0.313,0.215,0.689,0.372,1.129,0.471
			S216.124,39.571,216.679,39.571z"/>
		<path fill="#FFFFFF" d="M237.035,40.405c-0.521,0.179-1.184,0.35-1.99,0.511c-0.807,0.162-1.828,0.242-3.065,0.242
			c-1.021,0-1.949-0.166-2.783-0.498c-0.833-0.332-1.551-0.811-2.15-1.438c-0.602-0.627-1.067-1.389-1.398-2.286
			c-0.332-0.896-0.498-1.909-0.498-3.039c0-1.058,0.139-2.03,0.417-2.917c0.278-0.888,0.686-1.654,1.224-2.299
			s1.196-1.147,1.977-1.506c0.779-0.358,1.671-0.538,2.676-0.538c0.914,0,1.707,0.13,2.38,0.39c0.672,0.26,1.16,0.507,1.465,0.74
			v-7.476l1.748-0.323V40.405z M235.287,29.46c-0.161-0.125-0.363-0.26-0.604-0.403c-0.242-0.143-0.524-0.278-0.848-0.403
			c-0.322-0.125-0.672-0.229-1.049-0.309c-0.376-0.081-0.771-0.121-1.183-0.121c-0.86,0-1.582,0.152-2.165,0.457
			c-0.582,0.305-1.053,0.713-1.411,1.224c-0.359,0.511-0.619,1.112-0.78,1.802s-0.242,1.421-0.242,2.191
			c0,1.829,0.457,3.231,1.372,4.208c0.914,0.978,2.124,1.466,3.63,1.466c0.86,0,1.555-0.041,2.084-0.121
			c0.528-0.081,0.928-0.166,1.196-0.255V29.46z"/>
		<path fill="#FFFFFF" d="M240.826,33.871c0-1.219,0.175-2.281,0.524-3.187s0.807-1.663,1.372-2.272
			c0.564-0.609,1.21-1.062,1.936-1.358c0.727-0.295,1.475-0.443,2.245-0.443c1.703,0,3.062,0.556,4.074,1.667
			c1.013,1.112,1.52,2.824,1.52,5.136c0,0.144-0.005,0.287-0.014,0.43c-0.01,0.144-0.022,0.278-0.04,0.403h-9.762
			c0.054,1.703,0.476,3.012,1.265,3.926c0.788,0.914,2.043,1.372,3.764,1.372c0.95,0,1.703-0.09,2.259-0.269s0.959-0.332,1.21-0.457
			l0.323,1.506c-0.251,0.144-0.722,0.313-1.412,0.511s-1.501,0.296-2.434,0.296c-1.219,0-2.259-0.18-3.119-0.538
			s-1.568-0.86-2.124-1.506c-0.556-0.645-0.959-1.412-1.21-2.299S240.826,34.928,240.826,33.871z M250.695,32.768
			c-0.036-1.452-0.377-2.582-1.021-3.388c-0.646-0.807-1.561-1.21-2.743-1.21c-0.628,0-1.188,0.125-1.681,0.376
			s-0.924,0.587-1.291,1.008c-0.367,0.421-0.654,0.91-0.86,1.465c-0.206,0.556-0.327,1.139-0.363,1.748H250.695z"/>
		<path fill="#FFFFFF" d="M261.127,26.664c0.573,0,1.116,0.045,1.627,0.134c0.511,0.09,0.865,0.18,1.063,0.269l-0.35,1.506
			c-0.144-0.071-0.436-0.148-0.874-0.229c-0.439-0.081-1.018-0.121-1.734-0.121c-0.753,0-1.358,0.054-1.815,0.161
			c-0.457,0.108-0.757,0.198-0.9,0.269v12.181h-1.748V27.578c0.448-0.197,1.066-0.398,1.855-0.605
			C259.04,26.768,259.999,26.664,261.127,26.664z"/>
	</g>
	<g>
		<path fill="#FFFFFF" d="M58.432,162.601c-0.609-0.934-1.295-1.858-2.057-2.773c-0.763-0.915-1.564-1.777-2.407-2.585
			c-0.843-0.809-1.698-1.544-2.567-2.209c-0.87-0.664-1.708-1.221-2.515-1.669v9.236h-1.828v-18.635h1.828v8.672
			c0.682-0.608,1.439-1.311,2.274-2.107c0.834-0.797,1.659-1.598,2.476-2.402c0.816-0.806,1.583-1.576,2.301-2.31
			s1.292-1.351,1.723-1.853h2.205c-0.521,0.555-1.148,1.213-1.884,1.974c-0.736,0.761-1.517,1.544-2.342,2.35
			s-1.646,1.598-2.462,2.376c-0.816,0.778-1.548,1.463-2.193,2.054c0.52,0.323,1.08,0.723,1.681,1.198s1.21,0.996,1.828,1.562
			c0.619,0.565,1.229,1.158,1.829,1.777s1.165,1.243,1.694,1.871c0.528,0.629,1.003,1.239,1.425,1.831
			c0.421,0.593,0.767,1.14,1.035,1.643H58.432z"/>
		<path fill="#FFFFFF" d="M61.956,155.636c0-1.219,0.175-2.28,0.524-3.187c0.35-0.904,0.807-1.662,1.371-2.271
			s1.21-1.063,1.936-1.358c0.727-0.295,1.475-0.443,2.246-0.443c1.702,0,3.061,0.556,4.073,1.667s1.52,2.823,1.52,5.136
			c0,0.144-0.005,0.287-0.014,0.431s-0.022,0.278-0.04,0.403h-9.761c0.054,1.703,0.475,3.012,1.264,3.926
			c0.788,0.914,2.043,1.371,3.765,1.371c0.949,0,1.702-0.089,2.259-0.269c0.555-0.179,0.958-0.331,1.21-0.457l0.322,1.506
			c-0.251,0.144-0.722,0.313-1.411,0.511c-0.69,0.197-1.502,0.296-2.434,0.296c-1.22,0-2.259-0.18-3.119-0.538
			c-0.861-0.358-1.569-0.86-2.125-1.506s-0.959-1.411-1.21-2.299S61.956,156.695,61.956,155.636z M71.824,154.534
			c-0.036-1.451-0.376-2.581-1.021-3.388s-1.56-1.21-2.743-1.21c-0.628,0-1.188,0.126-1.681,0.376
			c-0.493,0.252-0.923,0.588-1.29,1.009c-0.368,0.422-0.655,0.91-0.861,1.466s-0.327,1.139-0.362,1.747H71.824z"/>
		<path fill="#FFFFFF" d="M81.315,162.897c-0.584-1.097-1.149-2.236-1.698-3.419c-0.549-1.182-1.062-2.378-1.539-3.587
			c-0.477-1.21-0.913-2.419-1.309-3.628c-0.396-1.21-0.735-2.397-1.02-3.564h1.855c0.196,0.861,0.447,1.789,0.752,2.784
			c0.304,0.994,0.648,2.021,1.033,3.079s0.81,2.143,1.275,3.254c0.466,1.112,0.974,2.205,1.524,3.279
			c0.398-1.107,0.753-2.153,1.061-3.139s0.593-1.966,0.856-2.942c0.263-0.977,0.517-1.975,0.761-2.996
			c0.244-1.021,0.494-2.127,0.75-3.319h1.748c-0.584,2.602-1.24,5.132-1.968,7.59s-1.523,4.706-2.386,6.743
			c-0.34,0.807-0.69,1.501-1.051,2.084c-0.36,0.582-0.761,1.062-1.201,1.438c-0.441,0.376-0.954,0.654-1.539,0.833
			c-0.585,0.18-1.273,0.27-2.065,0.27c-0.45,0-0.86-0.054-1.229-0.162c-0.369-0.107-0.599-0.188-0.688-0.241l0.35-1.452
			c0.071,0.054,0.273,0.13,0.606,0.229c0.332,0.098,0.678,0.147,1.038,0.147c0.503,0,0.956-0.054,1.361-0.161
			c0.404-0.107,0.768-0.292,1.091-0.552c0.324-0.26,0.616-0.596,0.876-1.008C80.822,164.043,81.073,163.524,81.315,162.897z"/>
		<path fill="#FFFFFF" d="M99.671,148.699c0.16,0.896,0.371,1.851,0.63,2.863s0.544,2.043,0.856,3.092
			c0.313,1.048,0.644,2.083,0.994,3.105s0.706,1.982,1.065,2.879c0.306-0.681,0.629-1.509,0.972-2.484
			c0.342-0.977,0.684-2.006,1.025-3.09c0.342-1.083,0.661-2.178,0.957-3.281c0.297-1.104,0.544-2.132,0.742-3.084h1.722
			c-0.646,2.73-1.353,5.225-2.117,7.481s-1.606,4.397-2.524,6.421h-1.62c-0.271-0.633-0.557-1.34-0.854-2.118
			c-0.299-0.779-0.605-1.612-0.922-2.499c-0.315-0.887-0.621-1.817-0.917-2.794c-0.296-0.976-0.577-1.975-0.846-2.995
			c-0.269,1.023-0.55,2.024-0.844,3.002c-0.295,0.979-0.6,1.912-0.914,2.799s-0.62,1.721-0.916,2.5
			c-0.297,0.78-0.579,1.481-0.847,2.105h-1.681c-0.919-2.024-1.76-4.166-2.521-6.425c-0.762-2.259-1.464-4.751-2.106-7.478h1.854
			c0.198,0.95,0.446,1.977,0.743,3.078c0.297,1.103,0.616,2.195,0.959,3.279c0.342,1.084,0.688,2.11,1.038,3.079
			c0.351,0.97,0.679,1.795,0.984,2.476c0.344-0.892,0.688-1.85,1.032-2.873s0.669-2.056,0.972-3.096
			c0.304-1.041,0.589-2.067,0.855-3.08c0.268-1.014,0.508-1.969,0.721-2.863H99.671z"/>
		<path fill="#FFFFFF" d="M123.398,155.664c0,1.094-0.157,2.089-0.471,2.984c-0.313,0.896-0.753,1.658-1.317,2.286
			c-0.565,0.628-1.233,1.116-2.004,1.465c-0.771,0.35-1.622,0.524-2.555,0.524c-0.932,0-1.783-0.175-2.554-0.524
			c-0.771-0.349-1.438-0.837-2.004-1.465c-0.564-0.628-1.004-1.39-1.317-2.286c-0.313-0.896-0.471-1.891-0.471-2.984
			s0.157-2.088,0.471-2.984s0.753-1.663,1.317-2.3c0.565-0.636,1.232-1.129,2.004-1.479c0.771-0.35,1.622-0.524,2.554-0.524
			c0.933,0,1.784,0.175,2.555,0.524s1.438,0.843,2.004,1.479c0.564,0.637,1.004,1.403,1.317,2.3S123.398,154.57,123.398,155.664z
			 M121.542,155.664c0-1.738-0.403-3.123-1.21-4.154s-1.9-1.547-3.281-1.547c-1.38,0-2.474,0.516-3.28,1.547s-1.21,2.416-1.21,4.154
			c0,1.739,0.403,3.119,1.21,4.141c0.807,1.022,1.9,1.533,3.28,1.533c1.381,0,2.475-0.511,3.281-1.533
			C121.139,158.783,121.542,157.403,121.542,155.664z"/>
		<path fill="#FFFFFF" d="M131.921,148.43c0.573,0,1.116,0.045,1.627,0.134c0.511,0.09,0.864,0.18,1.062,0.27l-0.349,1.506
			c-0.145-0.071-0.436-0.147-0.874-0.229c-0.439-0.081-1.018-0.121-1.734-0.121c-0.753,0-1.358,0.054-1.815,0.161
			s-0.758,0.197-0.9,0.27v12.181h-1.748v-13.257c0.447-0.196,1.066-0.398,1.855-0.604
			C129.833,148.534,130.792,148.43,131.921,148.43z"/>
		<path fill="#FFFFFF" d="M148.297,162.17c-0.521,0.18-1.184,0.35-1.99,0.512c-0.807,0.161-1.828,0.241-3.065,0.241
			c-1.021,0-1.949-0.166-2.783-0.497c-0.833-0.331-1.551-0.811-2.151-1.438c-0.601-0.627-1.066-1.389-1.397-2.286
			c-0.332-0.896-0.498-1.909-0.498-3.038c0-1.058,0.139-2.03,0.417-2.918c0.277-0.887,0.686-1.653,1.224-2.299
			s1.196-1.146,1.977-1.506c0.779-0.358,1.671-0.537,2.675-0.537c0.915,0,1.708,0.13,2.381,0.389c0.672,0.261,1.16,0.508,1.465,0.74
			v-7.476l1.748-0.323V162.17z M146.549,151.227c-0.161-0.126-0.363-0.26-0.604-0.403c-0.242-0.144-0.524-0.278-0.848-0.403
			c-0.322-0.126-0.672-0.229-1.049-0.31c-0.376-0.081-0.771-0.121-1.183-0.121c-0.86,0-1.583,0.152-2.165,0.457
			c-0.583,0.305-1.054,0.713-1.412,1.224s-0.618,1.111-0.779,1.802s-0.242,1.421-0.242,2.191c0,1.828,0.457,3.231,1.371,4.208
			c0.915,0.978,2.125,1.466,3.631,1.466c0.86,0,1.555-0.04,2.084-0.121c0.528-0.081,0.928-0.166,1.196-0.256V151.227z"/>
		<path fill="#FFFFFF" d="M155.773,161.364c1.004,0,1.832-0.165,2.487-0.497c0.654-0.331,0.981-0.892,0.981-1.681
			c0-0.376-0.059-0.699-0.175-0.968c-0.117-0.27-0.31-0.511-0.578-0.727c-0.27-0.215-0.623-0.421-1.063-0.618
			s-0.981-0.431-1.627-0.699c-0.52-0.215-1.013-0.435-1.479-0.659c-0.467-0.224-0.879-0.483-1.237-0.779s-0.646-0.649-0.86-1.063
			c-0.215-0.412-0.322-0.914-0.322-1.506c0-1.129,0.426-2.043,1.277-2.742c0.851-0.699,2.021-1.049,3.509-1.049
			c0.95,0,1.734,0.08,2.353,0.242c0.619,0.161,1.053,0.305,1.305,0.43l-0.403,1.56c-0.216-0.107-0.578-0.251-1.089-0.43
			c-0.512-0.18-1.26-0.27-2.246-0.27c-0.395,0-0.766,0.041-1.115,0.122c-0.35,0.08-0.659,0.206-0.928,0.377
			c-0.27,0.171-0.484,0.386-0.646,0.646s-0.242,0.579-0.242,0.956c0,0.378,0.071,0.701,0.215,0.971s0.354,0.508,0.632,0.714
			c0.278,0.207,0.619,0.399,1.022,0.577c0.403,0.179,0.864,0.375,1.385,0.59c0.537,0.214,1.053,0.433,1.546,0.655
			c0.493,0.224,0.928,0.492,1.305,0.806c0.376,0.313,0.681,0.689,0.914,1.129c0.232,0.439,0.35,0.991,0.35,1.653
			c0,1.256-0.471,2.205-1.412,2.851s-2.228,0.968-3.858,0.968c-1.22,0-2.151-0.103-2.797-0.309s-1.075-0.363-1.291-0.471
			l0.458-1.587c0.054,0.036,0.17,0.095,0.349,0.175c0.18,0.081,0.422,0.171,0.727,0.27s0.668,0.184,1.089,0.255
			C154.728,161.329,155.217,161.364,155.773,161.364z"/>
		<path fill="#FFFFFF" d="M181.467,146.251c0.864,2.882,1.727,5.494,2.588,7.836c0.861,2.343,1.71,4.49,2.546,6.443
			c0.615-2.116,1.236-4.607,1.862-7.474s1.229-5.896,1.808-9.091h1.802c-0.331,1.92-0.66,3.719-0.987,5.396
			c-0.328,1.678-0.673,3.272-1.035,4.786c-0.361,1.515-0.741,2.966-1.138,4.354c-0.397,1.389-0.83,2.755-1.299,4.099h-1.968
			c-0.423-1.024-0.844-2.048-1.265-3.07c-0.421-1.021-0.839-2.074-1.254-3.158c-0.414-1.084-0.829-2.217-1.244-3.398
			c-0.415-1.183-0.832-2.438-1.252-3.764c-0.426,1.331-0.848,2.589-1.267,3.773c-0.418,1.185-0.833,2.318-1.245,3.403
			s-0.829,2.138-1.25,3.16c-0.421,1.021-0.852,2.039-1.292,3.054h-1.927c-0.485-1.346-0.931-2.713-1.336-4.104
			c-0.404-1.39-0.782-2.843-1.134-4.356c-0.351-1.515-0.685-3.109-1.001-4.785c-0.317-1.676-0.638-3.472-0.964-5.39h1.883
			c0.278,1.576,0.559,3.121,0.842,4.637s0.583,2.981,0.898,4.397c0.316,1.416,0.638,2.756,0.966,4.021s0.659,2.434,0.991,3.51
			c0.765-1.989,1.589-4.143,2.472-6.463c0.884-2.319,1.754-4.926,2.612-7.816H181.467z"/>
		<path fill="#FFFFFF" d="M197.478,144.504c0,0.413-0.126,0.739-0.377,0.981s-0.556,0.363-0.914,0.363s-0.663-0.121-0.914-0.363
			s-0.377-0.568-0.377-0.981c0-0.412,0.126-0.739,0.377-0.981s0.556-0.363,0.914-0.363s0.663,0.121,0.914,0.363
			S197.478,144.092,197.478,144.504z M197.075,162.601h-1.748v-13.902h1.748V162.601z"/>
		<path fill="#FFFFFF" d="M210.332,150.125c-0.42,0.461-0.961,1.104-1.622,1.93c-0.662,0.826-1.368,1.745-2.119,2.76
			s-1.495,2.073-2.232,3.176c-0.736,1.103-1.384,2.146-1.941,3.133h8.157v1.479h-10.165v-1.264c0.463-0.881,1.038-1.852,1.725-2.912
			c0.686-1.061,1.398-2.104,2.14-3.13s1.464-1.99,2.169-2.892c0.705-0.902,1.293-1.644,1.766-2.226h-7.396v-1.479h9.52V150.125z"/>
		<path fill="#FFFFFF" d="M218.156,148.376c0.914,0,1.689,0.131,2.326,0.39c0.636,0.261,1.151,0.618,1.546,1.076
			c0.395,0.457,0.682,0.999,0.86,1.626c0.18,0.628,0.27,1.31,0.27,2.044v8.767c-0.18,0.054-0.439,0.111-0.78,0.175
			c-0.341,0.063-0.735,0.13-1.183,0.201c-0.449,0.071-0.946,0.13-1.493,0.175s-1.106,0.067-1.681,0.067
			c-0.735,0-1.411-0.081-2.03-0.242c-0.618-0.161-1.156-0.417-1.613-0.767s-0.815-0.797-1.075-1.344s-0.39-1.215-0.39-2.004
			c0-0.753,0.143-1.398,0.43-1.936c0.287-0.538,0.69-0.981,1.21-1.331c0.521-0.35,1.139-0.605,1.855-0.767s1.497-0.242,2.34-0.242
			c0.251,0,0.515,0.014,0.793,0.04c0.278,0.027,0.547,0.063,0.807,0.108s0.484,0.09,0.673,0.134c0.188,0.045,0.317,0.086,0.39,0.121
			v-0.86c0-0.484-0.036-0.955-0.107-1.412c-0.072-0.457-0.229-0.869-0.471-1.236s-0.583-0.663-1.022-0.888
			c-0.439-0.224-1.018-0.336-1.734-0.336c-1.021,0-1.783,0.071-2.285,0.215s-0.87,0.261-1.103,0.35l-0.242-1.532
			c0.305-0.144,0.775-0.277,1.412-0.404C216.493,148.439,217.259,148.376,218.156,148.376z M218.317,161.337
			c0.682,0,1.277-0.022,1.788-0.067c0.512-0.045,0.945-0.103,1.305-0.175v-4.894c-0.197-0.09-0.511-0.184-0.941-0.282
			c-0.43-0.099-1.021-0.148-1.774-0.148c-0.431,0-0.879,0.031-1.345,0.094c-0.467,0.063-0.896,0.198-1.291,0.403
			c-0.395,0.207-0.717,0.489-0.968,0.848s-0.376,0.833-0.376,1.425c0,0.521,0.084,0.959,0.255,1.317
			c0.17,0.359,0.412,0.646,0.727,0.861c0.313,0.215,0.689,0.372,1.129,0.47C217.264,161.289,217.761,161.337,218.317,161.337z"/>
		<path fill="#FFFFFF" d="M232.353,148.43c0.573,0,1.116,0.045,1.627,0.134c0.511,0.09,0.865,0.18,1.063,0.27l-0.35,1.506
			c-0.144-0.071-0.436-0.147-0.874-0.229c-0.439-0.081-1.018-0.121-1.734-0.121c-0.753,0-1.358,0.054-1.815,0.161
			s-0.757,0.197-0.9,0.27v12.181h-1.748v-13.257c0.448-0.196,1.066-0.398,1.855-0.604S231.224,148.43,232.353,148.43z"/>
		<path fill="#FFFFFF" d="M248.729,162.17c-0.521,0.18-1.184,0.35-1.99,0.512c-0.807,0.161-1.828,0.241-3.065,0.241
			c-1.021,0-1.949-0.166-2.783-0.497c-0.833-0.331-1.551-0.811-2.15-1.438c-0.602-0.627-1.067-1.389-1.398-2.286
			c-0.332-0.896-0.498-1.909-0.498-3.038c0-1.058,0.139-2.03,0.417-2.918c0.278-0.887,0.686-1.653,1.224-2.299
			s1.196-1.146,1.977-1.506c0.779-0.358,1.671-0.537,2.676-0.537c0.914,0,1.707,0.13,2.38,0.389c0.672,0.261,1.16,0.508,1.465,0.74
			v-7.476l1.748-0.323V162.17z M246.981,151.227c-0.161-0.126-0.363-0.26-0.604-0.403c-0.242-0.144-0.524-0.278-0.848-0.403
			c-0.322-0.126-0.672-0.229-1.049-0.31c-0.376-0.081-0.771-0.121-1.183-0.121c-0.86,0-1.582,0.152-2.165,0.457
			c-0.582,0.305-1.053,0.713-1.411,1.224c-0.359,0.511-0.619,1.111-0.78,1.802s-0.242,1.421-0.242,2.191
			c0,1.828,0.457,3.231,1.372,4.208c0.914,0.978,2.124,1.466,3.63,1.466c0.86,0,1.555-0.04,2.084-0.121
			c0.528-0.081,0.928-0.166,1.196-0.256V151.227z"/>
	</g>
	<path fill="#FFFFFF" d="M31.266,150.813c-1.042,0-3.477-2.195-3.477-3.398s0.844-2.176,1.886-2.176c1.04,0,3.477,2.197,3.477,3.396
		S32.309,150.813,31.266,150.813 M29.796,139.334c-4.501,0-7.968,3.826-7.968,9.301c0,0.682,0.069,1.336,0.174,1.975l-11.491,13.254
		l1.013,4.512l3.226-0.4l2.024,0.236l0.738-3.189l2.832-0.76l-0.068-2.994l3.839-1.559l0.985-3.787
		c1.541,0.525,3.111,0.805,4.601,0.805c4.566,0,8.403-2.613,8.563-8.689c-0.236-5.949-2.147-7.779-7.122-8.592
		C30.684,139.368,30.237,139.334,29.796,139.334"/>
	<path fill-rule="evenodd" clip-rule="evenodd" fill="#FFFFFF" d="M10.511,34.209l2.138-1.061l14.962,7.422l14.965-7.422
		l2.138,1.061l-17.104,8.482L10.511,34.209z M10.511,29.968l2.138-1.06l14.962,7.421l14.965-7.421l2.138,1.06L27.611,38.45
		L10.511,29.968z M10.511,25.727l17.1-8.482l17.104,8.482l-17.104,8.482L10.511,25.727z M27.611,44.811l14.965-7.422l2.138,1.061
		l-17.104,8.482l-17.1-8.482l2.138-1.061L27.611,44.811z"/>
</g>
</svg>
