<?xml version="1.0" encoding="utf-8"?>
<!-- Generator: Adobe Illustrator 16.0.0, SVG Export Plug-In . SVG Version: 6.00 Build 0)  -->
<!DOCTYPE svg PUBLIC "-//W3C//DTD SVG 1.1//EN" "http://www.w3.org/Graphics/SVG/1.1/DTD/svg11.dtd">
<svg version="1.1" id="Layer_1" xmlns="http://www.w3.org/2000/svg" xmlns:xlink="http://www.w3.org/1999/xlink" x="0px" y="0px"
	 width="217.217px" height="68.137px" viewBox="0 0 217.217 68.137" enable-background="new 0 0 217.217 68.137"
	 xml:space="preserve">
<g>
	<path fill-rule="evenodd" clip-rule="evenodd" fill="#FFFFFF" d="M183.742,0.594c-16.059,0-29.468,11.31-32.717,26.396
		c-1.166,1.91-2.28,3.904-4.605,3.904c-2.028,0-3.134-1.52-4.157-3.175c-2.968-15.449-16.55-27.125-32.865-27.125
		c-15.732,0-28.921,10.854-32.506,25.479c-1.415,2.125-2.481,4.821-5.188,4.821c-2.399,0-3.51-2.124-4.717-4.086
		C63.669,11.813,50.305,0.594,34.313,0.594c-18.488,0-33.475,14.988-33.475,33.474c0,18.487,14.986,33.474,33.475,33.474
		c15.41,0,28.38-10.417,32.272-24.591c1.382-2.108,2.458-4.717,5.119-4.717c2.975,0,3.97,3.259,5.623,5.434
		c4.127,13.808,16.919,23.875,32.07,23.875c15.771,0,28.987-10.91,32.532-25.592c1.126-1.851,2.241-3.717,4.49-3.717
		c2.582,0,3.672,2.458,4.996,4.529c3.828,14.271,16.847,24.78,32.326,24.78c18.488,0,33.475-14.987,33.475-33.474
		C217.217,15.582,202.23,0.594,183.742,0.594z"/>
	<path fill-rule="evenodd" clip-rule="evenodd" fill="#2F3539" d="M34.313,59.155c-13.833,0-25.089-11.253-25.089-25.086
		c0-13.833,11.256-25.087,25.089-25.087s25.087,11.254,25.087,25.087C59.399,47.902,48.146,59.155,34.313,59.155z"/>
	<path fill-rule="evenodd" clip-rule="evenodd" fill="#2F3539" d="M109.397,59.155c-13.833,0-25.088-11.253-25.088-25.086
		c0-13.833,11.255-25.087,25.088-25.087s25.087,11.254,25.087,25.087C134.484,47.902,123.23,59.155,109.397,59.155z"/>
	<path fill-rule="evenodd" clip-rule="evenodd" fill="#2F3539" d="M183.742,59.155c-13.833,0-25.087-11.253-25.087-25.086
		c0-13.833,11.254-25.087,25.087-25.087s25.09,11.254,25.09,25.087C208.832,47.902,197.575,59.155,183.742,59.155z"/>
	<path fill-rule="evenodd" clip-rule="evenodd" fill="#FFFFFF" d="M45.727,37.062c-1.783,0-3.326-0.97-4.179-2.403
		c0.112-0.161,0.196-0.341,0.301-0.51c0.193-0.319,0.375-0.644,0.531-0.985c0.093-0.206,0.174-0.416,0.254-0.628
		c0.134-0.357,0.242-0.721,0.339-1.096c0.046-0.192,0.098-0.378,0.135-0.575c0.104-0.578,0.177-1.167,0.177-1.777v-2.453
		c0-0.376-0.069-0.735-0.109-1.1c0.745-0.461,1.612-0.74,2.552-0.74c2.695,0,4.883,2.196,4.883,4.907v2.453
		C50.609,34.865,48.422,37.062,45.727,37.062z M21.239,45.573l4.88-7.36h3.861h7.08h3.782l4.884,7.36H21.239z M33.521,36.984
		c-4.047,0-7.323-4.52-7.323-8.585v-2.454c0-4.065,3.276-7.359,7.323-7.359c4.046,0,7.322,3.294,7.322,7.359v2.454
		C40.843,32.464,37.566,36.984,33.521,36.984z M25.493,34.659L25.493,34.659c-0.414,0.696-0.988,1.273-1.677,1.689
		c-0.061,0.037-0.125,0.066-0.185,0.101c-0.274,0.148-0.557,0.271-0.857,0.364c-0.097,0.029-0.188,0.064-0.287,0.09
		c-0.375,0.094-0.766,0.158-1.173,0.158c-2.696,0-4.884-2.197-4.884-4.907v-2.453c0-2.711,2.188-4.907,4.884-4.907
		c0.436,0,0.85,0.075,1.251,0.184c0.073,0.019,0.142,0.041,0.214,0.064c0.384,0.123,0.749,0.283,1.086,0.491l0,0
		c-0.04,0.365-0.109,0.724-0.109,1.1v2.453C23.756,31.16,24.4,33.076,25.493,34.659z M23.756,38.212l-4.958,7.36h-2.367h-2.438
		l3.66-7.36H23.756z M49.387,38.212l3.662,7.36h-4.881l-4.884-7.36H49.387z"/>
	<path fill-rule="evenodd" clip-rule="evenodd" fill="#FFFFFF" d="M123.93,45.573c-2.855-8.524-5.71-17.045-8.565-25.567
		c0.46,0,0.688,0,1.145,0c3.506,8.521,7.011,17.042,10.516,25.567C125.992,45.573,124.961,45.573,123.93,45.573z M111.975,45.573
		c-0.028-0.708-0.058-1.415-0.086-2.121c-1.035,0-2.069,0-3.104,0c-0.028,0.706-0.058,1.413-0.083,2.121c-3.031,0-6.063,0-9.094,0
		c2.253-8.524,4.508-17.045,6.762-25.567c1.121,0,2.242,0,3.363,0c-0.028,0.707-0.058,1.415-0.087,2.121c0.552,0,0.83,0,1.382,0
		c-0.029-0.707-0.059-1.415-0.084-2.121c1.118,0,2.239,0,3.36,0c2.254,8.521,4.508,17.042,6.762,25.567
		C118.034,45.573,115.004,45.573,111.975,45.573z M111.157,25.303c-0.546,0-1.093,0-1.639,0c-0.081,1.966-0.158,3.932-0.24,5.898
		c0.705,0,1.411,0,2.116,0C111.313,29.234,111.236,27.269,111.157,25.303z M111.521,34.376c-0.788,0-1.58,0-2.369,0
		c-0.078,1.967-0.159,3.933-0.237,5.899c0.948,0,1.896,0,2.847,0C111.68,38.309,111.602,36.343,111.521,34.376z M93.647,45.573
		c3.506-8.524,7.011-17.045,10.517-25.567c0.456,0,0.688,0,1.145,0c-2.854,8.521-5.711,17.042-8.565,25.567
		C95.712,45.573,94.681,45.573,93.647,45.573z"/>
	<g>
		<g>
			<path fill-rule="evenodd" clip-rule="evenodd" fill="#FFFFFF" d="M168.217,49.833h8.487v-6.41h4.327v6.41h8.488V17.875h-21.303
				V49.833z M183.112,21.038h4.242v6.408h-4.242V21.038z M183.112,31.69h4.242v6.409h-4.242V31.69z M176.704,21.038h4.327v6.408
				h-4.327V21.038z M176.704,31.69h4.327v6.409h-4.327V31.69z M170.377,21.038h4.246v6.408h-4.246V21.038z M170.377,31.69h4.246
				v6.409h-4.246V31.69z M191.651,29.238v20.595h9.233V29.238H191.651z"/>
		</g>
	</g>
</g>
</svg>
