<?xml version="1.0" encoding="utf-8"?>
<!-- Generator: Adobe Illustrator 16.0.0, SVG Export Plug-In . SVG Version: 6.00 Build 0)  -->
<!DOCTYPE svg PUBLIC "-//W3C//DTD SVG 1.1//EN" "http://www.w3.org/Graphics/SVG/1.1/DTD/svg11.dtd">
<svg version="1.1" id="Layer_1" xmlns="http://www.w3.org/2000/svg" xmlns:xlink="http://www.w3.org/1999/xlink" x="0px" y="0px"
	 width="68.491px" height="67.2px" viewBox="0 0 68.491 67.2" enable-background="new 0 0 68.491 67.2" xml:space="preserve">
<g>
	<circle fill-rule="evenodd" clip-rule="evenodd" fill="#FFFFFF" cx="34.891" cy="33.6" r="33.6"/>
	<path fill-rule="evenodd" clip-rule="evenodd" fill="#2F3539" d="M34.892,58.781c-13.886,0-25.181-11.296-25.181-25.181
		c0-13.885,11.295-25.181,25.181-25.181c13.884,0,25.18,11.296,25.18,25.181C60.071,47.485,48.775,58.781,34.892,58.781z"/>
	<g>
		<g>
			<path fill-rule="evenodd" clip-rule="evenodd" fill="#FFFFFF" d="M62.193,44.679c-0.208-3.837-3.55-6.534-6.682-6.638
				c-1.113-0.037-2.289,0.443-3.342,1.194v-7.9L42.146,18.058L32.121,31.334v8.218c-1.209-0.914-2.485-1.512-3.342-1.512
				c-2.923,0.207-6.578,3.423-6.683,6.638c-0.313-2.801-4.177-6.638-6.684-6.638c-2.506,0-6.682,4.667-6.682,6.638
				c0,1.971,0,3.319,0,3.319s3.236-0.312,3.341,0c0-3.422,1.253-6.743,3.341-6.638c2.089,0.104,3.446,3.008,3.343,6.638
				c0,0,6.786,0,6.683,0c0-3.215,1.566-6.743,3.341-6.638c1.598,0.093,3.189,2.624,3.342,5.622v0.947h0.002
				c-0.001,0.023-0.001,0.046-0.002,0.069c0,0,1.344-0.042,2.824-0.069h3.35c0.296,0.015,0.492,0.036,0.509,0.069
				c-0.002-0.023-0.001-0.046-0.003-0.069h0.003v-1.223c0.165-2.685,1.366-5.436,3.342-5.346c2.298,0.104,3.237,3.319,3.341,6.638
				c0,0,6.788-0.104,6.684,0c0.104-3.422,0.939-6.535,3.342-6.638c2.401-0.104,3.341,3.319,3.341,6.638h3.341
				C62.193,47.998,61.985,44.576,62.193,44.679z"/>
		</g>
	</g>
</g>
</svg>
