<?xml version="1.0" encoding="utf-8"?>
<!-- Generator: Adobe Illustrator 16.0.0, SVG Export Plug-In . SVG Version: 6.00 Build 0)  -->
<!DOCTYPE svg PUBLIC "-//W3C//DTD SVG 1.1//EN" "http://www.w3.org/Graphics/SVG/1.1/DTD/svg11.dtd">
<svg version="1.1" id="Layer_1" xmlns="http://www.w3.org/2000/svg" xmlns:xlink="http://www.w3.org/1999/xlink" x="0px" y="0px"
	 width="68.476px" height="68.137px" viewBox="0 0 68.476 68.137" enable-background="new 0 0 68.476 68.137" xml:space="preserve">
<g>
	<circle fill-rule="evenodd" clip-rule="evenodd" fill="#FFFFFF" cx="35.066" cy="34.727" r="33.41"/>
	<path fill-rule="evenodd" clip-rule="evenodd" fill="#2F3539" d="M35.065,59.764c-13.806,0-25.039-11.231-25.039-25.037
		S21.26,9.69,35.065,9.69c13.807,0,25.04,11.231,25.04,25.037S48.872,59.764,35.065,59.764z"/>
	<path fill="#FFFFFF" d="M34.478,23.194c0-0.548-0.477-1.001-1.053-1.001c-0.577,0-1.056,0.453-1.056,1.001v6.515
		c0,0.547-0.476,1.003-1.052,1.003c-0.58,0-1.057-0.456-1.057-1.003v-6.515c0-0.548-0.479-1.001-1.056-1.001
		s-1.056,0.453-1.056,1.001v6.515c0,0.547-0.479,1.003-1.055,1.003c-0.578,0-1.056-0.456-1.056-1.003v-6.515
		c0-0.548-0.477-1.001-1.053-1.001c-0.58,0-1.056,0.453-1.056,1.001v10.023c0,1.268,0.856,2.414,2.108,2.833v12.201
		c0,1.094,0.957,2.004,2.11,2.004h2.111c1.152,0,2.108-0.91,2.108-2.004V36.05c1.255-0.42,2.108-1.566,2.108-2.833V23.194z
		 M47.139,23.194c0-0.548-0.479-1.001-1.056-1.001h-4.22c-2.9,0-5.275,2.255-5.275,5.01V39.73c0,0.27,0.249,0.502,0.528,0.502h3.691
		v8.019c0,1.094,0.954,2.004,2.108,2.004h2.111c1.153,0,2.111-0.91,2.111-2.004V23.194z"/>
</g>
</svg>
