<?xml version="1.0" encoding="utf-8"?>
<!-- Generator: Adobe Illustrator 16.0.0, SVG Export Plug-In . SVG Version: 6.00 Build 0)  -->
<!DOCTYPE svg PUBLIC "-//W3C//DTD SVG 1.1//EN" "http://www.w3.org/Graphics/SVG/1.1/DTD/svg11.dtd">
<svg version="1.1" id="Layer_1" xmlns="http://www.w3.org/2000/svg" xmlns:xlink="http://www.w3.org/1999/xlink" x="0px" y="0px"
	 width="292.114px" height="68.137px" viewBox="0 0 292.114 68.137" enable-background="new 0 0 292.114 68.137"
	 xml:space="preserve">
<g>
	<path fill-rule="evenodd" clip-rule="evenodd" fill="#FFFFFF" d="M70.562,38.718c-4.466,0-4.479,7.334-8.927,7.368V23.983
		c4.448,0.033,4.461,7.368,8.927,7.368c4.456,0,4.479-7.296,8.894-7.366v22.1C75.041,46.016,75.018,38.718,70.562,38.718z"/>
	<path fill-rule="evenodd" clip-rule="evenodd" fill="#FFFFFF" d="M145.76,38.718c-4.47,0-4.482,7.334-8.928,7.368V23.983
		c4.445,0.033,4.458,7.368,8.928,7.368c4.458,0,4.479-7.296,8.893-7.366v22.1C150.238,46.016,150.218,38.718,145.76,38.718z"/>
	<path fill-rule="evenodd" clip-rule="evenodd" fill="#FFFFFF" d="M220.756,38.718c-4.47,0-4.48,7.334-8.927,7.368V23.983
		c4.446,0.033,4.457,7.368,8.927,7.368c4.459,0,4.479-7.296,8.894-7.366v22.1C225.234,46.016,225.215,38.718,220.756,38.718z"/>
	<circle fill-rule="evenodd" clip-rule="evenodd" fill="#FFFFFF" cx="33.601" cy="34.537" r="33.601"/>
	<path fill-rule="evenodd" clip-rule="evenodd" fill="#2F3539" d="M33.6,59.718c-13.884,0-25.18-11.296-25.18-25.181
		c0-13.885,11.296-25.181,25.18-25.181c13.886,0,25.181,11.296,25.181,25.181C58.78,48.422,47.485,59.718,33.6,59.718z"/>
	<circle fill-rule="evenodd" clip-rule="evenodd" fill="#FFFFFF" cx="108.226" cy="34.537" r="33.6"/>
	<circle fill-rule="evenodd" clip-rule="evenodd" fill="#FFFFFF" cx="183.594" cy="34.537" r="33.6"/>
	<circle fill-rule="evenodd" clip-rule="evenodd" fill="#FFFFFF" cx="258.22" cy="34.537" r="33.6"/>
	<path fill-rule="evenodd" clip-rule="evenodd" fill="#2F3539" d="M108.226,59.718c-13.885,0-25.18-11.296-25.18-25.181
		c0-13.885,11.295-25.181,25.18-25.181c13.886,0,25.181,11.296,25.181,25.181C133.406,48.422,122.111,59.718,108.226,59.718z"/>
	<path fill-rule="evenodd" clip-rule="evenodd" fill="#2F3539" d="M183.595,59.718c-13.886,0-25.181-11.296-25.181-25.181
		c0-13.885,11.295-25.181,25.181-25.181c13.885,0,25.18,11.296,25.18,25.181C208.774,48.422,197.479,59.718,183.595,59.718z"/>
	<path fill-rule="evenodd" clip-rule="evenodd" fill="#2F3539" d="M258.221,59.718c-13.886,0-25.181-11.296-25.181-25.181
		c0-13.885,11.295-25.181,25.181-25.181c13.884,0,25.18,11.296,25.18,25.181C283.4,48.422,272.104,59.718,258.221,59.718z"/>
	<g>
		<defs>
			<circle id="SVGID_1_" cx="33.601" cy="34.537" r="33.601"/>
		</defs>
		<clipPath id="SVGID_2_">
			<use xlink:href="#SVGID_1_"  overflow="visible"/>
		</clipPath>
		<path clip-path="url(#SVGID_2_)" fill-rule="evenodd" clip-rule="evenodd" fill="#FFFFFF" d="M3.251,52.211
			c-0.261-2.423,5.21-16.485,10.466-20.953c5.627-4.78,12.298-8.514,18.84-8.383c6.54,0.132,10.465,4.248,10.465,6.287
			c0,2.487-1.439,3.994-4.186,4.191c-2.75,0.196-3.597-2.555-2.095-4.191c-1.961-1.44-3.816-0.914-5.528,0.267
			c-1.316,0.905-3.095,5.849-0.748,10.21c2.279,4.244,12.099,10.149,23.021,8.381c10.921-1.768,10.466,14.668,10.466,14.668H3.251
			C3.251,62.688,3.516,54.635,3.251,52.211z"/>
	</g>
	<g>
		<g>
			<path fill="#FFFFFF" d="M96.997,31.339c1.317,0,2.521-0.484,3.452-1.282c0.708,0.349,1.5,0.551,2.338,0.551
				c0.094,0,0.181-0.01,0.273-0.015c0.988,2.876,4.438,12.882,4.42,12.541c-0.015-0.399,0.464-8.635,0.464-8.635l0.818,8.864
				c0,0,2.188-8.268,3.498-13.254c0.989-0.461,1.815-1.219,2.363-2.164c0.981,1.18,2.448,1.93,4.091,1.93
				c2.949,0,5.339-2.417,5.339-5.395c0-2.979-2.39-5.396-5.339-5.396c-0.224,0-0.44,0.019-0.658,0.047
				c-0.81-1.239-2.196-2.058-3.776-2.058c-0.563,0-1.101,0.108-1.596,0.298c-0.98-1.188-2.454-1.943-4.104-1.943
				c-1.451,0-2.765,0.584-3.727,1.533c-0.813-0.505-1.765-0.802-2.791-0.802c-2.611,0-4.78,1.896-5.245,4.399
				c-2.862,0.096-5.156,2.465-5.156,5.386C91.661,28.924,94.051,31.339,96.997,31.339z M124.757,56.79
				c-5.663-4.664-8.891-9.022-8.891-9.022l-1.784,1.097l-3.573-4.727c-0.598,0.233-1.247,0.368-1.926,0.368
				c-0.696,0-1.357-0.138-1.967-0.381l-3.376,4.618l-1.349-1.646c0,0-3.85,4.439-10.196,9.753c-2.987,2.503-0.127,3.475-3.208,4.206
				l37.745,1.018C126.232,62.073,128.591,59.948,124.757,56.79z"/>
		</g>
	</g>
	<path fill-rule="evenodd" clip-rule="evenodd" fill="#FFFFFF" d="M156.624,23.906l9.213,4.593l9.213-9.187v16.079l11.515-20.672
		v22.97l6.909-11.484l9.212,9.187l13.818,2.297l-2.303,4.594l-13.818-2.297l-6.909-6.891l-11.516,22.97v-22.97l-11.515,13.782
		V28.499l-4.606,4.594l-9.213-4.594V23.906z"/>
	<g>
		<g>
			<path fill-rule="evenodd" clip-rule="evenodd" fill="#FFFFFF" d="M285.522,45.616c-0.208-3.837-3.55-6.534-6.682-6.638
				c-1.113-0.037-2.289,0.443-3.342,1.194v-7.9l-10.024-13.276L255.45,32.271v8.218c-1.209-0.914-2.485-1.512-3.342-1.512
				c-2.923,0.207-6.578,3.423-6.683,6.638c-0.313-2.801-4.177-6.638-6.684-6.638c-2.506,0-6.682,4.667-6.682,6.638
				c0,1.971,0,3.319,0,3.319s3.236-0.312,3.341,0c0-3.422,1.253-6.743,3.341-6.638c2.089,0.104,3.446,3.008,3.343,6.638
				c0,0,6.786,0,6.683,0c0-3.215,1.566-6.743,3.341-6.638c1.598,0.093,3.189,2.624,3.342,5.622v0.947h0.002
				c-0.001,0.023-0.001,0.046-0.002,0.069c0,0,1.344-0.042,2.824-0.069h3.35c0.296,0.015,0.492,0.036,0.509,0.069
				c-0.002-0.023-0.001-0.046-0.003-0.069h0.003v-1.223c0.165-2.685,1.366-5.436,3.342-5.346c2.298,0.104,3.237,3.319,3.341,6.638
				c0,0,6.788-0.104,6.684,0c0.104-3.422,0.939-6.535,3.342-6.638c2.401-0.104,3.341,3.319,3.341,6.638h3.341
				C285.522,48.935,285.314,45.513,285.522,45.616z"/>
		</g>
	</g>
</g>
</svg>
