<?xml version="1.0" encoding="utf-8"?>
<!-- Generator: Adobe Illustrator 16.0.0, SVG Export Plug-In . SVG Version: 6.00 Build 0)  -->
<!DOCTYPE svg PUBLIC "-//W3C//DTD SVG 1.1//EN" "http://www.w3.org/Graphics/SVG/1.1/DTD/svg11.dtd">
<svg version="1.1" id="Layer_1" xmlns="http://www.w3.org/2000/svg" xmlns:xlink="http://www.w3.org/1999/xlink" x="0px" y="0px"
	 width="281.225px" height="183.254px" viewBox="0 0 281.225 183.254" enable-background="new 0 0 281.225 183.254"
	 xml:space="preserve">
<g>
	<g>
		<path fill="#E03217" d="M281.225,172.476c0,5.952-4.947,10.778-11.045,10.778H11.043C4.945,183.254,0,178.428,0,172.476V13.922
			C0,7.969,4.945,3.144,11.043,3.144H270.18c6.098,0,11.045,4.826,11.045,10.778V172.476z"/>
		<path fill="#E74928" d="M281.225,169.333c0,5.953-4.947,10.779-11.045,10.779H11.043C4.945,180.113,0,175.287,0,169.333V10.779
			C0,4.826,4.945,0,11.043,0H270.18c6.098,0,11.045,4.826,11.045,10.779V169.333z"/>
		<rect y="54.575" fill="#EA5B30" width="281.225" height="69.381"/>
	</g>
	<g>
		<path fill="#FFFFFF" d="M57.92,74.614h7.566v33.613H57.92v-14.26H45.212v14.26h-7.567V74.614h7.567v12.853H57.92V74.614z"/>
		<path fill="#FFFFFF" d="M95.798,108.227c-0.375-1.168-0.776-2.367-1.206-3.599c-0.431-1.23-0.86-2.457-1.287-3.677H80.178
			c-0.424,1.226-0.85,2.456-1.276,3.687c-0.427,1.232-0.824,2.429-1.191,3.589h-7.858c1.265-3.622,2.464-6.968,3.6-10.04
			s2.246-5.967,3.333-8.683c1.086-2.716,2.157-5.294,3.211-7.736c1.054-2.441,2.149-4.827,3.284-7.154h7.173
			c1.104,2.328,2.193,4.713,3.265,7.154c1.072,2.442,2.152,5.02,3.241,7.736c1.088,2.715,2.201,5.61,3.337,8.683
			s2.339,6.418,3.606,10.04H95.798z M86.708,82.229c-0.169,0.488-0.416,1.153-0.741,1.993c-0.325,0.84-0.695,1.812-1.11,2.912
			c-0.415,1.102-0.88,2.314-1.393,3.638c-0.513,1.324-1.035,2.712-1.564,4.165h9.613c-0.515-1.457-1.013-2.85-1.495-4.177
			s-0.94-2.543-1.374-3.645c-0.434-1.101-0.815-2.071-1.143-2.911C87.173,83.364,86.908,82.707,86.708,82.229z"/>
		<path fill="#FFFFFF" d="M133.101,79.852c-1.035,1.067-2.266,2.45-3.688,4.147c-1.423,1.698-2.896,3.549-4.416,5.554
			c-1.52,2.006-3.024,4.075-4.513,6.208c-1.489,2.135-2.815,4.172-3.979,6.112h17.13v6.354H107.2v-4.51
			c0.905-1.649,2.013-3.485,3.322-5.506c1.31-2.021,2.676-4.058,4.099-6.112c1.423-2.053,2.869-4.042,4.341-5.966
			c1.471-1.923,2.837-3.646,4.099-5.166h-15.085v-6.354h25.125V79.852z"/>
		<path fill="#FFFFFF" d="M162.781,108.227c-0.374-1.168-0.776-2.367-1.208-3.599c-0.431-1.23-0.859-2.457-1.285-3.677h-13.129
			c-0.425,1.226-0.851,2.456-1.275,3.687c-0.426,1.232-0.824,2.429-1.192,3.589h-7.857c1.265-3.622,2.465-6.968,3.6-10.04
			c1.135-3.072,2.244-5.967,3.332-8.683c1.086-2.716,2.156-5.294,3.212-7.736c1.053-2.441,2.149-4.827,3.283-7.154h7.174
			c1.103,2.328,2.193,4.713,3.266,7.154c1.07,2.442,2.151,5.02,3.239,7.736c1.088,2.715,2.202,5.61,3.338,8.683
			s2.339,6.418,3.605,10.04H162.781z M153.688,82.229c-0.167,0.488-0.415,1.153-0.739,1.993c-0.327,0.84-0.696,1.812-1.11,2.912
			c-0.415,1.102-0.881,2.314-1.395,3.638c-0.514,1.324-1.033,2.712-1.564,4.165h9.613c-0.514-1.457-1.012-2.85-1.495-4.177
			c-0.481-1.328-0.94-2.543-1.373-3.645c-0.436-1.101-0.815-2.071-1.143-2.911C154.154,83.364,153.89,82.707,153.688,82.229z"/>
		<path fill="#FFFFFF" d="M185.047,74.226c5.045,0,8.907,0.897,11.593,2.692c2.684,1.794,4.025,4.583,4.025,8.367
			c0,2.361-0.542,4.276-1.625,5.748c-1.083,1.472-2.644,2.628-4.681,3.468c0.68,0.841,1.391,1.804,2.135,2.886
			c0.744,1.083,1.479,2.215,2.207,3.396c0.728,1.18,1.431,2.409,2.109,3.687s1.31,2.53,1.892,3.759h-8.458
			c-0.617-1.099-1.242-2.215-1.876-3.346c-0.633-1.133-1.281-2.231-1.947-3.299c-0.664-1.067-1.322-2.078-1.971-3.032
			c-0.649-0.953-1.299-1.819-1.948-2.595h-3.735v12.271h-7.566V75.099c1.649-0.323,3.354-0.55,5.118-0.679
			C182.08,74.291,183.656,74.226,185.047,74.226z M185.484,80.676c-0.551,0-1.044,0.017-1.479,0.049
			c-0.437,0.032-0.849,0.065-1.237,0.097v9.119h2.135c2.845,0,4.882-0.355,6.111-1.067c1.229-0.71,1.843-1.923,1.843-3.637
			c0-1.649-0.623-2.821-1.866-3.517C189.744,81.024,187.909,80.676,185.484,80.676z"/>
		<path fill="#FFFFFF" d="M236.995,91.396c0,2.91-0.453,5.45-1.358,7.616c-0.905,2.166-2.191,3.961-3.855,5.384
			c-1.667,1.423-3.695,2.49-6.088,3.201c-2.394,0.711-5.077,1.067-8.052,1.067c-1.358,0-2.942-0.057-4.754-0.169
			c-1.811-0.113-3.589-0.347-5.335-0.703V75.05c1.746-0.323,3.565-0.541,5.457-0.654c1.892-0.113,3.517-0.17,4.875-0.17
			c2.877,0,5.488,0.323,7.833,0.97c2.344,0.647,4.356,1.665,6.038,3.056c1.681,1.391,2.976,3.169,3.881,5.335
			C236.542,85.753,236.995,88.357,236.995,91.396z M215.119,102.067c0.355,0.033,0.769,0.057,1.237,0.072
			c0.469,0.018,1.025,0.025,1.673,0.025c3.784,0,6.588-0.954,8.416-2.862c1.826-1.907,2.74-4.543,2.74-7.906
			c0-3.524-0.872-6.192-2.618-8.003c-1.747-1.811-4.512-2.716-8.296-2.716c-0.517,0-1.051,0.009-1.6,0.024
			c-0.551,0.017-1.067,0.057-1.553,0.122V102.067z"/>
	</g>
	<g>
		<path fill="#FFFFFF" d="M76.163,31.182c0,1.599-0.251,2.991-0.755,4.176c-0.503,1.186-1.208,2.174-2.115,2.964
			c-0.908,0.791-1.99,1.383-3.247,1.778c-1.258,0.396-2.641,0.593-4.15,0.593c-0.754,0-1.545-0.04-2.372-0.121
			c-0.826-0.081-1.554-0.202-2.183-0.364v-18c0.628-0.18,1.356-0.31,2.183-0.391c0.826-0.081,1.617-0.121,2.372-0.121
			c1.509,0,2.892,0.197,4.15,0.592c1.257,0.396,2.339,0.988,3.247,1.779c0.907,0.791,1.612,1.778,2.115,2.964
			C75.912,28.217,76.163,29.601,76.163,31.182z M63.174,38.916c0.108,0.018,0.382,0.054,0.822,0.108
			c0.44,0.054,1.146,0.081,2.115,0.081c1.347,0,2.524-0.184,3.53-0.552c1.006-0.368,1.85-0.894,2.533-1.576
			c0.682-0.683,1.194-1.513,1.535-2.493c0.341-0.979,0.513-2.079,0.513-3.3s-0.171-2.318-0.513-3.288
			c-0.341-0.971-0.853-1.796-1.535-2.479c-0.684-0.683-1.527-1.208-2.533-1.576c-1.006-0.368-2.183-0.553-3.53-0.553
			c-0.97,0-1.675,0.027-2.115,0.081c-0.44,0.054-0.714,0.09-0.822,0.107V38.916z"/>
		<path fill="#FFFFFF" d="M84.382,26.277c0.917,0,1.693,0.13,2.331,0.391c0.638,0.26,1.154,0.619,1.55,1.077
			c0.395,0.458,0.683,1.002,0.862,1.63c0.179,0.629,0.27,1.312,0.27,2.048v8.785c-0.18,0.054-0.44,0.112-0.782,0.175
			s-0.737,0.13-1.186,0.202c-0.449,0.072-0.948,0.13-1.495,0.175c-0.548,0.045-1.11,0.067-1.685,0.067
			c-0.737,0-1.415-0.081-2.035-0.243c-0.62-0.161-1.159-0.417-1.617-0.768c-0.458-0.35-0.817-0.799-1.078-1.347
			c-0.26-0.548-0.39-1.217-0.39-2.008c0-0.754,0.144-1.401,0.431-1.939c0.287-0.539,0.691-0.984,1.212-1.334
			c0.521-0.35,1.141-0.606,1.859-0.768c0.718-0.162,1.5-0.242,2.344-0.242c0.251,0,0.516,0.013,0.795,0.04
			c0.278,0.027,0.548,0.063,0.808,0.108s0.485,0.09,0.673,0.135c0.189,0.045,0.319,0.085,0.391,0.121V31.72
			c0-0.484-0.036-0.956-0.108-1.414c-0.072-0.458-0.229-0.872-0.472-1.24s-0.584-0.665-1.024-0.889
			c-0.44-0.225-1.02-0.337-1.738-0.337c-1.024,0-1.788,0.072-2.291,0.216c-0.503,0.144-0.872,0.26-1.105,0.35l-0.242-1.536
			c0.305-0.144,0.776-0.278,1.415-0.404C82.715,26.341,83.483,26.277,84.382,26.277z M84.543,39.266c0.683,0,1.28-0.022,1.792-0.067
			c0.512-0.045,0.947-0.104,1.307-0.175v-4.904c-0.198-0.09-0.512-0.184-0.943-0.283c-0.432-0.099-1.024-0.148-1.779-0.148
			c-0.432,0-0.881,0.031-1.348,0.094c-0.467,0.063-0.898,0.198-1.293,0.404c-0.396,0.207-0.718,0.49-0.97,0.849
			c-0.252,0.36-0.377,0.835-0.377,1.428c0,0.522,0.085,0.962,0.256,1.321c0.17,0.359,0.413,0.647,0.727,0.862
			c0.314,0.216,0.691,0.373,1.132,0.472C83.488,39.216,83.986,39.266,84.543,39.266z"/>
		<path fill="#FFFFFF" d="M95.51,26.601h5.551v1.482H95.51v7.41c0,0.791,0.067,1.433,0.202,1.927
			c0.135,0.495,0.328,0.875,0.58,1.146c0.251,0.269,0.556,0.449,0.916,0.539c0.359,0.09,0.754,0.135,1.186,0.135
			c0.737,0,1.33-0.085,1.779-0.256c0.449-0.17,0.799-0.327,1.051-0.471l0.431,1.455c-0.251,0.161-0.691,0.346-1.32,0.552
			c-0.629,0.207-1.312,0.31-2.048,0.31c-0.862,0-1.586-0.112-2.169-0.336c-0.584-0.225-1.051-0.566-1.401-1.024
			c-0.35-0.458-0.597-1.028-0.741-1.711c-0.144-0.682-0.216-1.491-0.216-2.425V22.505l1.751-0.324V26.601z"/>
		<path fill="#FFFFFF" d="M108.526,26.277c0.917,0,1.693,0.13,2.331,0.391c0.638,0.26,1.154,0.619,1.55,1.077
			c0.395,0.458,0.683,1.002,0.862,1.63c0.179,0.629,0.27,1.312,0.27,2.048v8.785c-0.18,0.054-0.44,0.112-0.782,0.175
			s-0.737,0.13-1.186,0.202c-0.449,0.072-0.948,0.13-1.496,0.175c-0.548,0.045-1.109,0.067-1.685,0.067
			c-0.736,0-1.414-0.081-2.034-0.243c-0.62-0.161-1.159-0.417-1.617-0.768c-0.458-0.35-0.817-0.799-1.078-1.347
			c-0.26-0.548-0.391-1.217-0.391-2.008c0-0.754,0.144-1.401,0.432-1.939c0.287-0.539,0.691-0.984,1.212-1.334
			c0.521-0.35,1.141-0.606,1.859-0.768c0.718-0.162,1.5-0.242,2.344-0.242c0.251,0,0.516,0.013,0.795,0.04
			c0.278,0.027,0.547,0.063,0.808,0.108c0.26,0.045,0.484,0.09,0.673,0.135c0.189,0.045,0.319,0.085,0.391,0.121V31.72
			c0-0.484-0.037-0.956-0.108-1.414c-0.072-0.458-0.229-0.872-0.472-1.24c-0.242-0.368-0.583-0.665-1.023-0.889
			c-0.44-0.225-1.02-0.337-1.738-0.337c-1.024,0-1.788,0.072-2.291,0.216c-0.503,0.144-0.872,0.26-1.105,0.35l-0.243-1.536
			c0.305-0.144,0.777-0.278,1.415-0.404C106.859,26.341,107.627,26.277,108.526,26.277z M108.687,39.266
			c0.683,0,1.281-0.022,1.792-0.067s0.947-0.104,1.307-0.175v-4.904c-0.198-0.09-0.512-0.184-0.943-0.283
			c-0.431-0.099-1.024-0.148-1.778-0.148c-0.432,0-0.881,0.031-1.348,0.094c-0.467,0.063-0.898,0.198-1.293,0.404
			c-0.396,0.207-0.718,0.49-0.97,0.849c-0.252,0.36-0.377,0.835-0.377,1.428c0,0.522,0.085,0.962,0.256,1.321
			c0.17,0.359,0.413,0.647,0.728,0.862c0.314,0.216,0.691,0.373,1.132,0.472C107.632,39.216,108.13,39.266,108.687,39.266z"/>
		<path fill="#FFFFFF" d="M128.277,39.347c1.455,0,2.587-0.265,3.395-0.796c0.809-0.532,1.213-1.392,1.213-2.58
			c0-0.684-0.131-1.256-0.391-1.715c-0.261-0.459-0.606-0.847-1.038-1.162s-0.926-0.584-1.482-0.807
			c-0.557-0.224-1.141-0.46-1.751-0.71c-0.772-0.303-1.464-0.615-2.075-0.937c-0.611-0.321-1.131-0.684-1.563-1.088
			c-0.431-0.404-0.759-0.867-0.983-1.388c-0.225-0.521-0.336-1.131-0.336-1.833c0-1.599,0.529-2.811,1.589-3.637
			c1.06-0.826,2.533-1.24,4.419-1.24c0.502,0,0.997,0.036,1.482,0.108c0.485,0.072,0.938,0.166,1.361,0.283
			c0.422,0.117,0.809,0.247,1.159,0.391c0.35,0.144,0.642,0.296,0.875,0.458l-0.646,1.535c-0.522-0.359-1.155-0.646-1.9-0.862
			c-0.746-0.215-1.549-0.323-2.412-0.323c-0.592,0-1.136,0.058-1.63,0.175c-0.494,0.117-0.921,0.306-1.28,0.565
			c-0.359,0.261-0.643,0.589-0.849,0.983c-0.207,0.396-0.31,0.872-0.31,1.429c0,0.575,0.108,1.06,0.323,1.455
			c0.216,0.396,0.516,0.737,0.903,1.023c0.386,0.288,0.839,0.548,1.361,0.782c0.521,0.234,1.087,0.477,1.698,0.728
			c0.737,0.306,1.432,0.611,2.088,0.916c0.655,0.306,1.226,0.665,1.711,1.078c0.485,0.413,0.871,0.916,1.159,1.509
			c0.287,0.593,0.432,1.32,0.432,2.183c0,1.688-0.589,2.956-1.765,3.799c-1.177,0.844-2.771,1.267-4.784,1.267
			c-0.718,0-1.374-0.045-1.967-0.135c-0.593-0.09-1.123-0.202-1.59-0.337s-0.862-0.273-1.186-0.418
			c-0.323-0.144-0.575-0.269-0.754-0.377l0.593-1.59c0.18,0.108,0.422,0.233,0.728,0.377c0.305,0.144,0.664,0.284,1.078,0.418
			c0.413,0.135,0.88,0.248,1.401,0.337C127.074,39.302,127.648,39.347,128.277,39.347z"/>
		<path fill="#FFFFFF" d="M148.784,40.047c-0.521,0.145-1.222,0.306-2.102,0.485c-0.88,0.18-1.958,0.27-3.233,0.27
			c-1.043,0-1.914-0.153-2.614-0.458c-0.701-0.305-1.267-0.737-1.698-1.293s-0.741-1.23-0.93-2.021s-0.283-1.662-0.283-2.614v-7.814
			h1.751v7.249c0,0.988,0.072,1.824,0.216,2.506c0.144,0.683,0.377,1.235,0.701,1.657c0.323,0.422,0.741,0.728,1.252,0.916
			c0.512,0.189,1.136,0.284,1.873,0.284c0.826,0,1.545-0.045,2.156-0.135c0.61-0.09,0.997-0.171,1.159-0.243V26.601h1.751V40.047z"
			/>
		<path fill="#FFFFFF" d="M155.169,45.518h-1.751V27.086c0.521-0.179,1.186-0.35,1.994-0.512c0.809-0.162,1.833-0.243,3.072-0.243
			c1.023,0,1.953,0.167,2.789,0.499c0.836,0.332,1.554,0.813,2.155,1.441c0.602,0.629,1.069,1.392,1.401,2.291
			c0.333,0.898,0.499,1.914,0.499,3.045c0,1.06-0.141,2.035-0.418,2.924c-0.279,0.889-0.688,1.653-1.226,2.29
			c-0.54,0.638-1.2,1.137-1.981,1.496c-0.781,0.359-1.675,0.539-2.682,0.539c-0.916,0-1.711-0.13-2.385-0.391
			c-0.673-0.26-1.163-0.507-1.469-0.741V45.518z M155.169,38.026c0.162,0.125,0.365,0.261,0.607,0.404
			c0.242,0.144,0.525,0.278,0.849,0.404c0.323,0.126,0.673,0.229,1.051,0.31c0.378,0.081,0.772,0.122,1.186,0.122
			c0.862,0,1.585-0.148,2.17-0.445c0.583-0.296,1.055-0.7,1.414-1.212c0.358-0.512,0.62-1.113,0.781-1.805
			c0.162-0.691,0.242-1.423,0.242-2.196c0-1.832-0.458-3.238-1.374-4.217c-0.916-0.979-2.129-1.469-3.638-1.469
			c-0.861,0-1.559,0.041-2.088,0.122c-0.531,0.081-0.93,0.166-1.2,0.256V38.026z"/>
		<path fill="#FFFFFF" d="M170.878,45.518h-1.751V27.086c0.521-0.179,1.186-0.35,1.994-0.512c0.809-0.162,1.833-0.243,3.072-0.243
			c1.023,0,1.953,0.167,2.789,0.499c0.836,0.332,1.554,0.813,2.155,1.441c0.602,0.629,1.069,1.392,1.401,2.291
			c0.333,0.898,0.499,1.914,0.499,3.045c0,1.06-0.141,2.035-0.418,2.924c-0.279,0.889-0.688,1.653-1.226,2.29
			c-0.54,0.638-1.2,1.137-1.981,1.496c-0.781,0.359-1.675,0.539-2.682,0.539c-0.916,0-1.711-0.13-2.385-0.391
			c-0.673-0.26-1.163-0.507-1.469-0.741V45.518z M170.878,38.026c0.162,0.125,0.365,0.261,0.607,0.404
			c0.242,0.144,0.525,0.278,0.849,0.404c0.323,0.126,0.674,0.229,1.051,0.31c0.378,0.081,0.772,0.122,1.186,0.122
			c0.862,0,1.585-0.148,2.17-0.445c0.583-0.296,1.055-0.7,1.414-1.212c0.358-0.512,0.62-1.113,0.781-1.805
			c0.162-0.691,0.242-1.423,0.242-2.196c0-1.832-0.458-3.238-1.374-4.217c-0.916-0.979-2.129-1.469-3.638-1.469
			c-0.861,0-1.559,0.041-2.088,0.122c-0.53,0.081-0.93,0.166-1.2,0.256V38.026z"/>
		<path fill="#FFFFFF" d="M188.368,40.775c-0.593-0.018-1.109-0.095-1.549-0.229c-0.441-0.135-0.809-0.341-1.105-0.62
			c-0.296-0.278-0.521-0.638-0.674-1.078c-0.153-0.44-0.229-0.993-0.229-1.657V19.945l1.752-0.324v17.516
			c0,0.431,0.041,0.777,0.122,1.037c0.08,0.261,0.202,0.467,0.363,0.62c0.162,0.153,0.373,0.265,0.633,0.337
			c0.261,0.072,0.57,0.135,0.93,0.188L188.368,40.775z"/>
		<path fill="#FFFFFF" d="M193.865,22.397c0,0.413-0.126,0.741-0.378,0.983c-0.251,0.243-0.557,0.364-0.916,0.364
			s-0.664-0.121-0.916-0.364s-0.377-0.57-0.377-0.983c0-0.414,0.125-0.742,0.377-0.984c0.252-0.242,0.557-0.363,0.916-0.363
			s0.665,0.122,0.916,0.363C193.739,21.656,193.865,21.984,193.865,22.397z M193.46,40.532h-1.752V26.601h1.752V40.532z"/>
		<path fill="#FFFFFF" d="M197.259,33.553c0-1.221,0.175-2.286,0.525-3.193c0.35-0.907,0.808-1.666,1.375-2.277
			c0.565-0.611,1.212-1.064,1.939-1.361s1.478-0.445,2.25-0.445c1.707,0,3.067,0.557,4.083,1.671
			c1.015,1.114,1.522,2.83,1.522,5.147c0,0.144-0.005,0.288-0.014,0.431s-0.023,0.278-0.04,0.404h-9.783
			c0.055,1.707,0.477,3.018,1.268,3.934c0.79,0.916,2.048,1.374,3.771,1.374c0.953,0,1.707-0.09,2.265-0.269
			c0.557-0.18,0.96-0.333,1.213-0.458l0.323,1.509c-0.252,0.144-0.724,0.314-1.414,0.512c-0.692,0.198-1.506,0.296-2.439,0.296
			c-1.222,0-2.264-0.18-3.126-0.539c-0.862-0.359-1.572-0.862-2.129-1.509c-0.557-0.646-0.961-1.415-1.213-2.304
			C197.385,35.587,197.259,34.613,197.259,33.553z M207.149,32.448c-0.036-1.455-0.378-2.587-1.023-3.396
			c-0.647-0.808-1.563-1.212-2.749-1.212c-0.629,0-1.19,0.126-1.685,0.377c-0.494,0.252-0.926,0.589-1.293,1.011
			c-0.369,0.422-0.656,0.912-0.863,1.469c-0.206,0.557-0.327,1.141-0.363,1.751H207.149z"/>
		<path fill="#FFFFFF" d="M217.605,26.331c0.574,0,1.118,0.045,1.629,0.135c0.513,0.09,0.867,0.18,1.065,0.27l-0.351,1.509
			c-0.145-0.072-0.437-0.148-0.876-0.229c-0.44-0.081-1.02-0.121-1.738-0.121c-0.755,0-1.36,0.054-1.818,0.162
			c-0.458,0.107-0.76,0.198-0.903,0.269v12.207h-1.751V27.248c0.449-0.197,1.068-0.4,1.858-0.606
			C215.511,26.435,216.472,26.331,217.605,26.331z"/>
	</g>
	<g>
		<path fill="#FFFFFF" d="M70.046,162.556c-0.611-0.936-1.298-1.862-2.062-2.78c-0.764-0.916-1.567-1.78-2.412-2.589
			c-0.844-0.81-1.702-1.55-2.573-2.213c-0.872-0.666-1.711-1.226-2.52-1.674v9.256h-1.832v-18.674h1.832v8.689
			c0.683-0.609,1.442-1.314,2.279-2.112c0.835-0.797,1.663-1.6,2.48-2.406c0.818-0.808,1.587-1.58,2.306-2.315
			c0.719-0.735,1.294-1.354,1.726-1.855h2.209c-0.521,0.557-1.151,1.216-1.887,1.978c-0.738,0.762-1.52,1.547-2.347,2.354
			c-0.827,0.808-1.65,1.602-2.467,2.381c-0.818,0.781-1.551,1.466-2.198,2.058c0.521,0.324,1.083,0.725,1.685,1.201
			c0.602,0.477,1.212,0.999,1.832,1.564c0.62,0.568,1.23,1.162,1.833,1.782c0.602,0.62,1.168,1.247,1.698,1.876
			c0.53,0.628,1.006,1.239,1.428,1.834c0.422,0.594,0.768,1.142,1.038,1.646H70.046z"/>
		<path fill="#FFFFFF" d="M73.576,155.577c0-1.221,0.175-2.287,0.525-3.194c0.351-0.905,0.809-1.664,1.374-2.275
			c0.566-0.611,1.213-1.064,1.94-1.362c0.728-0.296,1.478-0.443,2.25-0.443c1.706,0,3.067,0.557,4.082,1.671
			c1.015,1.113,1.522,2.828,1.522,5.146c0,0.146-0.005,0.289-0.014,0.433c-0.009,0.144-0.022,0.278-0.04,0.402h-9.782
			c0.054,1.708,0.476,3.021,1.266,3.937c0.791,0.916,2.048,1.373,3.773,1.373c0.952,0,1.707-0.09,2.263-0.271
			c0.557-0.178,0.961-0.33,1.213-0.457l0.323,1.508c-0.252,0.146-0.723,0.316-1.415,0.514c-0.692,0.198-1.505,0.296-2.438,0.296
			c-1.222,0-2.264-0.181-3.126-0.539c-0.862-0.359-1.572-0.862-2.128-1.508c-0.558-0.648-0.962-1.414-1.213-2.305
			C73.702,157.611,73.576,156.636,73.576,155.577z M83.466,154.471c-0.037-1.455-0.377-2.587-1.024-3.395
			c-0.646-0.809-1.563-1.214-2.749-1.214c-0.629,0-1.19,0.126-1.684,0.379c-0.494,0.252-0.925,0.587-1.293,1.01
			c-0.368,0.422-0.656,0.911-0.862,1.469c-0.207,0.557-0.328,1.142-0.364,1.751H83.466z"/>
		<path fill="#FFFFFF" d="M92.978,162.852c-0.585-1.099-1.152-2.241-1.703-3.425c-0.55-1.186-1.064-2.384-1.542-3.596
			c-0.478-1.212-0.915-2.424-1.312-3.636c-0.396-1.212-0.737-2.402-1.021-3.571h1.859c0.197,0.862,0.448,1.793,0.754,2.79
			c0.305,0.996,0.65,2.025,1.036,3.085s0.811,2.147,1.278,3.262s0.976,2.21,1.527,3.285c0.4-1.109,0.754-2.158,1.063-3.146
			c0.308-0.985,0.594-1.969,0.858-2.948c0.263-0.977,0.518-1.978,0.762-3.002c0.246-1.022,0.496-2.13,0.751-3.325h1.752
			c-0.585,2.607-1.243,5.142-1.972,7.604c-0.729,2.466-1.526,4.718-2.39,6.758c-0.342,0.808-0.692,1.504-1.054,2.089
			c-0.361,0.583-0.762,1.064-1.204,1.44c-0.442,0.379-0.957,0.657-1.542,0.836c-0.586,0.181-1.276,0.27-2.069,0.27
			c-0.452,0-0.862-0.055-1.232-0.161c-0.37-0.108-0.6-0.189-0.689-0.243l0.35-1.454c0.072,0.053,0.274,0.129,0.608,0.229
			c0.333,0.099,0.68,0.148,1.04,0.148c0.504,0,0.959-0.055,1.364-0.161c0.405-0.108,0.77-0.294,1.094-0.553
			c0.324-0.261,0.617-0.599,0.878-1.012S92.735,163.481,92.978,162.852z"/>
		<path fill="#FFFFFF" d="M111.373,148.625c0.161,0.896,0.372,1.854,0.63,2.868c0.26,1.016,0.546,2.048,0.859,3.099
			s0.646,2.088,0.996,3.113c0.352,1.024,0.708,1.986,1.068,2.885c0.307-0.683,0.631-1.512,0.974-2.491
			c0.343-0.977,0.685-2.011,1.027-3.096c0.343-1.086,0.663-2.183,0.959-3.288c0.298-1.107,0.545-2.137,0.744-3.09h1.726
			c-0.649,2.735-1.356,5.235-2.123,7.496c-0.767,2.263-1.609,4.408-2.529,6.436h-1.624c-0.272-0.635-0.558-1.342-0.856-2.123
			c-0.299-0.781-0.607-1.614-0.923-2.505c-0.317-0.888-0.624-1.82-0.919-2.798c-0.296-0.979-0.579-1.979-0.848-3.002
			c-0.269,1.024-0.55,2.027-0.845,3.009c-0.295,0.979-0.601,1.915-0.916,2.802c-0.315,0.891-0.621,1.726-0.918,2.507
			c-0.297,0.781-0.58,1.484-0.848,2.11h-1.684c-0.921-2.029-1.763-4.175-2.526-6.438c-0.764-2.266-1.467-4.763-2.112-7.494h1.86
			c0.198,0.951,0.446,1.98,0.744,3.084c0.298,1.104,0.618,2.201,0.961,3.287s0.69,2.115,1.041,3.085
			c0.352,0.971,0.68,1.798,0.987,2.48c0.344-0.894,0.688-1.854,1.035-2.878c0.345-1.027,0.669-2.061,0.974-3.104
			c0.304-1.042,0.59-2.071,0.857-3.087c0.268-1.017,0.508-1.972,0.722-2.868H111.373z"/>
		<path fill="#FFFFFF" d="M135.149,155.603c0,1.097-0.158,2.093-0.472,2.991c-0.315,0.898-0.755,1.662-1.321,2.291
			c-0.565,0.629-1.235,1.118-2.007,1.469s-1.626,0.524-2.56,0.524c-0.935,0-1.788-0.174-2.56-0.524
			c-0.773-0.351-1.442-0.84-2.008-1.469c-0.565-0.629-1.006-1.393-1.32-2.291c-0.315-0.898-0.471-1.895-0.471-2.991
			c0-1.095,0.156-2.091,0.471-2.99c0.314-0.898,0.755-1.666,1.32-2.304c0.566-0.638,1.235-1.132,2.008-1.481
			c0.772-0.351,1.625-0.526,2.56-0.526c0.934,0,1.788,0.176,2.56,0.526c0.772,0.35,1.442,0.844,2.007,1.481
			c0.566,0.638,1.006,1.405,1.321,2.304C134.992,153.512,135.149,154.508,135.149,155.603z M133.29,155.603
			c0-1.741-0.404-3.129-1.212-4.162c-0.808-1.034-1.904-1.55-3.288-1.55s-2.479,0.516-3.288,1.55
			c-0.808,1.033-1.212,2.421-1.212,4.162c0,1.742,0.404,3.126,1.212,4.151c0.809,1.022,1.904,1.536,3.288,1.536
			s2.479-0.514,3.288-1.536C132.886,158.729,133.29,157.345,133.29,155.603z"/>
		<path fill="#FFFFFF" d="M143.691,148.355c0.574,0,1.118,0.046,1.629,0.135c0.514,0.09,0.868,0.179,1.066,0.271l-0.351,1.508
			c-0.146-0.072-0.438-0.148-0.877-0.229c-0.439-0.081-1.02-0.122-1.738-0.122c-0.754,0-1.36,0.055-1.818,0.163
			c-0.458,0.106-0.759,0.196-0.902,0.268v12.208h-1.752v-13.285c0.449-0.198,1.069-0.4,1.86-0.606
			C141.598,148.458,142.559,148.355,143.691,148.355z"/>
		<path fill="#FFFFFF" d="M160.101,162.125c-0.521,0.179-1.186,0.351-1.994,0.512s-1.833,0.241-3.072,0.241
			c-1.023,0-1.954-0.165-2.789-0.498c-0.836-0.331-1.554-0.812-2.155-1.44c-0.603-0.629-1.069-1.393-1.401-2.291
			c-0.333-0.898-0.499-1.913-0.499-3.046c0-1.06,0.14-2.035,0.418-2.923c0.278-0.89,0.688-1.657,1.226-2.304
			c0.54-0.646,1.2-1.151,1.981-1.51c0.781-0.359,1.675-0.54,2.682-0.54c0.916,0,1.71,0.131,2.385,0.392
			c0.673,0.262,1.163,0.507,1.469,0.742v-7.491l1.751-0.324V162.125z M158.35,151.158c-0.162-0.126-0.365-0.261-0.607-0.405
			c-0.242-0.144-0.525-0.278-0.849-0.404c-0.323-0.124-0.673-0.229-1.051-0.309c-0.378-0.081-0.772-0.122-1.186-0.122
			c-0.863,0-1.585,0.152-2.17,0.459c-0.584,0.305-1.055,0.714-1.414,1.225c-0.36,0.514-0.62,1.114-0.782,1.807
			c-0.161,0.691-0.242,1.425-0.242,2.195c0,1.834,0.459,3.239,1.375,4.219c0.916,0.979,2.129,1.469,3.638,1.469
			c0.861,0,1.558-0.042,2.088-0.122c0.529-0.081,0.93-0.165,1.2-0.257V151.158z"/>
		<path fill="#FFFFFF" d="M167.592,161.316c1.005,0,1.836-0.165,2.492-0.498s0.983-0.895,0.983-1.684
			c0-0.379-0.059-0.701-0.175-0.971s-0.311-0.512-0.579-0.727c-0.27-0.216-0.624-0.422-1.064-0.62s-0.983-0.431-1.63-0.701
			c-0.522-0.215-1.017-0.435-1.482-0.661c-0.467-0.224-0.881-0.485-1.239-0.781c-0.36-0.296-0.647-0.65-0.863-1.063
			c-0.215-0.413-0.323-0.916-0.323-1.51c0-1.132,0.427-2.048,1.281-2.748c0.853-0.701,2.024-1.051,3.516-1.051
			c0.952,0,1.738,0.08,2.357,0.243c0.62,0.161,1.056,0.305,1.308,0.431l-0.404,1.563c-0.216-0.106-0.579-0.25-1.092-0.431
			c-0.512-0.181-1.262-0.27-2.249-0.27c-0.396,0-0.769,0.041-1.119,0.121c-0.35,0.081-0.66,0.207-0.93,0.379
			c-0.27,0.17-0.485,0.387-0.646,0.648c-0.162,0.261-0.242,0.578-0.242,0.957s0.071,0.703,0.215,0.973s0.355,0.509,0.634,0.716
			s0.62,0.4,1.023,0.579c0.404,0.178,0.867,0.374,1.388,0.59c0.539,0.215,1.056,0.433,1.55,0.656
			c0.494,0.225,0.93,0.492,1.308,0.808c0.376,0.313,0.682,0.691,0.916,1.132c0.232,0.439,0.35,0.991,0.35,1.657
			c0,1.258-0.472,2.209-1.415,2.857c-0.943,0.646-2.232,0.968-3.866,0.968c-1.222,0-2.156-0.103-2.803-0.309
			c-0.646-0.207-1.078-0.363-1.293-0.473l0.458-1.59c0.053,0.036,0.171,0.096,0.351,0.176c0.179,0.08,0.422,0.172,0.728,0.27
			c0.305,0.099,0.669,0.186,1.091,0.257C166.545,161.282,167.036,161.316,167.592,161.316z"/>
		<path fill="#FFFFFF" d="M193.341,146.173c0.866,2.887,1.731,5.504,2.594,7.852c0.863,2.346,1.713,4.5,2.551,6.456
			c0.617-2.119,1.24-4.617,1.867-7.489c0.628-2.872,1.231-5.909,1.812-9.109h1.806c-0.332,1.925-0.661,3.727-0.99,5.406
			c-0.328,1.682-0.673,3.281-1.036,4.798c-0.362,1.517-0.743,2.972-1.141,4.362c-0.398,1.393-0.832,2.761-1.302,4.107h-1.972
			c-0.423-1.026-0.846-2.054-1.268-3.076c-0.422-1.024-0.841-2.08-1.256-3.166c-0.416-1.086-0.832-2.222-1.247-3.405
			c-0.416-1.186-0.833-2.443-1.254-3.772c-0.428,1.334-0.851,2.596-1.271,3.781c-0.418,1.188-0.835,2.324-1.247,3.412
			c-0.414,1.088-0.831,2.141-1.254,3.166c-0.422,1.024-0.853,2.045-1.294,3.061h-1.932c-0.486-1.349-0.932-2.72-1.338-4.112
			c-0.405-1.392-0.784-2.848-1.136-4.366c-0.353-1.517-0.687-3.116-1.004-4.796s-0.639-3.479-0.965-5.399h1.887
			c0.278,1.579,0.559,3.128,0.843,4.646c0.284,1.52,0.584,2.988,0.9,4.406c0.316,1.419,0.64,2.761,0.969,4.027
			c0.328,1.269,0.659,2.441,0.992,3.519c0.767-1.993,1.593-4.151,2.478-6.478c0.885-2.323,1.757-4.935,2.618-7.83H193.341z"/>
		<path fill="#FFFFFF" d="M209.386,144.421c0,0.413-0.126,0.74-0.377,0.983c-0.251,0.241-0.557,0.363-0.916,0.363
			c-0.36,0-0.665-0.122-0.916-0.363c-0.253-0.243-0.378-0.57-0.378-0.983s0.125-0.742,0.378-0.983
			c0.251-0.244,0.556-0.365,0.916-0.365c0.359,0,0.665,0.121,0.916,0.365C209.26,143.679,209.386,144.008,209.386,144.421z
			 M208.982,162.556h-1.751v-13.932h1.751V162.556z"/>
		<path fill="#FFFFFF" d="M222.266,150.052c-0.421,0.461-0.963,1.107-1.625,1.935c-0.664,0.826-1.371,1.749-2.124,2.765
			c-0.753,1.017-1.498,2.078-2.236,3.184c-0.739,1.105-1.388,2.152-1.946,3.14h8.174v1.481h-10.186v-1.266
			c0.465-0.884,1.04-1.856,1.728-2.918c0.688-1.064,1.402-2.108,2.146-3.138c0.742-1.029,1.467-1.995,2.174-2.898
			c0.706-0.902,1.295-1.646,1.769-2.229h-7.41v-1.482h9.538V150.052z"/>
		<path fill="#FFFFFF" d="M230.108,148.301c0.916,0,1.692,0.13,2.331,0.392c0.638,0.259,1.154,0.62,1.549,1.076
			c0.396,0.46,0.683,1.001,0.863,1.63c0.178,0.629,0.269,1.313,0.269,2.05v8.783c-0.18,0.055-0.44,0.113-0.781,0.177
			c-0.342,0.063-0.736,0.13-1.186,0.202c-0.449,0.069-0.948,0.128-1.496,0.174s-1.108,0.067-1.684,0.067
			c-0.737,0-1.415-0.08-2.035-0.241c-0.62-0.163-1.158-0.418-1.616-0.768c-0.458-0.351-0.818-0.801-1.078-1.35
			c-0.26-0.546-0.391-1.216-0.391-2.006c0-0.755,0.144-1.401,0.431-1.94c0.287-0.54,0.692-0.983,1.213-1.334
			c0.521-0.351,1.141-0.607,1.859-0.769c0.718-0.16,1.5-0.243,2.345-0.243c0.251,0,0.517,0.015,0.795,0.041s0.548,0.063,0.809,0.109
			c0.26,0.043,0.485,0.089,0.673,0.132c0.188,0.046,0.319,0.088,0.391,0.122v-0.861c0-0.485-0.035-0.957-0.107-1.414
			c-0.071-0.459-0.229-0.873-0.471-1.24c-0.243-0.368-0.585-0.664-1.025-0.89c-0.439-0.225-1.02-0.338-1.737-0.338
			c-1.023,0-1.788,0.074-2.291,0.218c-0.502,0.144-0.871,0.259-1.104,0.351l-0.242-1.536c0.305-0.144,0.776-0.278,1.414-0.405
			C228.441,148.364,229.209,148.301,230.108,148.301z M230.27,161.291c0.682,0,1.279-0.024,1.791-0.067
			c0.513-0.046,0.948-0.104,1.307-0.177v-4.904c-0.197-0.089-0.511-0.183-0.943-0.282c-0.431-0.099-1.023-0.148-1.778-0.148
			c-0.431,0-0.88,0.03-1.347,0.094c-0.468,0.063-0.898,0.198-1.294,0.404c-0.395,0.207-0.719,0.49-0.97,0.849
			c-0.252,0.359-0.377,0.836-0.377,1.43c0,0.52,0.085,0.959,0.256,1.318c0.171,0.361,0.413,0.648,0.728,0.864
			c0.313,0.215,0.691,0.372,1.132,0.472C229.213,161.24,229.712,161.291,230.27,161.291z"/>
		<path fill="#FFFFFF" d="M244.336,148.355c0.574,0,1.118,0.046,1.629,0.135c0.513,0.09,0.867,0.179,1.065,0.271l-0.351,1.508
			c-0.145-0.072-0.436-0.148-0.875-0.229c-0.441-0.081-1.021-0.122-1.739-0.122c-0.755,0-1.36,0.055-1.818,0.163
			c-0.458,0.106-0.76,0.196-0.903,0.268v12.208h-1.751v-13.285c0.449-0.198,1.068-0.4,1.858-0.606
			C242.243,148.458,243.204,148.355,244.336,148.355z"/>
		<path fill="#FFFFFF" d="M260.747,162.125c-0.521,0.179-1.186,0.351-1.994,0.512c-0.808,0.161-1.833,0.241-3.072,0.241
			c-1.023,0-1.953-0.165-2.789-0.498c-0.836-0.331-1.554-0.812-2.155-1.44c-0.603-0.629-1.069-1.393-1.401-2.291
			s-0.499-1.913-0.499-3.046c0-1.06,0.14-2.035,0.418-2.923c0.278-0.89,0.688-1.657,1.226-2.304c0.54-0.646,1.2-1.151,1.981-1.51
			c0.781-0.359,1.675-0.54,2.682-0.54c0.916,0,1.71,0.131,2.385,0.392c0.673,0.262,1.163,0.507,1.469,0.742v-7.491l1.751-0.324
			V162.125z M258.996,151.158c-0.162-0.126-0.364-0.261-0.607-0.405c-0.242-0.144-0.525-0.278-0.849-0.404
			c-0.323-0.124-0.673-0.229-1.051-0.309c-0.378-0.081-0.772-0.122-1.186-0.122c-0.863,0-1.585,0.152-2.17,0.459
			c-0.584,0.305-1.055,0.714-1.414,1.225c-0.359,0.514-0.62,1.114-0.782,1.807c-0.161,0.691-0.242,1.425-0.242,2.195
			c0,1.834,0.459,3.239,1.375,4.219c0.916,0.979,2.129,1.469,3.638,1.469c0.861,0,1.558-0.042,2.088-0.122
			c0.529-0.081,0.93-0.165,1.2-0.257V151.158z"/>
	</g>
	<path fill-rule="evenodd" clip-rule="evenodd" fill="#FFFFFF" d="M31.07,44.381c-8.037,0-14.551-1.616-14.551-3.605v-3.603
		c0-0.313,0.21-0.614,0.513-0.903c0.337,0.324,0.883,0.621,1.539,0.903h0.051v0.023c2.521,1.058,7.117,1.779,12.448,1.779
		c5.33,0,9.926-0.721,12.447-1.779v-0.023h0.052c0.655-0.282,1.201-0.579,1.538-0.903c0.303,0.289,0.515,0.589,0.515,0.903v3.603
		C45.622,42.765,39.105,44.381,31.07,44.381z M31.07,37.173c-8.037,0-14.551-1.613-14.551-3.603v-3.605
		c0-0.311,0.21-0.611,0.513-0.9c0.337,0.321,0.883,0.621,1.539,0.9h0.051v0.023c2.521,1.061,7.117,1.779,12.448,1.779
		c5.33,0,9.926-0.718,12.447-1.779v-0.023h0.052c0.655-0.279,1.201-0.58,1.538-0.9c0.303,0.29,0.515,0.59,0.515,0.9v3.605
		C45.622,35.56,39.105,37.173,31.07,37.173z M31.07,29.965c-8.037,0-14.551-1.611-14.551-3.603V22.76
		c0-1.99,6.514-3.605,14.551-3.605c8.035,0,14.551,1.616,14.551,3.605v3.603C45.622,28.354,39.105,29.965,31.07,29.965z"/>
	<path fill="#FFFFFF" d="M33.345,150.742c-1.044,0-3.485-2.197-3.485-3.402c0-1.206,0.846-2.178,1.891-2.178
		c1.043,0,3.484,2.195,3.484,3.398C35.235,149.765,34.39,150.742,33.345,150.742 M31.874,139.239c-4.512,0-7.986,3.838-7.986,9.321
		c0,0.685,0.07,1.34,0.173,1.979l-11.514,13.281l1.013,4.523l3.234-0.4l2.028,0.237l0.74-3.201l2.836-0.759l-0.07-2.998l3.85-1.563
		l0.986-3.799c1.546,0.53,3.117,0.81,4.61,0.81c4.578,0,8.421-2.622,8.581-8.712c-0.236-5.958-2.153-7.794-7.136-8.609
		C32.763,139.276,32.313,139.239,31.874,139.239"/>
</g>
</svg>
