<?xml version="1.0" encoding="utf-8"?>
<!-- Generator: Adobe Illustrator 16.0.0, SVG Export Plug-In . SVG Version: 6.00 Build 0)  -->
<!DOCTYPE svg PUBLIC "-//W3C//DTD SVG 1.1//EN" "http://www.w3.org/Graphics/SVG/1.1/DTD/svg11.dtd">
<svg version="1.1" id="Layer_1" xmlns="http://www.w3.org/2000/svg" xmlns:xlink="http://www.w3.org/1999/xlink" x="0px" y="0px"
	 width="293.329px" height="117.458px" viewBox="0 0 293.329 117.458" enable-background="new 0 0 293.329 117.458"
	 xml:space="preserve">
<g>
	<g>
		<path fill="#E02617" d="M293.329,107.188c0,5.671-4.598,10.27-10.27,10.27H10.27c-5.671,0-10.27-4.598-10.27-10.27V12.837
			c0-5.671,4.599-10.27,10.27-10.27h272.79c5.672,0,10.27,4.598,10.27,10.27V107.188z"/>
		<path fill="#E74926" d="M293.329,104.621c0,5.671-4.598,10.27-10.27,10.27H10.27c-5.671,0-10.27-4.598-10.27-10.27V10.27
			C0,4.598,4.599,0,10.27,0h272.79c5.672,0,10.27,4.598,10.27,10.27V104.621z"/>
		<path fill="#FFFFFF" d="M0,70.603v34.019c0,5.671,4.599,10.27,10.27,10.27h272.79c5.672,0,10.27-4.598,10.27-10.27V70.603H0z"/>
	</g>
	<g>
		<g>
			<polygon fill="#FFFFFF" points="49.896,28.643 52.648,20.13 44.248,23.114 37.038,17.854 37.267,26.8 30.059,32.06 
				36.838,34.082 18.959,52.812 21.006,54.827 39.032,35.942 41.354,43.117 46.405,35.746 55.315,35.746 			"/>
		</g>
	</g>
	<g>
		<path fill="#FFFFFF" d="M75.075,15.26h1.746v17.792h-1.746V15.26z"/>
		<path fill="#FFFFFF" d="M81.34,20.241c0.496-0.137,1.143-0.291,1.938-0.462c0.796-0.171,1.827-0.257,3.094-0.257
			c1.677,0,2.893,0.488,3.646,1.463c0.086-0.068,0.253-0.184,0.501-0.347c0.248-0.163,0.561-0.329,0.937-0.5
			c0.377-0.171,0.817-0.316,1.322-0.437c0.505-0.12,1.065-0.18,1.682-0.18c1.01,0,1.827,0.15,2.452,0.449
			c0.625,0.3,1.108,0.719,1.451,1.258c0.342,0.539,0.573,1.185,0.692,1.938c0.12,0.753,0.18,1.575,0.18,2.465v7.42h-1.668v-6.881
			c0-0.873-0.039-1.63-0.116-2.272c-0.077-0.642-0.23-1.172-0.462-1.592s-0.561-0.736-0.988-0.95
			c-0.429-0.213-0.984-0.321-1.669-0.321c-0.514,0-0.98,0.047-1.399,0.141c-0.42,0.094-0.783,0.21-1.091,0.347
			c-0.309,0.137-0.562,0.274-0.758,0.411c-0.197,0.137-0.338,0.24-0.424,0.308c0.154,0.445,0.27,0.946,0.347,1.502
			c0.077,0.557,0.116,1.143,0.116,1.759v7.548h-1.669v-6.881c0-0.873-0.039-1.63-0.116-2.272c-0.076-0.642-0.235-1.172-0.475-1.592
			c-0.24-0.419-0.577-0.736-1.014-0.95c-0.437-0.213-1.015-0.321-1.733-0.321c-0.805,0-1.485,0.043-2.041,0.128
			c-0.557,0.086-0.911,0.163-1.065,0.231v11.656H81.34V20.241z"/>
		<path fill="#FFFFFF" d="M105.165,37.802h-1.669V20.241c0.496-0.171,1.13-0.333,1.899-0.488c0.771-0.154,1.746-0.231,2.928-0.231
			c0.976,0,1.861,0.158,2.657,0.475s1.479,0.774,2.054,1.374c0.573,0.599,1.018,1.327,1.335,2.182
			c0.316,0.856,0.475,1.823,0.475,2.901c0,1.01-0.133,1.938-0.397,2.786c-0.266,0.847-0.655,1.575-1.168,2.182
			c-0.514,0.608-1.143,1.083-1.888,1.425c-0.744,0.342-1.596,0.514-2.555,0.514c-0.872,0-1.63-0.125-2.271-0.372
			c-0.643-0.248-1.108-0.483-1.399-0.706V37.802z M105.165,30.665c0.154,0.12,0.347,0.249,0.577,0.385
			c0.231,0.137,0.501,0.266,0.81,0.385c0.308,0.12,0.642,0.218,1.001,0.295s0.735,0.116,1.13,0.116c0.821,0,1.51-0.141,2.066-0.424
			c0.556-0.282,1.005-0.667,1.348-1.155s0.591-1.061,0.745-1.72c0.153-0.659,0.23-1.356,0.23-2.092c0-1.746-0.437-3.085-1.31-4.018
			c-0.872-0.933-2.027-1.399-3.466-1.399c-0.821,0-1.484,0.039-1.989,0.116s-0.886,0.158-1.143,0.244V30.665z"/>
		<path fill="#FFFFFF" d="M122.495,19.471c0.872,0,1.612,0.124,2.221,0.372c0.607,0.249,1.1,0.591,1.476,1.027
			c0.377,0.437,0.65,0.955,0.822,1.554c0.171,0.599,0.257,1.25,0.257,1.951v8.37c-0.172,0.051-0.42,0.107-0.745,0.167
			s-0.702,0.124-1.13,0.192s-0.902,0.124-1.425,0.167c-0.522,0.042-1.057,0.064-1.604,0.064c-0.702,0-1.348-0.077-1.938-0.231
			c-0.59-0.154-1.104-0.398-1.54-0.731c-0.437-0.334-0.779-0.762-1.027-1.284s-0.372-1.16-0.372-1.913
			c0-0.719,0.137-1.335,0.411-1.849c0.273-0.513,0.658-0.937,1.155-1.271c0.496-0.334,1.086-0.578,1.771-0.732
			c0.684-0.154,1.429-0.231,2.233-0.231c0.239,0,0.492,0.013,0.758,0.039c0.265,0.025,0.521,0.06,0.77,0.103
			c0.248,0.043,0.462,0.086,0.643,0.128c0.18,0.043,0.303,0.082,0.372,0.116v-0.822c0-0.462-0.035-0.912-0.103-1.348
			c-0.069-0.437-0.219-0.83-0.45-1.181c-0.23-0.351-0.556-0.633-0.976-0.847c-0.419-0.214-0.971-0.321-1.655-0.321
			c-0.976,0-1.704,0.069-2.183,0.206c-0.479,0.137-0.83,0.249-1.053,0.334l-0.231-1.463c0.291-0.137,0.74-0.266,1.349-0.385
			C120.907,19.531,121.639,19.471,122.495,19.471z M122.648,31.846c0.65,0,1.22-0.021,1.708-0.064
			c0.487-0.042,0.902-0.098,1.245-0.167v-4.672c-0.188-0.085-0.488-0.175-0.898-0.27c-0.411-0.094-0.976-0.142-1.695-0.142
			c-0.41,0-0.839,0.03-1.283,0.09c-0.445,0.061-0.856,0.189-1.232,0.385c-0.377,0.197-0.685,0.467-0.925,0.809
			c-0.239,0.342-0.359,0.796-0.359,1.36c0,0.497,0.081,0.916,0.244,1.258s0.394,0.616,0.693,0.821
			c0.299,0.206,0.659,0.355,1.078,0.45S122.118,31.846,122.648,31.846z"/>
		<path fill="#FFFFFF" d="M137.026,33.335c-1.026,0-1.935-0.163-2.722-0.488c-0.787-0.325-1.441-0.792-1.964-1.399
			s-0.92-1.335-1.193-2.183c-0.274-0.847-0.411-1.784-0.411-2.811c0-1.044,0.142-1.994,0.424-2.85
			c0.282-0.855,0.688-1.592,1.22-2.208c0.53-0.616,1.172-1.091,1.925-1.425c0.753-0.333,1.601-0.5,2.542-0.5
			c0.719,0,1.391,0.06,2.016,0.18c0.624,0.12,1.107,0.274,1.45,0.462l-0.437,1.438c-0.342-0.171-0.728-0.308-1.155-0.411
			c-0.428-0.103-1.001-0.154-1.72-0.154c-1.473,0-2.589,0.475-3.351,1.425c-0.762,0.95-1.143,2.298-1.143,4.044
			c0,0.787,0.086,1.511,0.257,2.169c0.171,0.659,0.449,1.224,0.834,1.694c0.386,0.471,0.882,0.839,1.489,1.104
			c0.607,0.266,1.348,0.398,2.221,0.398c0.719,0,1.322-0.081,1.811-0.244c0.487-0.163,0.843-0.304,1.065-0.424l0.359,1.438
			c-0.309,0.171-0.792,0.338-1.45,0.5C138.435,33.254,137.745,33.335,137.026,33.335z"/>
		<path fill="#FFFFFF" d="M144.908,19.779h5.289v1.412h-5.289v7.06c0,0.753,0.063,1.365,0.192,1.836
			c0.128,0.471,0.312,0.834,0.552,1.091c0.239,0.256,0.53,0.428,0.873,0.513c0.342,0.086,0.719,0.128,1.13,0.128
			c0.701,0,1.267-0.081,1.694-0.244s0.762-0.313,1.001-0.45l0.411,1.387c-0.24,0.154-0.659,0.33-1.258,0.526
			c-0.6,0.196-1.25,0.295-1.951,0.295c-0.822,0-1.511-0.107-2.067-0.321s-1.001-0.539-1.335-0.976s-0.569-0.979-0.706-1.63
			c-0.137-0.65-0.205-1.42-0.205-2.311V15.876l1.669-0.308V19.779z"/>
		<path fill="#FFFFFF" d="M159.233,33.053V15.26h10.142v1.515h-8.396v6.264h7.445v1.515h-7.445v8.498H159.233z"/>
		<path fill="#FFFFFF" d="M182.314,32.591c-0.496,0.137-1.164,0.291-2.002,0.462c-0.839,0.171-1.866,0.257-3.081,0.257
			c-0.993,0-1.823-0.146-2.49-0.437c-0.668-0.291-1.207-0.702-1.618-1.232c-0.41-0.53-0.706-1.172-0.886-1.926
			c-0.18-0.753-0.27-1.583-0.27-2.49v-7.445h1.669v6.906c0,0.941,0.068,1.737,0.205,2.388c0.138,0.651,0.36,1.177,0.668,1.579
			s0.706,0.693,1.193,0.873c0.488,0.18,1.083,0.27,1.785,0.27c0.787,0,1.472-0.043,2.054-0.128s0.95-0.163,1.104-0.231V19.779h1.669
			V32.591z"/>
		<path fill="#FFFFFF" d="M186.73,20.241c0.496-0.137,1.164-0.291,2.003-0.462c0.838-0.171,1.865-0.257,3.08-0.257
			c1.01,0,1.854,0.146,2.529,0.437s1.215,0.706,1.617,1.245s0.689,1.186,0.86,1.938c0.171,0.753,0.257,1.583,0.257,2.49v7.42h-1.669
			v-6.881c0-0.941-0.064-1.737-0.192-2.388c-0.128-0.65-0.343-1.181-0.642-1.592c-0.3-0.411-0.693-0.706-1.182-0.886
			c-0.487-0.18-1.1-0.27-1.835-0.27c-0.788,0-1.468,0.043-2.042,0.128c-0.573,0.086-0.945,0.163-1.116,0.231v11.656h-1.669V20.241z"
			/>
		<path fill="#FFFFFF" d="M206.833,33.335c-1.026,0-1.935-0.163-2.722-0.488c-0.787-0.325-1.441-0.792-1.964-1.399
			s-0.92-1.335-1.193-2.183c-0.274-0.847-0.411-1.784-0.411-2.811c0-1.044,0.142-1.994,0.424-2.85
			c0.282-0.855,0.688-1.592,1.22-2.208c0.53-0.616,1.172-1.091,1.925-1.425c0.753-0.333,1.601-0.5,2.542-0.5
			c0.719,0,1.391,0.06,2.016,0.18c0.624,0.12,1.107,0.274,1.45,0.462l-0.437,1.438c-0.342-0.171-0.728-0.308-1.155-0.411
			c-0.428-0.103-1.001-0.154-1.72-0.154c-1.473,0-2.589,0.475-3.351,1.425c-0.762,0.95-1.143,2.298-1.143,4.044
			c0,0.787,0.086,1.511,0.257,2.169c0.171,0.659,0.449,1.224,0.834,1.694c0.386,0.471,0.882,0.839,1.489,1.104
			c0.607,0.266,1.348,0.398,2.221,0.398c0.719,0,1.322-0.081,1.811-0.244c0.487-0.163,0.843-0.304,1.065-0.424l0.359,1.438
			c-0.309,0.171-0.792,0.338-1.45,0.5C208.241,33.254,207.552,33.335,206.833,33.335z"/>
		<path fill="#FFFFFF" d="M214.715,19.779h5.289v1.412h-5.289v7.06c0,0.753,0.063,1.365,0.192,1.836
			c0.128,0.471,0.312,0.834,0.552,1.091c0.239,0.256,0.53,0.428,0.873,0.513c0.342,0.086,0.719,0.128,1.13,0.128
			c0.701,0,1.267-0.081,1.694-0.244s0.762-0.313,1.001-0.45l0.411,1.387c-0.24,0.154-0.659,0.33-1.258,0.526
			c-0.6,0.196-1.25,0.295-1.951,0.295c-0.822,0-1.511-0.107-2.067-0.321s-1.001-0.539-1.335-0.976s-0.569-0.979-0.706-1.63
			c-0.137-0.65-0.205-1.42-0.205-2.311V15.876l1.669-0.308V19.779z"/>
		<path fill="#FFFFFF" d="M225.138,15.774c0,0.394-0.12,0.706-0.359,0.937c-0.24,0.231-0.53,0.347-0.873,0.347
			s-0.633-0.115-0.873-0.347c-0.239-0.231-0.359-0.543-0.359-0.937c0-0.394,0.12-0.706,0.359-0.937
			c0.24-0.231,0.53-0.347,0.873-0.347s0.633,0.116,0.873,0.347C225.018,15.068,225.138,15.38,225.138,15.774z M224.753,33.053
			h-1.669V19.779h1.669V33.053z"/>
		<path fill="#FFFFFF" d="M240.491,26.429c0,1.044-0.15,1.994-0.449,2.85c-0.3,0.856-0.719,1.583-1.258,2.182
			s-1.178,1.065-1.913,1.399c-0.736,0.333-1.549,0.5-2.438,0.5c-0.891,0-1.704-0.167-2.439-0.5c-0.736-0.334-1.374-0.8-1.913-1.399
			s-0.958-1.326-1.258-2.182s-0.449-1.806-0.449-2.85c0-1.044,0.149-1.994,0.449-2.85s0.719-1.587,1.258-2.195
			c0.539-0.607,1.177-1.078,1.913-1.412c0.735-0.333,1.549-0.5,2.439-0.5c0.89,0,1.702,0.167,2.438,0.5
			c0.735,0.334,1.374,0.805,1.913,1.412c0.539,0.608,0.958,1.339,1.258,2.195C240.341,24.435,240.491,25.385,240.491,26.429z
			 M238.72,26.429c0-1.66-0.385-2.982-1.155-3.967c-0.771-0.984-1.814-1.476-3.132-1.476c-1.318,0-2.362,0.492-3.133,1.476
			c-0.771,0.985-1.155,2.307-1.155,3.967c0,1.661,0.385,2.979,1.155,3.954s1.814,1.463,3.133,1.463c1.317,0,2.361-0.488,3.132-1.463
			S238.72,28.089,238.72,26.429z"/>
		<path fill="#FFFFFF" d="M244.111,20.241c0.496-0.137,1.164-0.291,2.003-0.462c0.838-0.171,1.865-0.257,3.08-0.257
			c1.01,0,1.854,0.146,2.529,0.437s1.215,0.706,1.617,1.245s0.689,1.186,0.86,1.938c0.171,0.753,0.257,1.583,0.257,2.49v7.42h-1.669
			v-6.881c0-0.941-0.064-1.737-0.192-2.388c-0.128-0.65-0.343-1.181-0.642-1.592c-0.3-0.411-0.693-0.706-1.182-0.886
			c-0.487-0.18-1.1-0.27-1.835-0.27c-0.788,0-1.468,0.043-2.042,0.128c-0.573,0.086-0.945,0.163-1.116,0.231v11.656h-1.669V20.241z"
			/>
		<path fill="#FFFFFF" d="M137.734,43.117c0.825,2.751,1.648,5.245,2.471,7.481c0.822,2.237,1.633,4.288,2.431,6.152
			c0.588-2.02,1.181-4.398,1.778-7.136c0.598-2.737,1.173-5.63,1.726-8.68h1.721c-0.315,1.834-0.63,3.551-0.942,5.153
			c-0.313,1.602-0.643,3.125-0.988,4.57c-0.346,1.446-0.708,2.832-1.087,4.157c-0.379,1.326-0.792,2.63-1.24,3.913h-1.879
			c-0.402-0.979-0.805-1.956-1.207-2.931s-0.801-1.981-1.196-3.016c-0.396-1.035-0.792-2.116-1.188-3.245s-0.794-2.327-1.195-3.593
			c-0.407,1.271-0.81,2.473-1.209,3.603c-0.4,1.131-0.796,2.214-1.189,3.25c-0.394,1.036-0.792,2.041-1.193,3.017
			c-0.402,0.976-0.813,1.948-1.233,2.916h-1.84c-0.464-1.285-0.889-2.59-1.275-3.918c-0.387-1.327-0.747-2.714-1.082-4.16
			c-0.336-1.446-0.654-2.969-0.957-4.569c-0.302-1.6-0.608-3.315-0.92-5.146h1.798c0.266,1.504,0.533,2.98,0.804,4.427
			c0.271,1.447,0.557,2.846,0.858,4.198s0.608,2.631,0.922,3.839s0.629,2.324,0.946,3.351c0.729-1.898,1.517-3.955,2.36-6.17
			c0.843-2.215,1.674-4.703,2.493-7.462H137.734z"/>
		<path fill="#FFFFFF" d="M153.021,41.448c0,0.394-0.12,0.706-0.359,0.937c-0.24,0.231-0.53,0.347-0.873,0.347
			s-0.633-0.115-0.873-0.347c-0.239-0.231-0.359-0.543-0.359-0.937c0-0.394,0.12-0.706,0.359-0.937
			c0.24-0.231,0.53-0.347,0.873-0.347s0.633,0.116,0.873,0.347C152.9,40.742,153.021,41.055,153.021,41.448z M152.636,58.727h-1.669
			V45.454h1.669V58.727z"/>
		<path fill="#FFFFFF" d="M165.293,46.814c-0.401,0.44-0.917,1.055-1.549,1.843c-0.632,0.789-1.306,1.667-2.022,2.635
			c-0.718,0.968-1.428,1.979-2.132,3.032c-0.703,1.053-1.322,2.05-1.854,2.991h7.788v1.412h-9.705v-1.207
			c0.442-0.841,0.991-1.768,1.646-2.78c0.655-1.012,1.336-2.008,2.044-2.989c0.708-0.98,1.397-1.9,2.071-2.761
			c0.672-0.861,1.234-1.569,1.685-2.125h-7.061v-1.412h9.089V46.814z"/>
		<path fill="#FFFFFF" d="M172.765,45.146c0.872,0,1.612,0.124,2.221,0.372c0.607,0.249,1.1,0.591,1.476,1.027
			c0.377,0.437,0.65,0.955,0.822,1.554c0.171,0.599,0.257,1.25,0.257,1.951v8.37c-0.172,0.051-0.42,0.107-0.745,0.167
			s-0.702,0.124-1.13,0.192s-0.902,0.124-1.425,0.167c-0.522,0.042-1.057,0.064-1.604,0.064c-0.702,0-1.348-0.077-1.938-0.231
			c-0.59-0.154-1.104-0.398-1.54-0.731c-0.437-0.334-0.779-0.762-1.027-1.284s-0.372-1.16-0.372-1.913
			c0-0.719,0.137-1.335,0.411-1.849c0.273-0.513,0.658-0.937,1.155-1.271c0.496-0.334,1.086-0.578,1.771-0.732
			c0.684-0.154,1.429-0.231,2.233-0.231c0.239,0,0.492,0.013,0.758,0.039c0.265,0.025,0.521,0.06,0.77,0.103
			c0.248,0.043,0.462,0.086,0.643,0.128c0.18,0.043,0.303,0.082,0.372,0.116v-0.822c0-0.462-0.035-0.912-0.103-1.348
			c-0.069-0.437-0.219-0.83-0.45-1.181c-0.23-0.351-0.556-0.633-0.976-0.847c-0.419-0.214-0.971-0.321-1.655-0.321
			c-0.976,0-1.704,0.069-2.183,0.206c-0.479,0.137-0.83,0.249-1.053,0.334l-0.231-1.463c0.291-0.137,0.74-0.266,1.349-0.385
			C171.177,45.206,171.908,45.146,172.765,45.146z M172.918,57.521c0.65,0,1.22-0.021,1.708-0.064
			c0.487-0.042,0.902-0.098,1.245-0.167v-4.672c-0.188-0.085-0.488-0.175-0.898-0.27c-0.411-0.094-0.976-0.142-1.695-0.142
			c-0.41,0-0.839,0.03-1.283,0.09c-0.445,0.061-0.856,0.189-1.232,0.385c-0.377,0.197-0.685,0.467-0.925,0.809
			c-0.239,0.342-0.359,0.796-0.359,1.36c0,0.497,0.081,0.916,0.244,1.258s0.394,0.616,0.693,0.821
			c0.299,0.206,0.659,0.355,1.078,0.45S172.388,57.521,172.918,57.521z"/>
		<path fill="#FFFFFF" d="M186.319,45.197c0.548,0,1.065,0.043,1.554,0.128c0.487,0.086,0.825,0.171,1.014,0.257l-0.334,1.438
			c-0.137-0.068-0.415-0.141-0.834-0.218c-0.42-0.077-0.972-0.115-1.656-0.115c-0.719,0-1.296,0.051-1.732,0.154
			s-0.724,0.188-0.86,0.257v11.63h-1.669V46.07c0.428-0.188,1.019-0.381,1.771-0.578S185.241,45.197,186.319,45.197z"/>
		<path fill="#FFFFFF" d="M201.955,58.316c-0.496,0.171-1.129,0.333-1.899,0.488c-0.771,0.154-1.746,0.231-2.927,0.231
			c-0.976,0-1.861-0.159-2.657-0.475s-1.481-0.774-2.055-1.374c-0.573-0.599-1.019-1.326-1.335-2.182s-0.475-1.823-0.475-2.901
			c0-1.01,0.133-1.938,0.397-2.786c0.266-0.847,0.655-1.579,1.169-2.195c0.513-0.616,1.143-1.095,1.887-1.438
			c0.744-0.342,1.596-0.514,2.555-0.514c0.873,0,1.63,0.125,2.272,0.373c0.642,0.248,1.107,0.484,1.398,0.706v-7.138l1.669-0.308
			V58.316z M200.286,47.867c-0.153-0.12-0.346-0.248-0.577-0.385s-0.501-0.265-0.809-0.385c-0.309-0.12-0.642-0.218-1.002-0.295
			c-0.359-0.077-0.735-0.115-1.129-0.115c-0.822,0-1.511,0.146-2.067,0.436c-0.556,0.292-1.006,0.681-1.348,1.168
			c-0.343,0.488-0.591,1.062-0.744,1.72c-0.154,0.659-0.231,1.356-0.231,2.092c0,1.746,0.437,3.085,1.31,4.018
			c0.873,0.933,2.028,1.399,3.466,1.399c0.821,0,1.484-0.039,1.99-0.116c0.504-0.077,0.886-0.158,1.142-0.244V47.867z"/>
	</g>
	<g>
		<path fill="#E74926" d="M53.932,84.61h3.204v14.234h-3.204V84.61z"/>
		<path fill="#E74926" d="M64.201,84.61c0.247,0.452,0.531,1.01,0.854,1.674c0.322,0.665,0.658,1.383,1.009,2.157
			c0.35,0.774,0.696,1.564,1.04,2.373c0.343,0.808,0.666,1.568,0.968,2.28c0.302-0.712,0.625-1.472,0.968-2.28
			c0.344-0.808,0.69-1.599,1.04-2.373c0.351-0.773,0.687-1.492,1.01-2.157c0.322-0.664,0.607-1.222,0.854-1.674h2.916
			c0.137,0.945,0.264,2.002,0.38,3.173s0.22,2.39,0.309,3.656s0.171,2.537,0.246,3.81s0.141,2.472,0.195,3.594h-3.122
			c-0.041-1.383-0.096-2.889-0.164-4.519s-0.172-3.272-0.309-4.93c-0.247,0.575-0.521,1.212-0.823,1.91
			c-0.303,0.698-0.602,1.397-0.896,2.095c-0.296,0.698-0.581,1.366-0.855,2.002s-0.508,1.181-0.7,1.633h-2.239
			c-0.192-0.452-0.426-0.996-0.7-1.633s-0.561-1.304-0.855-2.002s-0.594-1.397-0.896-2.095c-0.303-0.698-0.577-1.335-0.824-1.91
			c-0.138,1.657-0.24,3.3-0.309,4.93s-0.123,3.136-0.164,4.519h-3.122c0.055-1.123,0.12-2.321,0.195-3.594s0.157-2.543,0.246-3.81
			s0.191-2.485,0.309-3.656c0.116-1.171,0.242-2.229,0.38-3.173H64.201z"/>
		<path fill="#E74926" d="M83.117,84.446c2.123,0,3.752,0.373,4.889,1.119c1.137,0.747,1.705,1.969,1.705,3.667
			c0,1.712-0.575,2.947-1.726,3.707c-1.15,0.76-2.793,1.14-4.93,1.14H82.05v4.765h-3.204V84.815
			c0.698-0.137,1.438-0.233,2.218-0.288S82.528,84.446,83.117,84.446z M83.323,87.177c-0.233,0-0.463,0.007-0.688,0.021
			c-0.226,0.014-0.421,0.028-0.585,0.041v4.108h1.006c1.109,0,1.944-0.15,2.506-0.452s0.842-0.863,0.842-1.684
			c0-0.397-0.071-0.726-0.215-0.986c-0.145-0.26-0.35-0.469-0.616-0.626c-0.268-0.157-0.593-0.267-0.976-0.329
			C84.213,87.208,83.788,87.177,83.323,87.177z"/>
		<path fill="#E74926" d="M100.226,98.844c-0.158-0.495-0.329-1.002-0.511-1.524c-0.183-0.521-0.364-1.041-0.545-1.557h-5.559
			c-0.18,0.52-0.36,1.04-0.541,1.562s-0.349,1.028-0.504,1.52h-3.328c0.536-1.533,1.044-2.951,1.524-4.251
			c0.481-1.301,0.951-2.526,1.411-3.677c0.461-1.15,0.914-2.242,1.36-3.276s0.91-2.044,1.391-3.03h3.037
			c0.468,0.986,0.929,1.996,1.383,3.03s0.911,2.125,1.372,3.276s0.932,2.376,1.413,3.677s0.991,2.718,1.527,4.251H100.226z
			 M96.376,87.834c-0.071,0.207-0.176,0.488-0.313,0.844c-0.138,0.356-0.295,0.767-0.471,1.233s-0.372,0.98-0.59,1.541
			c-0.217,0.561-0.438,1.148-0.662,1.764h4.07c-0.218-0.617-0.429-1.207-0.633-1.769c-0.204-0.563-0.398-1.077-0.582-1.543
			c-0.184-0.466-0.345-0.877-0.483-1.233C96.573,88.315,96.461,88.037,96.376,87.834z"/>
		<path fill="#E74926" d="M111.462,99.131c-2.314,0-4.077-0.644-5.289-1.931s-1.817-3.115-1.817-5.484
			c0-1.178,0.185-2.229,0.554-3.153c0.37-0.924,0.877-1.705,1.521-2.342s1.41-1.119,2.301-1.448c0.89-0.329,1.854-0.493,2.896-0.493
			c0.603,0,1.15,0.045,1.644,0.134c0.492,0.089,0.924,0.192,1.294,0.308c0.369,0.116,0.678,0.236,0.924,0.359
			c0.247,0.123,0.425,0.219,0.534,0.288l-0.924,2.588c-0.438-0.233-0.949-0.432-1.53-0.596c-0.583-0.165-1.243-0.247-1.982-0.247
			c-0.493,0-0.976,0.082-1.448,0.247c-0.473,0.164-0.89,0.428-1.253,0.791c-0.362,0.363-0.654,0.832-0.873,1.407
			s-0.328,1.273-0.328,2.095c0,0.657,0.071,1.271,0.216,1.838c0.144,0.568,0.376,1.058,0.698,1.469
			c0.321,0.411,0.742,0.736,1.263,0.976c0.521,0.24,1.15,0.359,1.89,0.359c0.466,0,0.884-0.027,1.253-0.082
			c0.37-0.055,0.698-0.12,0.986-0.195c0.287-0.075,0.541-0.161,0.76-0.257c0.219-0.096,0.418-0.185,0.596-0.267l0.883,2.568
			c-0.451,0.274-1.088,0.521-1.91,0.739C113.495,99.021,112.543,99.131,111.462,99.131z"/>
		<path fill="#E74926" d="M129.27,84.61v2.732h-4.293v11.502h-3.204V87.342h-4.292V84.61H129.27z"/>
		<path fill="#E74926" d="M136.253,98.844V84.61h9.53v2.691h-6.326v2.978h5.627v2.691h-5.627v5.874H136.253z"/>
		<path fill="#E74926" d="M153.607,99.131c-0.999,0-1.862-0.141-2.588-0.421c-0.726-0.281-1.324-0.671-1.797-1.171
			c-0.473-0.5-0.821-1.095-1.048-1.787c-0.226-0.691-0.339-1.455-0.339-2.29V84.61h3.204v8.585c0,0.575,0.065,1.065,0.195,1.469
			s0.309,0.732,0.534,0.986s0.5,0.435,0.821,0.544c0.322,0.109,0.675,0.164,1.058,0.164c0.781,0,1.414-0.239,1.9-0.719
			c0.485-0.479,0.729-1.294,0.729-2.444V84.61h3.204v8.853c0,0.835-0.117,1.602-0.35,2.3c-0.233,0.698-0.589,1.298-1.068,1.797
			c-0.479,0.5-1.088,0.887-1.828,1.161C155.497,98.994,154.621,99.131,153.607,99.131z"/>
		<path fill="#E74926" d="M172.114,98.844c-0.918-1.629-1.91-3.238-2.979-4.827s-2.205-3.088-3.409-4.498v9.325h-3.163V84.61h2.608
			c0.451,0.452,0.951,1.006,1.499,1.664s1.105,1.359,1.674,2.105c0.568,0.747,1.133,1.52,1.694,2.321
			c0.562,0.801,1.089,1.571,1.582,2.311V84.61h3.184v14.234H172.114z"/>
		<path fill="#E74926" d="M184.581,99.131c-2.314,0-4.077-0.644-5.289-1.931s-1.817-3.115-1.817-5.484
			c0-1.178,0.185-2.229,0.554-3.153c0.37-0.924,0.877-1.705,1.521-2.342s1.41-1.119,2.301-1.448c0.89-0.329,1.854-0.493,2.896-0.493
			c0.603,0,1.15,0.045,1.644,0.134c0.492,0.089,0.924,0.192,1.294,0.308c0.369,0.116,0.678,0.236,0.924,0.359
			c0.247,0.123,0.425,0.219,0.534,0.288l-0.924,2.588c-0.438-0.233-0.949-0.432-1.53-0.596c-0.583-0.165-1.243-0.247-1.982-0.247
			c-0.493,0-0.976,0.082-1.448,0.247c-0.473,0.164-0.89,0.428-1.253,0.791c-0.362,0.363-0.654,0.832-0.873,1.407
			s-0.328,1.273-0.328,2.095c0,0.657,0.071,1.271,0.216,1.838c0.144,0.568,0.376,1.058,0.698,1.469
			c0.321,0.411,0.742,0.736,1.263,0.976c0.521,0.24,1.15,0.359,1.89,0.359c0.466,0,0.884-0.027,1.253-0.082
			c0.37-0.055,0.698-0.12,0.986-0.195c0.287-0.075,0.541-0.161,0.76-0.257c0.219-0.096,0.418-0.185,0.596-0.267l0.883,2.568
			c-0.451,0.274-1.088,0.521-1.91,0.739C186.614,99.021,185.662,99.131,184.581,99.131z"/>
		<path fill="#E74926" d="M202.389,84.61v2.732h-4.293v11.502h-3.204V87.342H190.6V84.61H202.389z"/>
		<path fill="#E74926" d="M204.442,84.61h3.204v14.234h-3.204V84.61z"/>
		<path fill="#E74926" d="M224.488,91.717c0,1.219-0.182,2.29-0.544,3.214c-0.363,0.924-0.859,1.698-1.489,2.321
			s-1.38,1.092-2.249,1.407c-0.87,0.315-1.805,0.473-2.804,0.473c-0.973,0-1.89-0.158-2.753-0.473
			c-0.862-0.314-1.615-0.784-2.259-1.407s-1.15-1.396-1.521-2.321c-0.369-0.924-0.554-1.996-0.554-3.214s0.191-2.291,0.575-3.215
			c0.383-0.924,0.899-1.701,1.55-2.331c0.65-0.629,1.404-1.102,2.26-1.417s1.756-0.473,2.701-0.473c0.972,0,1.89,0.158,2.752,0.473
			s1.615,0.788,2.26,1.417c0.644,0.63,1.149,1.407,1.52,2.331C224.304,89.426,224.488,90.498,224.488,91.717z M213.623,91.717
			c0,0.698,0.085,1.328,0.257,1.89c0.171,0.562,0.417,1.044,0.739,1.448c0.321,0.404,0.715,0.716,1.181,0.935
			c0.466,0.219,1,0.329,1.603,0.329c0.588,0,1.119-0.109,1.592-0.329c0.473-0.219,0.869-0.53,1.191-0.935
			c0.321-0.404,0.567-0.886,0.739-1.448c0.171-0.562,0.257-1.191,0.257-1.89c0-0.699-0.086-1.332-0.257-1.9
			c-0.172-0.568-0.418-1.055-0.739-1.458c-0.322-0.404-0.719-0.715-1.191-0.935c-0.473-0.219-1.004-0.329-1.592-0.329
			c-0.603,0-1.137,0.113-1.603,0.339s-0.859,0.541-1.181,0.945c-0.322,0.404-0.568,0.89-0.739,1.458
			C213.708,90.406,213.623,91.032,213.623,91.717z"/>
		<path fill="#E74926" d="M236.71,98.844c-0.918-1.629-1.91-3.238-2.979-4.827s-2.205-3.088-3.409-4.498v9.325h-3.163V84.61h2.608
			c0.451,0.452,0.951,1.006,1.499,1.664s1.105,1.359,1.674,2.105c0.568,0.747,1.133,1.52,1.694,2.321
			c0.562,0.801,1.089,1.571,1.582,2.311V84.61h3.184v14.234H236.71z"/>
	</g>
</g>
</svg>
