<?xml version="1.0" encoding="utf-8"?>
<!-- Generator: Adobe Illustrator 16.0.0, SVG Export Plug-In . SVG Version: 6.00 Build 0)  -->
<!DOCTYPE svg PUBLIC "-//W3C//DTD SVG 1.1//EN" "http://www.w3.org/Graphics/SVG/1.1/DTD/svg11.dtd">
<svg version="1.1" id="Layer_1" xmlns="http://www.w3.org/2000/svg" xmlns:xlink="http://www.w3.org/1999/xlink" x="0px" y="0px"
	 width="257.084px" height="95.108px" viewBox="0 0 257.084 95.108" enable-background="new 0 0 257.084 95.108"
	 xml:space="preserve">
<g>
	<g>
		<path fill="#E03216" d="M257.084,84.964c0,5.603-4.542,10.145-10.145,10.145H10.146C4.543,95.108,0,90.566,0,84.964V13.95
			C0,8.347,4.543,3.805,10.146,3.805h236.794c5.603,0,10.145,4.542,10.145,10.145V84.964z"/>
		<path fill="#EA5B30" d="M257.084,81.159c0,5.603-4.542,10.145-10.145,10.145H10.146C4.543,91.304,0,86.762,0,81.159V10.146
			C0,4.543,4.543,0,10.146,0h236.794c5.603,0,10.145,4.543,10.145,10.146V81.159z"/>
	</g>
	<g>
		<g>
			<path fill-rule="evenodd" clip-rule="evenodd" fill="#FFFFFF" d="M15.985,57.56l9.739,3.651V34.428l-9.739-3.653V57.56z
				 M26.942,61.211l9.74-3.651V30.775l-9.74,3.653V61.211z M37.899,57.56l9.739,3.651V34.428l-9.739-3.653V57.56z M48.855,34.428
				v26.784l9.74-3.651V30.775L48.855,34.428z"/>
		</g>
	</g>
	<g>
		<path fill="#FFFFFF" d="M86.526,30.887c0.595,1.028,1.258,2.287,1.988,3.774c0.73,1.488,1.474,3.05,2.232,4.687
			c0.757,1.637,1.508,3.301,2.252,4.991c0.744,1.691,1.426,3.253,2.049,4.687c0.622-1.434,1.298-2.996,2.029-4.687
			c0.73-1.69,1.474-3.354,2.232-4.991c0.757-1.637,1.501-3.199,2.232-4.687c0.73-1.487,1.393-2.746,1.988-3.774h4.607
			c0.248,2.056,0.482,4.241,0.703,6.554c0.22,2.313,0.419,4.681,0.598,7.102c0.179,2.421,0.344,4.856,0.496,7.304
			c0.151,2.449,0.283,4.836,0.393,7.163h-5.032c-0.11-3.273-0.242-6.641-0.394-10.104c-0.151-3.462-0.379-6.817-0.682-10.064
			c-0.298,0.623-0.649,1.367-1.055,2.232c-0.406,0.866-0.839,1.806-1.298,2.82c-0.46,1.015-0.927,2.063-1.4,3.145
			c-0.474,1.083-0.934,2.13-1.38,3.145s-0.859,1.962-1.238,2.841c-0.379,0.879-0.704,1.63-0.974,2.252h-3.815
			c-0.271-0.622-0.595-1.38-0.974-2.272c-0.379-0.893-0.792-1.846-1.238-2.861s-0.907-2.063-1.38-3.145
			c-0.474-1.082-0.94-2.124-1.4-3.125c-0.46-1.001-0.893-1.941-1.298-2.82c-0.406-0.879-0.758-1.617-1.055-2.212
			c-0.304,3.247-0.531,6.602-0.683,10.064c-0.151,3.463-0.282,6.832-0.393,10.104h-5.032c0.11-2.326,0.241-4.734,0.393-7.223
			c0.151-2.489,0.317-4.957,0.496-7.406c0.179-2.448,0.378-4.822,0.599-7.122c0.22-2.299,0.454-4.423,0.703-6.371H86.526z"/>
		<path fill="#FFFFFF" d="M134.958,59.009c-0.379-1.109-0.773-2.205-1.18-3.287c-0.408-1.082-0.801-2.191-1.18-3.328H120.72
			c-0.38,1.136-0.767,2.252-1.16,3.348c-0.394,1.096-0.78,2.185-1.159,3.267h-5.317c1.054-3.003,2.054-5.776,3-8.319
			c0.946-2.542,1.872-4.951,2.777-7.224c0.906-2.272,1.804-4.437,2.696-6.493c0.892-2.056,1.812-4.084,2.757-6.087h4.881
			c0.947,2.002,1.867,4.031,2.76,6.087c0.893,2.056,1.791,4.22,2.697,6.493c0.908,2.273,1.842,4.681,2.801,7.224
			c0.961,2.543,1.969,5.316,3.023,8.319H134.958z M126.659,36.324c-0.623,1.435-1.333,3.179-2.13,5.235
			c-0.798,2.057-1.63,4.289-2.496,6.696h9.253c-0.867-2.407-1.705-4.653-2.517-6.736C127.958,39.436,127.254,37.704,126.659,36.324z
			"/>
		<path fill="#FFFFFF" d="M151.961,30.603c4.084,0,7.216,0.745,9.394,2.232c2.178,1.488,3.268,3.814,3.268,6.98
			c0,1.65-0.291,3.063-0.873,4.241c-0.582,1.177-1.427,2.137-2.536,2.881c-1.109,0.745-2.462,1.292-4.058,1.644
			c-1.597,0.352-3.423,0.528-5.479,0.528h-2.557v9.901h-5.113V31.292c1.19-0.27,2.509-0.453,3.957-0.548
			C149.41,30.65,150.743,30.603,151.961,30.603z M152.326,35.026c-1.299,0-2.368,0.041-3.206,0.122v9.577h2.476
			c2.461,0,4.355-0.345,5.681-1.035c1.325-0.69,1.988-1.995,1.988-3.916c0-0.919-0.176-1.69-0.527-2.313
			c-0.352-0.622-0.839-1.109-1.461-1.46s-1.359-0.602-2.211-0.751C154.213,35.101,153.3,35.026,152.326,35.026z"/>
		<path fill="#FFFFFF" d="M176.105,55.194c1.84,0,3.179-0.311,4.018-0.934c0.838-0.622,1.258-1.501,1.258-2.638
			c0-0.676-0.142-1.258-0.426-1.745c-0.284-0.487-0.69-0.927-1.218-1.319s-1.17-0.757-1.928-1.096
			c-0.758-0.338-1.623-0.67-2.597-0.994c-0.974-0.352-1.914-0.737-2.82-1.157c-0.907-0.419-1.704-0.94-2.395-1.563
			c-0.689-0.622-1.244-1.366-1.664-2.232c-0.419-0.865-0.629-1.907-0.629-3.125c0-2.542,0.879-4.538,2.638-5.986
			c1.759-1.447,4.153-2.171,7.183-2.171c1.759,0,3.321,0.197,4.688,0.588c1.366,0.393,2.441,0.819,3.227,1.278l-1.583,4.139
			c-0.92-0.514-1.928-0.906-3.023-1.177c-1.096-0.27-2.226-0.406-3.389-0.406c-1.379,0-2.455,0.284-3.226,0.852
			c-0.771,0.568-1.156,1.367-1.156,2.395c0,0.623,0.128,1.156,0.385,1.603c0.257,0.447,0.622,0.846,1.096,1.197
			c0.474,0.352,1.028,0.677,1.664,0.974c0.636,0.298,1.332,0.582,2.09,0.852c1.325,0.487,2.509,0.981,3.551,1.481
			c1.041,0.501,1.921,1.096,2.638,1.786s1.265,1.501,1.644,2.435c0.379,0.933,0.568,2.063,0.568,3.388
			c0,2.543-0.9,4.512-2.699,5.905c-1.799,1.394-4.43,2.09-7.893,2.09c-1.163,0-2.226-0.075-3.186-0.223
			c-0.961-0.149-1.813-0.332-2.557-0.548c-0.744-0.216-1.387-0.439-1.928-0.67c-0.541-0.229-0.974-0.439-1.298-0.629l1.501-4.18
			c0.73,0.406,1.718,0.812,2.963,1.217C172.845,54.991,174.347,55.194,176.105,55.194z"/>
	</g>
</g>
</svg>
