<?xml version="1.0" encoding="utf-8"?>
<!-- Generator: Adobe Illustrator 16.0.0, SVG Export Plug-In . SVG Version: 6.00 Build 0)  -->
<!DOCTYPE svg PUBLIC "-//W3C//DTD SVG 1.1//EN" "http://www.w3.org/Graphics/SVG/1.1/DTD/svg11.dtd">
<svg version="1.1" id="Layer_1" xmlns="http://www.w3.org/2000/svg" xmlns:xlink="http://www.w3.org/1999/xlink" x="0px" y="0px"
	 width="67.786px" height="68.137px" viewBox="0 0 67.786 68.137" enable-background="new 0 0 67.786 68.137" xml:space="preserve">
<g>
	<circle fill-rule="evenodd" clip-rule="evenodd" fill="#FFFFFF" cx="34.312" cy="34.068" r="33.474"/>
	<path fill-rule="evenodd" clip-rule="evenodd" fill="#2F3539" d="M34.313,59.155c-13.833,0-25.089-11.253-25.089-25.086
		c0-13.833,11.256-25.087,25.089-25.087s25.087,11.254,25.087,25.087C59.399,47.902,48.146,59.155,34.313,59.155z"/>
	<path fill-rule="evenodd" clip-rule="evenodd" fill="#FFFFFF" d="M45.727,37.062c-1.783,0-3.326-0.97-4.179-2.403
		c0.112-0.161,0.196-0.341,0.301-0.51c0.193-0.319,0.375-0.644,0.531-0.985c0.093-0.206,0.174-0.416,0.254-0.628
		c0.134-0.357,0.242-0.721,0.339-1.096c0.046-0.192,0.098-0.378,0.135-0.575c0.104-0.578,0.177-1.167,0.177-1.777v-2.453
		c0-0.376-0.069-0.735-0.109-1.1c0.745-0.461,1.612-0.74,2.552-0.74c2.695,0,4.883,2.196,4.883,4.907v2.453
		C50.609,34.865,48.422,37.062,45.727,37.062z M21.239,45.573l4.88-7.36h3.861h7.08h3.782l4.884,7.36H21.239z M33.521,36.984
		c-4.047,0-7.323-4.52-7.323-8.585v-2.454c0-4.065,3.276-7.359,7.323-7.359c4.046,0,7.322,3.294,7.322,7.359v2.454
		C40.843,32.464,37.566,36.984,33.521,36.984z M25.493,34.659L25.493,34.659c-0.414,0.696-0.988,1.273-1.677,1.689
		c-0.061,0.037-0.125,0.066-0.185,0.101c-0.274,0.148-0.557,0.271-0.857,0.364c-0.097,0.029-0.188,0.064-0.287,0.09
		c-0.375,0.094-0.766,0.158-1.173,0.158c-2.696,0-4.884-2.197-4.884-4.907v-2.453c0-2.711,2.188-4.907,4.884-4.907
		c0.436,0,0.85,0.075,1.251,0.184c0.073,0.019,0.142,0.041,0.214,0.064c0.384,0.123,0.749,0.283,1.086,0.491l0,0
		c-0.04,0.365-0.109,0.724-0.109,1.1v2.453C23.756,31.16,24.4,33.076,25.493,34.659z M23.756,38.212l-4.958,7.36h-2.367h-2.438
		l3.66-7.36H23.756z M49.387,38.212l3.662,7.36h-4.881l-4.884-7.36H49.387z"/>
</g>
</svg>
