<?xml version="1.0" encoding="utf-8"?>
<!-- Generator: Adobe Illustrator 16.0.0, SVG Export Plug-In . SVG Version: 6.00 Build 0)  -->
<!DOCTYPE svg PUBLIC "-//W3C//DTD SVG 1.1//EN" "http://www.w3.org/Graphics/SVG/1.1/DTD/svg11.dtd">
<svg version="1.1" id="Layer_1" xmlns="http://www.w3.org/2000/svg" xmlns:xlink="http://www.w3.org/1999/xlink" x="0px" y="0px"
	 width="291.82px" height="68.137px" viewBox="0 0 291.82 68.137" enable-background="new 0 0 291.82 68.137" xml:space="preserve">
<g>
	<path fill-rule="evenodd" clip-rule="evenodd" fill="#FFFFFF" d="M258.411,1.318c-16.025,0-29.411,11.288-32.654,26.344
		c-1.163,1.906-2.274,3.896-4.598,3.896c-2.025,0-3.129-1.515-4.149-3.166c-2.962-15.419-16.519-27.074-32.802-27.074
		c-15.699,0-28.865,10.834-32.443,25.43c-1.411,2.12-2.477,4.81-5.177,4.81c-2.395,0-3.503-2.118-4.707-4.077
		c-3.312-14.965-16.65-26.163-32.613-26.163c-15.845,0-29.104,11.035-32.536,25.834c-1.289,2.042-2.382,4.406-4.913,4.406
		c-1.844,0-2.923-1.258-3.872-2.729C65.159,13.193,51.505,1.318,35.065,1.318c-18.453,0-33.409,14.959-33.409,33.409
		s14.956,33.41,33.409,33.41c15.93,0,29.244-11.151,32.591-26.068c1.024-1.659,2.129-3.186,4.162-3.186
		c2.801,0,3.841,2.894,5.334,5.045c3.996,13.975,16.856,24.209,32.115,24.209c15.383,0,28.327-10.399,32.212-24.545
		c1.378-2.104,2.453-4.708,5.108-4.708c2.969,0,3.962,3.25,5.61,5.421c4.119,13.782,16.889,23.833,32.01,23.833
		c15.74,0,28.932-10.892,32.47-25.546c1.122-1.847,2.236-3.708,4.481-3.708c2.579,0,3.666,2.452,4.986,4.52
		c3.821,14.243,16.817,24.734,32.266,24.734c18.449,0,33.409-14.96,33.409-33.41S276.86,1.318,258.411,1.318z"/>
	<path fill-rule="evenodd" clip-rule="evenodd" fill="#2F3539" d="M35.065,59.764c-13.806,0-25.039-11.231-25.039-25.037
		S21.26,9.69,35.065,9.69c13.807,0,25.04,11.231,25.04,25.037S48.872,59.764,35.065,59.764z"/>
	<path fill-rule="evenodd" clip-rule="evenodd" fill="#2F3539" d="M109.268,59.764c-13.806,0-25.039-11.231-25.039-25.037
		S95.462,9.69,109.268,9.69c13.807,0,25.041,11.231,25.041,25.037S123.074,59.764,109.268,59.764z"/>
	<path fill-rule="evenodd" clip-rule="evenodd" fill="#2F3539" d="M184.208,59.764c-13.806,0-25.037-11.231-25.037-25.037
		S170.402,9.69,184.208,9.69c13.807,0,25.037,11.231,25.037,25.037S198.015,59.764,184.208,59.764z"/>
	<path fill-rule="evenodd" clip-rule="evenodd" fill="#2F3539" d="M258.411,59.764c-13.808,0-25.037-11.231-25.037-25.037
		S244.604,9.69,258.411,9.69c13.806,0,25.037,11.231,25.037,25.037S272.217,59.764,258.411,59.764z"/>
	<path fill="#FFFFFF" d="M34.478,23.194c0-0.548-0.477-1.001-1.053-1.001c-0.577,0-1.056,0.453-1.056,1.001v6.515
		c0,0.547-0.476,1.003-1.052,1.003c-0.58,0-1.057-0.456-1.057-1.003v-6.515c0-0.548-0.479-1.001-1.056-1.001
		s-1.056,0.453-1.056,1.001v6.515c0,0.547-0.479,1.003-1.055,1.003c-0.578,0-1.056-0.456-1.056-1.003v-6.515
		c0-0.548-0.477-1.001-1.053-1.001c-0.58,0-1.056,0.453-1.056,1.001v10.023c0,1.268,0.856,2.414,2.108,2.833v12.201
		c0,1.094,0.957,2.004,2.11,2.004h2.111c1.152,0,2.108-0.91,2.108-2.004V36.05c1.255-0.42,2.108-1.566,2.108-2.833V23.194z
		 M47.139,23.194c0-0.548-0.479-1.001-1.056-1.001h-4.22c-2.9,0-5.275,2.255-5.275,5.01V39.73c0,0.27,0.249,0.502,0.528,0.502h3.691
		v8.019c0,1.094,0.954,2.004,2.108,2.004h2.111c1.153,0,2.111-0.91,2.111-2.004V23.194z"/>
	<path fill-rule="evenodd" clip-rule="evenodd" fill="#FFFFFF" d="M128.025,36.44c-0.754,1.007-8.604,10.899-9.617,11.067
		c-1.014,0.171-16.035-0.334-16.71,0c-0.677,0.337-4.559,4.528-4.559,4.528l-6.583-8.046l9.113-9.559h12.153
		c0.594,0.084,1.52,1.258,1.52,2.516c0,1.257-0.083,1.675-1.52,2.01c0.087,0-5.378-0.209-5.57,0c-0.43,0.475-0.17,2.013,0.506,2.013
		c0.678,0,9.708,0.333,10.128,0c0.422-0.335,7.693-8.07,7.693-8.07S128.787,35.436,128.025,36.44z M114.863,32.922
		c-2.342,0.061-4.456-1.243-4.558-4.026c-0.074-2.074,4.351-9.465,4.351-9.465s4.244,7.507,4.256,9.465
		C118.927,31.148,117.206,32.858,114.863,32.922z"/>
	<path fill-rule="evenodd" clip-rule="evenodd" fill="#FFFFFF" d="M201.084,27.431c-0.147,0.141-0.335,0.21-0.525,0.21
		c-0.198,0-0.397-0.078-0.545-0.231c-0.292-0.296-0.283-0.775,0.021-1.064l4.605-4.404c0.3-0.289,0.781-0.279,1.073,0.02
		c0.288,0.3,0.279,0.776-0.021,1.065L201.084,27.431z M204.804,27.994c0.301-0.292,0.778-0.287,1.07,0.01
		c0.295,0.298,0.289,0.773-0.013,1.064l-4.771,4.626c-0.147,0.145-0.341,0.213-0.531,0.213c-0.196,0-0.396-0.074-0.542-0.225
		c-0.295-0.297-0.286-0.773,0.011-1.064L204.804,27.994z M192.413,29.767c-0.149,0.147-0.343,0.223-0.535,0.223
		c-0.193,0-0.39-0.076-0.537-0.223c-0.297-0.293-0.297-0.77,0-1.064l6.227-6.177c0.295-0.292,0.775-0.292,1.07,0
		c0.298,0.294,0.298,0.77,0,1.064L192.413,29.767z M188.183,23.03c-0.149,0.153-0.347,0.227-0.545,0.227
		c-0.189,0-0.381-0.068-0.528-0.213c-0.299-0.289-0.305-0.765-0.015-1.061l3.658-3.741c0.291-0.297,0.769-0.306,1.072-0.018
		c0.301,0.292,0.306,0.767,0.015,1.064L188.183,23.03z M190.534,25.005c0.287,0.3,0.279,0.775-0.021,1.065l-3.101,2.965
		c-0.147,0.141-0.338,0.21-0.525,0.21c-0.198,0-0.397-0.078-0.545-0.23c-0.292-0.3-0.282-0.776,0.018-1.064l3.1-2.965
		C189.764,24.696,190.241,24.705,190.534,25.005z M195.676,33.222c-0.144,0.132-0.328,0.199-0.514,0.199
		c-0.205,0-0.406-0.081-0.557-0.242c-0.285-0.306-0.265-0.782,0.043-1.064l2.15-1.967c0.307-0.28,0.786-0.263,1.072,0.043
		c0.282,0.306,0.262,0.783-0.044,1.064L195.676,33.222z M202.933,40.196c0.04,0.259-0.044,0.524-0.231,0.714l-1.108,1.119
		c-0.16,0.164-0.379,0.251-0.604,0.251c-0.105,0-0.214-0.021-0.316-0.061l-3.364-1.347v15.946c0,0.491-0.4,0.886-0.894,0.886h-2.123
		c-0.496,0-0.894-0.395-0.894-0.886v-16.99l-7.843-0.938l-7.95,0.936v16.992c0,0.491-0.397,0.886-0.892,0.886h-2.126
		c-0.493,0-0.894-0.395-0.894-0.886V40.894l-3.248,1.3c-0.313,0.126-0.676,0.055-0.914-0.185l-1.101-1.093
		c-0.19-0.19-0.281-0.456-0.24-0.718c0.04-0.262,0.202-0.494,0.438-0.616l16.534-8.751c0.247-0.132,0.549-0.132,0.8,0l16.531,8.751
		C202.729,39.705,202.892,39.933,202.933,40.196z M178.128,31.107c-0.146,0.148-0.339,0.22-0.535,0.22
		c-0.193,0-0.386-0.072-0.535-0.22c-0.296-0.293-0.296-0.769,0-1.063l6.225-6.178c0.298-0.294,0.776-0.294,1.073,0
		c0.298,0.294,0.298,0.77,0,1.064L178.128,31.107z M175.412,26.326c-0.149,0.147-0.343,0.22-0.536,0.22
		c-0.197,0-0.391-0.072-0.537-0.22c-0.297-0.294-0.297-0.77,0-1.064l6.227-6.178c0.295-0.294,0.776-0.294,1.07,0
		c0.297,0.294,0.297,0.771,0,1.064L175.412,26.326z M166.985,28.674c-0.151,0.147-0.344,0.222-0.537,0.222
		c-0.196,0-0.389-0.075-0.537-0.222c-0.296-0.294-0.296-0.77,0-1.064l6.228-6.178c0.294-0.294,0.775-0.294,1.07,0
		c0.297,0.294,0.297,0.77,0,1.064L166.985,28.674z M170.801,29.412c0.294-0.294,0.775-0.294,1.069,0c0.297,0.295,0.297,0.77,0,1.064
		l-4.885,4.848c-0.147,0.147-0.342,0.22-0.537,0.22c-0.193,0-0.387-0.072-0.533-0.22c-0.298-0.293-0.298-0.77,0-1.064
		L170.801,29.412z"/>
	<path fill="#FFFFFF" d="M266.268,37.418c0,0.309-0.255,0.551-0.58,0.551h-4.062v3.855c0,0.312-0.253,0.552-0.579,0.552h-3.48
		c-0.326,0-0.581-0.24-0.581-0.552v-3.855h-4.061c-0.326,0-0.579-0.242-0.579-0.551v-3.305c0-0.311,0.253-0.55,0.579-0.55h4.061
		v-3.859c0-0.31,0.255-0.551,0.581-0.551h3.48c0.326,0,0.579,0.242,0.579,0.551v3.859h4.062c0.325,0,0.58,0.239,0.58,0.55V37.418z
		 M254.667,24.746v-2.204h9.281v2.204H254.667z M247.705,24.746h-0.579c-2.229,0-4.062,1.739-4.062,3.855v14.326
		c0,2.121,1.832,3.859,4.062,3.859h0.579V24.746z M269.168,24.746h-2.9v-2.754c0-0.915-0.779-1.653-1.74-1.653h-10.44
		c-0.962,0-1.741,0.738-1.741,1.653v2.754h-2.898v22.041h19.721V24.746z M275.548,28.601c0-2.117-1.831-3.855-4.061-3.855h-0.58
		v22.041h0.58c2.229,0,4.061-1.739,4.061-3.859V28.601z"/>
</g>
</svg>
