<?xml version="1.0" encoding="utf-8"?>
<!-- Generator: Adobe Illustrator 16.0.0, SVG Export Plug-In . SVG Version: 6.00 Build 0)  -->
<!DOCTYPE svg PUBLIC "-//W3C//DTD SVG 1.1//EN" "http://www.w3.org/Graphics/SVG/1.1/DTD/svg11.dtd">
<svg version="1.1" id="Layer_1" xmlns="http://www.w3.org/2000/svg" xmlns:xlink="http://www.w3.org/1999/xlink" x="0px" y="0px"
	 width="257.084px" height="131.338px" viewBox="0 0 257.084 131.338" enable-background="new 0 0 257.084 131.338"
	 xml:space="preserve">
<g>
	<g>
		<path fill="#E03216" d="M257.189,121.236c0,5.579-4.523,10.103-10.103,10.103H10.513c-5.579,0-10.103-4.523-10.103-10.103V14.313
			c0-5.579,4.523-10.103,10.103-10.103h236.574c5.579,0,10.103,4.524,10.103,10.103V121.236z"/>
		<path fill="#EA5B30" d="M257.189,117.025c0,5.579-4.523,10.103-10.103,10.103H10.513c-5.579,0-10.103-4.523-10.103-10.103V10.103
			C0.411,4.523,4.934,0,10.513,0h236.574c5.579,0,10.103,4.523,10.103,10.103V117.025z"/>
		<path fill="#E74926" d="M0.411,63.564v53.461c0,5.579,4.523,10.103,10.103,10.103h236.574c5.579,0,10.103-4.523,10.103-10.103
			V63.564H0.411z"/>
	</g>
	<path fill-rule="evenodd" clip-rule="evenodd" fill="#FFFFFF" d="M20.644,24.118h23.313v25.718H20.644V24.118z M25.308,45.159
		h13.987v-2.338H25.308V45.159z M25.308,40.483h13.987v-2.339H25.308V40.483z M25.308,35.806h13.987v-2.338H25.308V35.806z
		 M25.308,31.13h13.987v-2.336H25.308V31.13z M18.312,42.821h-4.663V17.103h23.314v4.676H18.312V42.821z"/>
	<g>
		<g>
			<path fill-rule="evenodd" clip-rule="evenodd" fill="#FFFFFF" d="M18.957,86.355v-7.854h-4.243v7.854
				c-1.091,0.647-1.818,1.771-1.818,3.058v3.635c0,1.286,0.727,2.41,1.818,3.057v18.16h4.243V96.106
				c1.092-0.647,1.819-1.771,1.819-3.058v-3.635C20.776,88.125,20.049,87.001,18.957,86.355z M28.656,97.267V78.501h-4.243v18.765
				c-1.092,0.646-1.819,1.77-1.819,3.055v3.638c0,1.286,0.728,2.41,1.819,3.057v7.249h4.243v-7.249
				c1.091-0.646,1.819-1.771,1.819-3.057v-3.638C30.475,99.037,29.747,97.914,28.656,97.267z M38.355,86.961v-8.46h-4.244v8.46
				c-1.091,0.646-1.819,1.771-1.819,3.056v3.638c0,1.285,0.728,2.408,1.819,3.055v17.555h4.244V96.71
				c1.091-0.646,1.818-1.77,1.818-3.055v-3.638C40.173,88.732,39.446,87.608,38.355,86.961z"/>
		</g>
	</g>
	<g>
		<path fill="#FFFFFF" d="M69.858,21.549c4.041,0,7.132,0.741,9.273,2.223c2.143,1.482,3.213,3.745,3.213,6.789
			c0,3.798-1.872,6.372-5.617,7.718c0.512,0.62,1.092,1.374,1.738,2.263s1.306,1.853,1.979,2.889c0.674,1.038,1.32,2.102,1.94,3.192
			c0.619,1.091,1.172,2.162,1.656,3.213h-5.697c-0.513-0.97-1.065-1.946-1.657-2.93c-0.593-0.983-1.192-1.94-1.798-2.869
			c-0.606-0.93-1.206-1.805-1.799-2.627c-0.593-0.821-1.146-1.556-1.657-2.202c-0.377,0.027-0.7,0.04-0.97,0.04s-0.525,0-0.768,0
			h-2.465v10.588H62.14V22.236c1.238-0.269,2.559-0.451,3.96-0.545C67.5,21.597,68.753,21.549,69.858,21.549z M70.222,25.954
			c-1.078,0-2.075,0.041-2.99,0.121v9.052h2.223c1.238,0,2.33-0.067,3.273-0.202c0.942-0.134,1.73-0.377,2.363-0.728
			c0.633-0.35,1.111-0.821,1.435-1.414c0.323-0.592,0.485-1.347,0.485-2.263c0-0.862-0.162-1.589-0.485-2.182
			c-0.323-0.592-0.787-1.064-1.394-1.415c-0.606-0.35-1.327-0.599-2.162-0.748C72.134,26.028,71.218,25.954,70.222,25.954z"/>
		<path fill="#FFFFFF" d="M88.002,49.837V21.832h17.983v4.324H93.094v6.91h11.477v4.243H93.094v8.204h13.861v4.324H88.002z"/>
		<path fill="#FFFFFF" d="M119.604,21.549c4.068,0,7.187,0.741,9.355,2.223c2.169,1.482,3.253,3.798,3.253,6.951
			c0,1.644-0.289,3.051-0.869,4.223c-0.578,1.172-1.42,2.129-2.525,2.869c-1.104,0.742-2.451,1.287-4.041,1.637
			c-1.59,0.351-3.408,0.525-5.455,0.525h-2.546v9.86h-5.092V22.236c1.185-0.269,2.498-0.451,3.939-0.545
			S118.392,21.549,119.604,21.549z M119.968,25.954c-1.293,0-2.357,0.041-3.192,0.121v9.537h2.465c2.451,0,4.337-0.344,5.657-1.031
			c1.32-0.687,1.98-1.986,1.98-3.899c0-0.916-0.176-1.684-0.525-2.303c-0.351-0.62-0.835-1.104-1.455-1.455
			c-0.62-0.35-1.354-0.599-2.202-0.748C121.847,26.028,120.938,25.954,119.968,25.954z"/>
		<path fill="#FFFFFF" d="M162.884,35.814c0,2.398-0.357,4.513-1.071,6.344c-0.714,1.833-1.684,3.361-2.909,4.587
			c-1.227,1.226-2.661,2.148-4.304,2.768c-1.644,0.619-3.395,0.929-5.254,0.929c-1.858,0-3.616-0.31-5.273-0.929
			c-1.657-0.62-3.099-1.542-4.324-2.768c-1.226-1.226-2.202-2.754-2.93-4.587c-0.728-1.832-1.091-3.946-1.091-6.344
			c0-2.397,0.363-4.506,1.091-6.324c0.728-1.819,1.718-3.347,2.971-4.587c1.253-1.239,2.7-2.168,4.344-2.788s3.381-0.93,5.213-0.93
			s3.569,0.31,5.213,0.93s3.078,1.549,4.304,2.788c1.226,1.24,2.203,2.768,2.931,4.587C162.52,31.309,162.884,33.417,162.884,35.814
			z M141.021,35.814c0,1.536,0.188,2.93,0.565,4.183c0.377,1.252,0.923,2.317,1.637,3.192s1.582,1.556,2.606,2.041
			c1.023,0.485,2.183,0.728,3.476,0.728c1.266,0,2.411-0.243,3.435-0.728s1.893-1.165,2.606-2.041s1.26-1.94,1.637-3.192
			c0.377-1.253,0.566-2.647,0.566-4.183s-0.189-2.93-0.566-4.183c-0.377-1.253-0.923-2.317-1.637-3.192s-1.583-1.556-2.606-2.041
			s-2.169-0.727-3.435-0.727c-1.293,0-2.452,0.242-3.476,0.727c-1.024,0.485-1.893,1.172-2.606,2.061s-1.26,1.954-1.637,3.192
			C141.21,32.892,141.021,34.279,141.021,35.814z"/>
		<path fill="#FFFFFF" d="M176.179,21.549c4.041,0,7.133,0.741,9.274,2.223c2.142,1.482,3.213,3.745,3.213,6.789
			c0,3.798-1.873,6.372-5.617,7.718c0.512,0.62,1.091,1.374,1.737,2.263c0.647,0.889,1.307,1.853,1.98,2.889
			c0.673,1.038,1.319,2.102,1.939,3.192c0.62,1.091,1.172,2.162,1.657,3.213h-5.698c-0.512-0.97-1.064-1.946-1.656-2.93
			c-0.593-0.983-1.192-1.94-1.799-2.869c-0.605-0.93-1.206-1.805-1.798-2.627c-0.593-0.821-1.146-1.556-1.657-2.202
			c-0.377,0.027-0.701,0.04-0.97,0.04c-0.27,0-0.525,0-0.768,0h-2.465v10.588h-5.092V22.236c1.238-0.269,2.559-0.451,3.96-0.545
			C173.821,21.597,175.074,21.549,176.179,21.549z M176.543,25.954c-1.078,0-2.075,0.041-2.99,0.121v9.052h2.223
			c1.238,0,2.329-0.067,3.272-0.202c0.943-0.134,1.731-0.377,2.364-0.728c0.633-0.35,1.111-0.821,1.435-1.414
			c0.323-0.592,0.485-1.347,0.485-2.263c0-0.862-0.162-1.589-0.485-2.182c-0.323-0.592-0.788-1.064-1.394-1.415
			c-0.606-0.35-1.328-0.599-2.162-0.748C178.455,26.028,177.539,25.954,176.543,25.954z"/>
		<path fill="#FFFFFF" d="M213.842,21.832v4.405h-8.608v23.6h-5.132v-23.6h-8.607v-4.405H213.842z"/>
		<path fill="#FFFFFF" d="M224.511,46.038c1.831,0,3.165-0.309,4-0.929c0.835-0.62,1.253-1.495,1.253-2.627
			c0-0.673-0.142-1.252-0.424-1.737c-0.283-0.485-0.688-0.923-1.213-1.313c-0.525-0.39-1.165-0.754-1.919-1.091
			c-0.755-0.336-1.617-0.667-2.587-0.99c-0.97-0.35-1.906-0.734-2.809-1.152c-0.902-0.417-1.697-0.936-2.384-1.556
			c-0.688-0.62-1.239-1.36-1.657-2.223c-0.418-0.862-0.626-1.899-0.626-3.112c0-2.532,0.875-4.519,2.627-5.96
			c1.75-1.441,4.135-2.162,7.152-2.162c1.751,0,3.307,0.196,4.667,0.586c1.36,0.391,2.432,0.815,3.213,1.273l-1.576,4.122
			c-0.916-0.512-1.919-0.902-3.011-1.172c-1.091-0.269-2.216-0.404-3.374-0.404c-1.374,0-2.444,0.283-3.213,0.849
			c-0.768,0.566-1.151,1.361-1.151,2.384c0,0.62,0.128,1.152,0.384,1.596s0.619,0.842,1.091,1.192
			c0.472,0.351,1.024,0.674,1.657,0.97c0.633,0.297,1.326,0.58,2.081,0.849c1.319,0.485,2.499,0.977,3.536,1.475
			s1.912,1.091,2.627,1.778c0.713,0.687,1.259,1.495,1.637,2.425c0.377,0.929,0.565,2.055,0.565,3.374
			c0,2.533-0.896,4.493-2.688,5.88c-1.792,1.388-4.411,2.081-7.859,2.081c-1.159,0-2.217-0.074-3.173-0.222
			c-0.956-0.148-1.805-0.33-2.546-0.545s-1.381-0.438-1.919-0.667c-0.54-0.229-0.971-0.438-1.294-0.626l1.496-4.163
			c0.727,0.404,1.71,0.808,2.949,1.212S222.759,46.038,224.511,46.038z"/>
	</g>
	<g>
		<path fill="#FFFFFF" d="M90.126,92.178c-1.046,0-1.937-0.159-2.671-0.477c-0.735-0.318-1.33-0.758-1.784-1.318
			c-0.455-0.561-0.784-1.216-0.989-1.966c-0.204-0.75-0.307-1.557-0.307-2.421v-9.911h1.546v9.707c0,0.864,0.102,1.61,0.307,2.239
			c0.204,0.629,0.488,1.148,0.853,1.557c0.363,0.409,0.803,0.712,1.318,0.909c0.515,0.197,1.091,0.296,1.728,0.296
			s1.212-0.099,1.728-0.296c0.515-0.197,0.954-0.5,1.318-0.909c0.363-0.409,0.647-0.928,0.853-1.557
			c0.204-0.628,0.307-1.375,0.307-2.239v-9.707h1.546v9.911c0,0.864-0.103,1.67-0.307,2.421c-0.205,0.75-0.534,1.406-0.989,1.966
			c-0.454,0.561-1.05,1-1.784,1.318C92.062,92.019,91.172,92.178,90.126,92.178z"/>
		<path fill="#FFFFFF" d="M102.219,90.792c0.849,0,1.549-0.14,2.103-0.421c0.553-0.28,0.83-0.753,0.83-1.42
			c0-0.318-0.05-0.591-0.148-0.818c-0.099-0.228-0.261-0.432-0.488-0.614c-0.228-0.182-0.527-0.356-0.898-0.523
			c-0.371-0.167-0.829-0.364-1.375-0.591c-0.439-0.182-0.856-0.367-1.25-0.557c-0.395-0.189-0.743-0.409-1.046-0.659
			s-0.545-0.549-0.728-0.898c-0.182-0.348-0.272-0.773-0.272-1.273c0-0.955,0.359-1.728,1.08-2.318
			c0.72-0.591,1.708-0.887,2.966-0.887c0.804,0,1.467,0.068,1.989,0.205c0.522,0.137,0.89,0.258,1.103,0.364l-0.341,1.318
			c-0.182-0.091-0.489-0.212-0.921-0.364c-0.432-0.151-1.064-0.227-1.898-0.227c-0.333,0-0.647,0.034-0.943,0.103
			c-0.295,0.068-0.557,0.175-0.784,0.319c-0.227,0.145-0.409,0.327-0.545,0.547c-0.137,0.22-0.205,0.489-0.205,0.808
			s0.061,0.593,0.183,0.82c0.121,0.228,0.299,0.429,0.534,0.604c0.234,0.175,0.522,0.337,0.863,0.488s0.731,0.317,1.171,0.498
			c0.454,0.181,0.89,0.366,1.307,0.554s0.784,0.416,1.103,0.681s0.576,0.583,0.773,0.955c0.196,0.372,0.295,0.837,0.295,1.398
			c0,1.061-0.397,1.864-1.193,2.41c-0.796,0.545-1.883,0.818-3.262,0.818c-1.031,0-1.818-0.087-2.364-0.262
			c-0.546-0.174-0.909-0.307-1.091-0.397l0.387-1.341c0.045,0.03,0.144,0.08,0.295,0.148c0.151,0.068,0.356,0.144,0.614,0.227
			c0.257,0.083,0.564,0.156,0.92,0.216C101.336,90.762,101.749,90.792,102.219,90.792z"/>
		<path fill="#FFFFFF" d="M108.833,85.95c0-1.031,0.148-1.928,0.443-2.694c0.296-0.765,0.683-1.405,1.159-1.921
			c0.478-0.515,1.023-0.898,1.637-1.148c0.614-0.25,1.247-0.375,1.898-0.375c1.439,0,2.588,0.47,3.443,1.41
			c0.856,0.939,1.285,2.387,1.285,4.341c0,0.122-0.004,0.243-0.012,0.364c-0.008,0.122-0.02,0.235-0.034,0.341h-8.251
			c0.045,1.44,0.401,2.546,1.068,3.319c0.666,0.773,1.728,1.159,3.182,1.159c0.804,0,1.439-0.076,1.91-0.227
			c0.469-0.151,0.811-0.28,1.022-0.387l0.272,1.273c-0.212,0.122-0.61,0.266-1.193,0.432s-1.27,0.25-2.057,0.25
			c-1.031,0-1.909-0.152-2.637-0.455s-1.326-0.728-1.796-1.273s-0.812-1.193-1.023-1.943
			C108.939,87.666,108.833,86.844,108.833,85.95z M117.176,85.018c-0.03-1.228-0.318-2.182-0.863-2.864
			c-0.546-0.682-1.319-1.023-2.319-1.023c-0.53,0-1.004,0.106-1.421,0.318c-0.416,0.212-0.78,0.497-1.091,0.853
			s-0.553,0.769-0.728,1.239c-0.174,0.47-0.276,0.962-0.307,1.478H117.176z"/>
		<path fill="#FFFFFF" d="M125.995,79.858c0.484,0,0.943,0.038,1.375,0.114c0.432,0.076,0.73,0.152,0.897,0.228l-0.295,1.273
			c-0.122-0.061-0.368-0.125-0.739-0.193s-0.86-0.103-1.466-0.103c-0.637,0-1.147,0.046-1.534,0.137s-0.641,0.167-0.762,0.227
			v10.297h-1.478V80.631c0.379-0.167,0.901-0.337,1.568-0.511S125.04,79.858,125.995,79.858z"/>
		<path fill="#FFFFFF" d="M148.271,83.95c0,1.349-0.212,2.523-0.637,3.523c-0.424,1-1.019,1.833-1.784,2.5s-1.679,1.167-2.739,1.5
			c-1.061,0.333-2.228,0.5-3.5,0.5c-0.637,0-1.304-0.034-2.001-0.102c-0.697-0.068-1.311-0.17-1.841-0.307V76.38
			c0.53-0.151,1.144-0.262,1.841-0.33c0.697-0.068,1.364-0.103,2.001-0.103c1.272,0,2.439,0.167,3.5,0.5
			c1.061,0.333,1.974,0.834,2.739,1.5c0.766,0.667,1.36,1.5,1.784,2.5C148.06,81.449,148.271,82.616,148.271,83.95z M137.315,90.474
			c0.091,0.015,0.321,0.045,0.693,0.091c0.371,0.045,0.966,0.068,1.784,0.068c1.137,0,2.129-0.155,2.978-0.466
			c0.849-0.31,1.561-0.753,2.137-1.33c0.576-0.576,1.008-1.276,1.296-2.103c0.288-0.826,0.432-1.754,0.432-2.785
			c0-1.03-0.144-1.955-0.432-2.773c-0.288-0.818-0.72-1.515-1.296-2.091c-0.576-0.576-1.288-1.019-2.137-1.33
			c-0.849-0.311-1.841-0.466-2.978-0.466c-0.818,0-1.413,0.022-1.784,0.068c-0.372,0.046-0.603,0.076-0.693,0.091V90.474z"/>
		<path fill="#FFFFFF" d="M150.931,85.95c0-1.031,0.148-1.928,0.443-2.694c0.296-0.765,0.682-1.405,1.159-1.921
			c0.478-0.515,1.023-0.898,1.637-1.148c0.614-0.25,1.246-0.375,1.898-0.375c1.439,0,2.587,0.47,3.443,1.41s1.284,2.387,1.284,4.341
			c0,0.122-0.004,0.243-0.011,0.364c-0.008,0.122-0.02,0.235-0.034,0.341h-8.252c0.046,1.44,0.401,2.546,1.068,3.319
			s1.728,1.159,3.183,1.159c0.803,0,1.439-0.076,1.909-0.227s0.811-0.28,1.023-0.387l0.272,1.273
			c-0.212,0.122-0.61,0.266-1.193,0.432c-0.584,0.167-1.27,0.25-2.057,0.25c-1.031,0-1.91-0.152-2.638-0.455
			c-0.727-0.303-1.326-0.728-1.795-1.273c-0.471-0.545-0.812-1.193-1.023-1.943C151.037,87.666,150.931,86.844,150.931,85.95z
			 M159.273,85.018c-0.031-1.228-0.318-2.182-0.864-2.864c-0.545-0.682-1.318-1.023-2.318-1.023c-0.53,0-1.004,0.106-1.421,0.318
			c-0.417,0.212-0.78,0.497-1.091,0.853s-0.554,0.769-0.728,1.239s-0.276,0.962-0.307,1.478H159.273z"/>
		<path fill="#FFFFFF" d="M168.411,74.198c0.637,0,1.155,0.049,1.558,0.147c0.401,0.099,0.662,0.186,0.784,0.262l-0.296,1.272
			c-0.167-0.075-0.413-0.155-0.738-0.238c-0.326-0.083-0.739-0.125-1.239-0.125c-1.046,0-1.792,0.265-2.239,0.795
			c-0.446,0.531-0.67,1.379-0.67,2.546v1.228h4.728v1.25h-4.728v10.502h-1.478V78.813c0-1.53,0.353-2.682,1.057-3.455
			C165.854,74.584,166.941,74.198,168.411,74.198z M174.458,76.54c0,0.349-0.106,0.625-0.318,0.83s-0.47,0.307-0.772,0.307
			c-0.304,0-0.562-0.102-0.773-0.307s-0.318-0.481-0.318-0.83s0.106-0.625,0.318-0.83s0.47-0.307,0.773-0.307
			c0.303,0,0.561,0.102,0.772,0.307S174.458,76.191,174.458,76.54z M174.117,91.837h-1.478V80.085h1.478V91.837z"/>
		<path fill="#FFFFFF" d="M178.026,80.495c0.439-0.121,1.03-0.258,1.772-0.409c0.743-0.151,1.652-0.228,2.729-0.228
			c0.894,0,1.64,0.129,2.238,0.387s1.076,0.625,1.433,1.103c0.355,0.477,0.609,1.049,0.762,1.716
			c0.15,0.667,0.227,1.402,0.227,2.205v6.569h-1.478v-6.092c0-0.833-0.057-1.538-0.17-2.114c-0.114-0.576-0.304-1.045-0.568-1.409
			c-0.266-0.364-0.614-0.625-1.046-0.784s-0.974-0.239-1.625-0.239c-0.697,0-1.3,0.038-1.808,0.114s-0.837,0.144-0.988,0.205v10.32
			h-1.478V80.495z"/>
		<path fill="#FFFFFF" d="M190.255,85.95c0-1.031,0.148-1.928,0.443-2.694c0.296-0.765,0.682-1.405,1.159-1.921
			c0.478-0.515,1.023-0.898,1.637-1.148c0.614-0.25,1.246-0.375,1.898-0.375c1.439,0,2.587,0.47,3.443,1.41s1.284,2.387,1.284,4.341
			c0,0.122-0.004,0.243-0.011,0.364c-0.008,0.122-0.02,0.235-0.034,0.341h-8.252c0.046,1.44,0.401,2.546,1.068,3.319
			s1.728,1.159,3.183,1.159c0.803,0,1.439-0.076,1.909-0.227s0.811-0.28,1.023-0.387l0.272,1.273
			c-0.212,0.122-0.61,0.266-1.193,0.432c-0.584,0.167-1.27,0.25-2.057,0.25c-1.031,0-1.91-0.152-2.638-0.455
			c-0.727-0.303-1.326-0.728-1.795-1.273c-0.471-0.545-0.812-1.193-1.023-1.943C190.361,87.666,190.255,86.844,190.255,85.95z
			 M198.598,85.018c-0.031-1.228-0.318-2.182-0.864-2.864c-0.545-0.682-1.318-1.023-2.318-1.023c-0.53,0-1.004,0.106-1.421,0.318
			c-0.417,0.212-0.78,0.497-1.091,0.853s-0.554,0.769-0.728,1.239s-0.276,0.962-0.307,1.478H198.598z"/>
		<path fill="#FFFFFF" d="M212.759,91.474c-0.44,0.152-1.001,0.295-1.683,0.432c-0.682,0.136-1.546,0.205-2.591,0.205
			c-0.864,0-1.648-0.141-2.354-0.421c-0.704-0.28-1.311-0.685-1.818-1.216c-0.508-0.53-0.901-1.174-1.182-1.932
			s-0.421-1.614-0.421-2.569c0-0.894,0.117-1.716,0.353-2.466c0.234-0.75,0.58-1.398,1.034-1.943
			c0.455-0.545,1.012-0.97,1.671-1.273s1.413-0.455,2.262-0.455c0.772,0,1.443,0.11,2.012,0.33s0.98,0.428,1.239,0.625v-6.319
			l1.478-0.272V91.474z M211.281,82.222c-0.137-0.106-0.308-0.22-0.512-0.341c-0.205-0.121-0.443-0.235-0.716-0.341
			c-0.273-0.105-0.568-0.193-0.887-0.261s-0.652-0.103-1-0.103c-0.728,0-1.338,0.129-1.83,0.387
			c-0.493,0.258-0.891,0.603-1.193,1.034c-0.304,0.432-0.523,0.94-0.659,1.523c-0.137,0.583-0.205,1.201-0.205,1.853
			c0,1.546,0.387,2.732,1.159,3.558c0.773,0.826,1.796,1.239,3.069,1.239c0.728,0,1.314-0.034,1.762-0.103
			c0.446-0.068,0.784-0.14,1.012-0.216V82.222z"/>
		<path fill="#FFFFFF" d="M75.328,112.295c-0.152-0.378-0.369-0.878-0.65-1.5c-0.282-0.621-0.598-1.299-0.948-2.034
			c-0.35-0.735-0.708-1.492-1.072-2.273c-0.366-0.78-0.716-1.512-1.051-2.193c-0.335-0.682-0.632-1.28-0.891-1.796
			c-0.259-0.515-0.449-0.878-0.57-1.091c-0.197,1.895-0.353,3.951-0.466,6.171c-0.114,2.221-0.216,4.551-0.308,6.99H67.85
			c0.137-2.864,0.292-5.606,0.466-8.229c0.174-2.622,0.39-5.129,0.648-7.524h1.363c0.455,0.758,0.941,1.633,1.458,2.625
			c0.516,0.993,1.028,2.023,1.537,3.092c0.509,1.068,1.002,2.122,1.48,3.16s0.899,1.974,1.264,2.807
			c0.365-0.833,0.786-1.769,1.265-2.807c0.478-1.038,0.972-2.092,1.48-3.16c0.509-1.068,1.021-2.099,1.537-3.092
			c0.517-0.992,1.002-1.867,1.458-2.625h1.296c0.257,2.395,0.473,4.903,0.647,7.524c0.174,2.622,0.33,5.364,0.466,8.229h-1.568
			c-0.091-2.439-0.193-4.77-0.307-6.99c-0.114-2.22-0.27-4.276-0.466-6.171c-0.122,0.212-0.312,0.576-0.568,1.091
			c-0.258,0.516-0.554,1.114-0.887,1.796c-0.334,0.682-0.682,1.413-1.046,2.193c-0.363,0.781-0.72,1.538-1.068,2.273
			s-0.663,1.413-0.943,2.034c-0.28,0.622-0.496,1.122-0.647,1.5H75.328z"/>
		<path fill="#FFFFFF" d="M89.626,99.271c0,0.349-0.106,0.625-0.318,0.83c-0.213,0.205-0.47,0.307-0.773,0.307
			c-0.303,0-0.561-0.102-0.772-0.307s-0.318-0.481-0.318-0.83s0.106-0.625,0.318-0.83s0.47-0.307,0.772-0.307
			c0.304,0,0.561,0.102,0.773,0.307C89.52,98.646,89.626,98.922,89.626,99.271z M89.285,114.569h-1.478v-11.752h1.478V114.569z"/>
		<path fill="#FFFFFF" d="M93.194,103.226c0.439-0.121,1.03-0.258,1.773-0.409c0.742-0.151,1.651-0.228,2.728-0.228
			c0.894,0,1.64,0.129,2.239,0.387c0.598,0.258,1.075,0.625,1.432,1.103c0.355,0.477,0.609,1.05,0.762,1.716
			c0.151,0.667,0.228,1.402,0.228,2.205v6.569h-1.478v-6.092c0-0.833-0.058-1.538-0.171-2.114c-0.113-0.575-0.304-1.045-0.568-1.409
			c-0.266-0.364-0.613-0.625-1.046-0.784c-0.432-0.159-0.974-0.239-1.625-0.239c-0.697,0-1.3,0.038-1.807,0.114
			c-0.509,0.076-0.838,0.144-0.989,0.205v10.32h-1.478V103.226z"/>
		<path fill="#FFFFFF" d="M107.947,99.271c0,0.349-0.106,0.625-0.318,0.83c-0.213,0.205-0.47,0.307-0.773,0.307
			c-0.303,0-0.561-0.102-0.772-0.307s-0.318-0.481-0.318-0.83s0.106-0.625,0.318-0.83s0.47-0.307,0.772-0.307
			c0.304,0,0.561,0.102,0.773,0.307C107.841,98.646,107.947,98.922,107.947,99.271z M107.606,114.569h-1.478v-11.752h1.478V114.569z
			"/>
		<path fill="#FFFFFF" d="M111.516,103.226c0.439-0.121,1.012-0.258,1.716-0.409c0.705-0.151,1.618-0.228,2.739-0.228
			c1.485,0,2.562,0.432,3.229,1.296c0.075-0.061,0.223-0.163,0.442-0.307c0.22-0.144,0.497-0.292,0.83-0.443s0.724-0.28,1.171-0.387
			c0.446-0.106,0.943-0.159,1.488-0.159c0.895,0,1.618,0.133,2.171,0.398c0.554,0.265,0.981,0.637,1.285,1.114
			c0.303,0.478,0.507,1.05,0.613,1.716c0.105,0.667,0.159,1.395,0.159,2.183v6.569h-1.478v-6.092c0-0.773-0.034-1.443-0.103-2.012
			s-0.204-1.038-0.409-1.409c-0.204-0.372-0.496-0.652-0.875-0.841s-0.871-0.284-1.478-0.284c-0.454,0-0.867,0.042-1.239,0.125
			c-0.371,0.083-0.692,0.186-0.966,0.307c-0.272,0.121-0.496,0.242-0.67,0.363c-0.175,0.121-0.3,0.213-0.376,0.273
			c0.137,0.394,0.239,0.837,0.308,1.329c0.068,0.493,0.102,1.012,0.102,1.558v6.683h-1.478v-6.092c0-0.773-0.033-1.443-0.102-2.012
			s-0.209-1.038-0.421-1.409c-0.212-0.372-0.512-0.652-0.897-0.841c-0.387-0.189-0.898-0.284-1.534-0.284
			c-0.713,0-1.315,0.038-1.808,0.114s-0.807,0.144-0.943,0.205v10.32h-1.478V103.226z"/>
		<path fill="#FFFFFF" d="M140.157,114.16c-0.44,0.121-1.031,0.258-1.773,0.409s-1.651,0.228-2.728,0.228
			c-0.879,0-1.614-0.129-2.205-0.387s-1.068-0.621-1.432-1.091c-0.364-0.47-0.626-1.038-0.784-1.705
			c-0.159-0.667-0.239-1.401-0.239-2.205v-6.592h1.478v6.114c0,0.834,0.061,1.539,0.182,2.114c0.121,0.576,0.318,1.042,0.592,1.398
			c0.272,0.355,0.625,0.613,1.057,0.772s0.958,0.238,1.58,0.238c0.696,0,1.303-0.037,1.818-0.113
			c0.515-0.075,0.841-0.144,0.978-0.204v-10.32h1.478V114.16z"/>
		<path fill="#FFFFFF" d="M144.066,103.226c0.439-0.121,1.012-0.258,1.716-0.409c0.705-0.151,1.617-0.228,2.739-0.228
			c1.485,0,2.561,0.432,3.228,1.296c0.076-0.061,0.224-0.163,0.443-0.307c0.22-0.144,0.496-0.292,0.83-0.443
			c0.333-0.151,0.724-0.28,1.171-0.387c0.446-0.106,0.943-0.159,1.488-0.159c0.895,0,1.617,0.133,2.171,0.398
			c0.553,0.265,0.981,0.637,1.284,1.114c0.303,0.478,0.508,1.05,0.614,1.716c0.105,0.667,0.159,1.395,0.159,2.183v6.569h-1.478
			v-6.092c0-0.773-0.034-1.443-0.103-2.012s-0.205-1.038-0.409-1.409c-0.205-0.372-0.496-0.652-0.875-0.841
			s-0.872-0.284-1.478-0.284c-0.455,0-0.868,0.042-1.239,0.125c-0.371,0.083-0.693,0.186-0.966,0.307
			c-0.272,0.121-0.496,0.242-0.671,0.363c-0.174,0.121-0.299,0.213-0.375,0.273c0.137,0.394,0.239,0.837,0.307,1.329
			c0.068,0.493,0.103,1.012,0.103,1.558v6.683h-1.478v-6.092c0-0.773-0.034-1.443-0.103-2.012c-0.067-0.568-0.208-1.038-0.42-1.409
			c-0.213-0.372-0.512-0.652-0.898-0.841c-0.386-0.189-0.897-0.284-1.534-0.284c-0.712,0-1.314,0.038-1.807,0.114
			c-0.493,0.076-0.808,0.144-0.943,0.205v10.32h-1.478V103.226z"/>
		<path fill="#FFFFFF" d="M179.687,114.569c-0.293-0.527-0.66-1.149-1.102-1.865s-0.932-1.477-1.471-2.28
			c-0.54-0.805-1.104-1.637-1.69-2.495c-0.587-0.859-1.171-1.694-1.753-2.507c-0.582-0.812-1.151-1.572-1.708-2.282
			c-0.557-0.709-1.051-1.323-1.483-1.839v13.269h-1.522V98.816h1.228c0.773,0.863,1.603,1.861,2.486,2.992s1.75,2.284,2.599,3.458
			c0.85,1.174,1.643,2.321,2.378,3.442c0.736,1.12,1.34,2.097,1.812,2.929v-12.82h1.522v15.753H179.687z"/>
		<path fill="#FFFFFF" d="M184.277,108.681c0-1.03,0.148-1.928,0.443-2.693c0.296-0.766,0.682-1.405,1.159-1.921
			c0.478-0.515,1.023-0.898,1.637-1.148c0.614-0.25,1.246-0.375,1.898-0.375c1.439,0,2.587,0.47,3.443,1.41s1.284,2.387,1.284,4.342
			c0,0.121-0.004,0.242-0.011,0.363c-0.008,0.121-0.02,0.235-0.034,0.341h-8.252c0.046,1.44,0.401,2.546,1.068,3.319
			c0.667,0.772,1.728,1.159,3.183,1.159c0.803,0,1.439-0.076,1.909-0.228s0.811-0.28,1.023-0.387l0.272,1.273
			c-0.212,0.121-0.61,0.265-1.193,0.432c-0.584,0.167-1.27,0.25-2.057,0.25c-1.031,0-1.91-0.151-2.638-0.454
			c-0.727-0.304-1.326-0.728-1.795-1.273c-0.471-0.546-0.812-1.193-1.023-1.943S184.277,109.576,184.277,108.681z M192.62,107.75
			c-0.031-1.228-0.318-2.182-0.864-2.864c-0.545-0.682-1.318-1.023-2.318-1.023c-0.53,0-1.004,0.106-1.421,0.318
			c-0.417,0.212-0.78,0.497-1.091,0.852c-0.311,0.356-0.554,0.77-0.728,1.239s-0.276,0.963-0.307,1.478H192.62z"/>
		<path fill="#FFFFFF" d="M196.733,108.681c0-1.03,0.148-1.928,0.443-2.693c0.296-0.766,0.682-1.405,1.159-1.921
			c0.478-0.515,1.023-0.898,1.637-1.148c0.614-0.25,1.246-0.375,1.898-0.375c1.439,0,2.587,0.47,3.443,1.41s1.284,2.387,1.284,4.342
			c0,0.121-0.004,0.242-0.011,0.363c-0.008,0.121-0.02,0.235-0.034,0.341h-8.252c0.046,1.44,0.401,2.546,1.068,3.319
			c0.667,0.772,1.728,1.159,3.183,1.159c0.803,0,1.439-0.076,1.909-0.228s0.811-0.28,1.023-0.387l0.272,1.273
			c-0.212,0.121-0.61,0.265-1.193,0.432c-0.584,0.167-1.27,0.25-2.057,0.25c-1.031,0-1.91-0.151-2.638-0.454
			c-0.727-0.304-1.326-0.728-1.795-1.273c-0.471-0.546-0.812-1.193-1.023-1.943S196.733,109.576,196.733,108.681z M205.076,107.75
			c-0.031-1.228-0.318-2.182-0.864-2.864c-0.545-0.682-1.318-1.023-2.318-1.023c-0.53,0-1.004,0.106-1.421,0.318
			c-0.417,0.212-0.78,0.497-1.091,0.852c-0.311,0.356-0.554,0.77-0.728,1.239s-0.276,0.963-0.307,1.478H205.076z"/>
		<path fill="#FFFFFF" d="M219.238,114.206c-0.44,0.151-1.001,0.295-1.683,0.432c-0.682,0.136-1.546,0.204-2.591,0.204
			c-0.864,0-1.648-0.14-2.354-0.42c-0.704-0.28-1.311-0.686-1.818-1.217c-0.508-0.53-0.901-1.174-1.182-1.932
			s-0.421-1.614-0.421-2.568c0-0.895,0.117-1.717,0.353-2.467c0.234-0.75,0.58-1.398,1.034-1.943
			c0.455-0.545,1.012-0.97,1.671-1.273s1.413-0.455,2.262-0.455c0.772,0,1.443,0.11,2.012,0.33s0.98,0.428,1.239,0.625v-6.319
			l1.478-0.272V114.206z M217.761,104.954c-0.137-0.106-0.308-0.22-0.512-0.341c-0.205-0.121-0.443-0.235-0.716-0.341
			c-0.273-0.105-0.568-0.193-0.887-0.261s-0.652-0.103-1-0.103c-0.728,0-1.338,0.129-1.83,0.387
			c-0.493,0.258-0.891,0.603-1.193,1.034c-0.304,0.432-0.523,0.939-0.659,1.523c-0.137,0.583-0.205,1.201-0.205,1.853
			c0,1.545,0.387,2.731,1.159,3.557c0.773,0.826,1.796,1.239,3.069,1.239c0.728,0,1.314-0.034,1.762-0.103
			c0.446-0.068,0.784-0.14,1.012-0.216V104.954z"/>
		<path fill="#FFFFFF" d="M225.557,113.523c0.849,0,1.55-0.14,2.103-0.42c0.554-0.28,0.83-0.754,0.83-1.421
			c0-0.318-0.05-0.591-0.147-0.818c-0.1-0.228-0.262-0.432-0.489-0.614c-0.228-0.182-0.526-0.355-0.897-0.522
			c-0.372-0.167-0.83-0.363-1.376-0.591c-0.439-0.182-0.855-0.367-1.25-0.557s-0.742-0.409-1.046-0.659
			c-0.303-0.25-0.545-0.55-0.727-0.898c-0.183-0.349-0.273-0.772-0.273-1.272c0-0.955,0.36-1.728,1.08-2.319
			c0.72-0.591,1.708-0.887,2.967-0.887c0.803,0,1.466,0.068,1.988,0.205c0.523,0.137,0.891,0.258,1.103,0.364l-0.341,1.318
			c-0.182-0.091-0.488-0.212-0.921-0.364c-0.432-0.151-1.064-0.227-1.897-0.227c-0.334,0-0.648,0.034-0.943,0.103
			c-0.296,0.068-0.558,0.175-0.784,0.319c-0.228,0.145-0.409,0.327-0.546,0.547c-0.137,0.221-0.204,0.489-0.204,0.809
			c0,0.318,0.06,0.592,0.182,0.819c0.121,0.229,0.299,0.43,0.534,0.604c0.234,0.175,0.522,0.337,0.863,0.487
			c0.341,0.151,0.731,0.317,1.171,0.498c0.455,0.182,0.89,0.366,1.307,0.555s0.784,0.416,1.103,0.681
			c0.318,0.266,0.576,0.583,0.773,0.955c0.196,0.371,0.295,0.837,0.295,1.397c0,1.061-0.397,1.864-1.193,2.409
			c-0.795,0.546-1.883,0.818-3.262,0.818c-1.03,0-1.818-0.087-2.364-0.261c-0.545-0.175-0.909-0.308-1.091-0.398l0.387-1.341
			c0.045,0.03,0.144,0.079,0.295,0.147s0.356,0.145,0.614,0.228c0.258,0.084,0.564,0.155,0.921,0.216
			C224.674,113.493,225.087,113.523,225.557,113.523z"/>
	</g>
</g>
</svg>
