<?xml version="1.0" encoding="utf-8"?>
<!-- Generator: Adobe Illustrator 16.0.0, SVG Export Plug-In . SVG Version: 6.00 Build 0)  -->
<!DOCTYPE svg PUBLIC "-//W3C//DTD SVG 1.1//EN" "http://www.w3.org/Graphics/SVG/1.1/DTD/svg11.dtd">
<svg version="1.1" id="Layer_1" xmlns="http://www.w3.org/2000/svg" xmlns:xlink="http://www.w3.org/1999/xlink" x="0px" y="0px"
	 width="69.5px" height="68.137px" viewBox="0 0 69.5 68.137" enable-background="new 0 0 69.5 68.137" xml:space="preserve">
<g>
	<circle fill-rule="evenodd" clip-rule="evenodd" fill="#FFFFFF" cx="34.568" cy="34.068" r="33.475"/>
	<path fill-rule="evenodd" clip-rule="evenodd" fill="#2F3539" d="M34.568,59.155c-13.833,0-25.088-11.253-25.088-25.086
		c0-13.833,11.255-25.087,25.088-25.087s25.087,11.254,25.087,25.087C59.655,47.902,48.401,59.155,34.568,59.155z"/>
	<path fill-rule="evenodd" clip-rule="evenodd" fill="#FFFFFF" d="M49.101,45.573c-2.855-8.524-5.71-17.045-8.565-25.567
		c0.46,0,0.688,0,1.145,0c3.506,8.521,7.011,17.042,10.516,25.567C51.163,45.573,50.132,45.573,49.101,45.573z M37.146,45.573
		c-0.028-0.708-0.058-1.415-0.086-2.121c-1.035,0-2.069,0-3.104,0c-0.028,0.706-0.058,1.413-0.083,2.121c-3.031,0-6.063,0-9.094,0
		c2.253-8.524,4.508-17.045,6.762-25.567c1.121,0,2.242,0,3.363,0c-0.028,0.707-0.058,1.415-0.087,2.121c0.552,0,0.83,0,1.382,0
		c-0.029-0.707-0.059-1.415-0.084-2.121c1.118,0,2.239,0,3.36,0c2.254,8.521,4.508,17.042,6.762,25.567
		C43.205,45.573,40.175,45.573,37.146,45.573z M36.328,25.303c-0.546,0-1.093,0-1.639,0c-0.081,1.966-0.158,3.932-0.24,5.898
		c0.705,0,1.411,0,2.116,0C36.483,29.234,36.407,27.269,36.328,25.303z M36.691,34.376c-0.788,0-1.58,0-2.369,0
		c-0.078,1.967-0.159,3.933-0.237,5.899c0.948,0,1.896,0,2.847,0C36.851,38.309,36.772,36.343,36.691,34.376z M18.818,45.573
		c3.506-8.524,7.011-17.045,10.517-25.567c0.456,0,0.688,0,1.145,0c-2.854,8.521-5.711,17.042-8.565,25.567
		C20.883,45.573,19.852,45.573,18.818,45.573z"/>
</g>
</svg>
