<?xml version="1.0" encoding="utf-8"?>
<!-- Generator: Adobe Illustrator 16.0.0, SVG Export Plug-In . SVG Version: 6.00 Build 0)  -->
<!DOCTYPE svg PUBLIC "-//W3C//DTD SVG 1.1//EN" "http://www.w3.org/Graphics/SVG/1.1/DTD/svg11.dtd">
<svg version="1.1" id="Layer_1" xmlns="http://www.w3.org/2000/svg" xmlns:xlink="http://www.w3.org/1999/xlink" x="0px" y="0px"
	 width="68.031px" height="68.137px" viewBox="0 0 68.031 68.137" enable-background="new 0 0 68.031 68.137" xml:space="preserve">
<g>
	<circle fill-rule="evenodd" clip-rule="evenodd" fill="#FFFFFF" cx="33.41" cy="34.727" r="33.41"/>
	<path fill-rule="evenodd" clip-rule="evenodd" fill="#2F3539" d="M33.41,59.764c-13.806,0-25.037-11.231-25.037-25.037
		S19.604,9.69,33.41,9.69c13.807,0,25.037,11.231,25.037,25.037S47.217,59.764,33.41,59.764z"/>
	<path fill-rule="evenodd" clip-rule="evenodd" fill="#FFFFFF" d="M50.286,27.431c-0.147,0.141-0.335,0.21-0.525,0.21
		c-0.198,0-0.397-0.078-0.545-0.231c-0.292-0.296-0.283-0.775,0.021-1.064l4.605-4.404c0.3-0.289,0.781-0.279,1.073,0.02
		c0.288,0.3,0.279,0.776-0.021,1.065L50.286,27.431z M54.006,27.994c0.301-0.292,0.778-0.287,1.07,0.01
		c0.295,0.298,0.289,0.773-0.013,1.064l-4.771,4.626c-0.147,0.145-0.341,0.213-0.531,0.213c-0.196,0-0.396-0.074-0.542-0.225
		c-0.295-0.297-0.286-0.773,0.011-1.064L54.006,27.994z M41.615,29.767c-0.149,0.147-0.343,0.223-0.535,0.223
		c-0.193,0-0.39-0.076-0.537-0.223c-0.297-0.293-0.297-0.77,0-1.064l6.227-6.177c0.295-0.292,0.775-0.292,1.07,0
		c0.298,0.294,0.298,0.77,0,1.064L41.615,29.767z M37.385,23.03c-0.149,0.153-0.347,0.227-0.545,0.227
		c-0.189,0-0.381-0.068-0.528-0.213c-0.299-0.289-0.305-0.765-0.015-1.061l3.658-3.741c0.291-0.297,0.769-0.306,1.072-0.018
		c0.301,0.292,0.306,0.767,0.015,1.064L37.385,23.03z M39.736,25.005c0.287,0.3,0.279,0.775-0.021,1.065l-3.101,2.965
		c-0.147,0.141-0.338,0.21-0.525,0.21c-0.198,0-0.397-0.078-0.545-0.23c-0.292-0.3-0.282-0.776,0.018-1.064l3.1-2.965
		C38.966,24.696,39.443,24.705,39.736,25.005z M44.878,33.222c-0.144,0.132-0.328,0.199-0.514,0.199
		c-0.205,0-0.406-0.081-0.557-0.242c-0.285-0.306-0.265-0.782,0.043-1.064l2.15-1.967c0.307-0.28,0.786-0.263,1.072,0.043
		c0.282,0.306,0.262,0.783-0.044,1.064L44.878,33.222z M52.135,40.196c0.04,0.259-0.044,0.524-0.231,0.714l-1.108,1.119
		c-0.16,0.164-0.379,0.251-0.604,0.251c-0.105,0-0.214-0.021-0.316-0.061l-3.364-1.347v15.946c0,0.491-0.4,0.886-0.894,0.886h-2.123
		c-0.496,0-0.894-0.395-0.894-0.886v-16.99l-7.843-0.938l-7.95,0.936v16.992c0,0.491-0.397,0.886-0.892,0.886h-2.126
		c-0.493,0-0.894-0.395-0.894-0.886V40.894l-3.248,1.3c-0.313,0.126-0.676,0.055-0.914-0.185l-1.101-1.093
		c-0.19-0.19-0.281-0.456-0.24-0.718c0.04-0.262,0.202-0.494,0.438-0.616l16.534-8.751c0.247-0.132,0.549-0.132,0.8,0l16.531,8.751
		C51.932,39.705,52.094,39.933,52.135,40.196z M27.33,31.107c-0.146,0.148-0.339,0.22-0.535,0.22c-0.193,0-0.386-0.072-0.535-0.22
		c-0.296-0.293-0.296-0.769,0-1.063l6.225-6.178c0.298-0.294,0.776-0.294,1.073,0c0.298,0.294,0.298,0.77,0,1.064L27.33,31.107z
		 M24.614,26.326c-0.149,0.147-0.343,0.22-0.536,0.22c-0.197,0-0.391-0.072-0.537-0.22c-0.297-0.294-0.297-0.77,0-1.064l6.227-6.178
		c0.295-0.294,0.776-0.294,1.07,0c0.297,0.294,0.297,0.771,0,1.064L24.614,26.326z M16.188,28.674
		c-0.151,0.147-0.344,0.222-0.537,0.222c-0.196,0-0.389-0.075-0.537-0.222c-0.296-0.294-0.296-0.77,0-1.064l6.228-6.178
		c0.294-0.294,0.775-0.294,1.07,0c0.297,0.294,0.297,0.77,0,1.064L16.188,28.674z M20.003,29.412c0.294-0.294,0.775-0.294,1.069,0
		c0.297,0.295,0.297,0.77,0,1.064l-4.885,4.848c-0.147,0.147-0.342,0.22-0.537,0.22c-0.193,0-0.387-0.072-0.533-0.22
		c-0.298-0.293-0.298-0.77,0-1.064L20.003,29.412z"/>
</g>
</svg>
