<?xml version="1.0" encoding="utf-8"?>
<!-- Generator: Adobe Illustrator 16.0.0, SVG Export Plug-In . SVG Version: 6.00 Build 0)  -->
<!DOCTYPE svg PUBLIC "-//W3C//DTD SVG 1.1//EN" "http://www.w3.org/Graphics/SVG/1.1/DTD/svg11.dtd">
<svg version="1.1" id="Layer_1" xmlns="http://www.w3.org/2000/svg" xmlns:xlink="http://www.w3.org/1999/xlink" x="0px" y="0px"
	 width="68.247px" height="68.137px" viewBox="0 0 68.247 68.137" enable-background="new 0 0 68.247 68.137" xml:space="preserve">
<g>
	<circle fill-rule="evenodd" clip-rule="evenodd" fill="#FFFFFF" cx="34.647" cy="34.537" r="33.6"/>
	<path fill-rule="evenodd" clip-rule="evenodd" fill="#2F3539" d="M34.646,59.718c-13.885,0-25.18-11.296-25.18-25.181
		c0-13.885,11.295-25.181,25.18-25.181c13.886,0,25.181,11.296,25.181,25.181C59.827,48.422,48.532,59.718,34.646,59.718z"/>
	<g>
		<g>
			<path fill="#FFFFFF" d="M23.418,31.339c1.317,0,2.521-0.484,3.452-1.282c0.708,0.349,1.5,0.551,2.338,0.551
				c0.094,0,0.181-0.01,0.273-0.015c0.988,2.876,4.438,12.882,4.42,12.541c-0.015-0.399,0.464-8.635,0.464-8.635l0.818,8.864
				c0,0,2.188-8.268,3.498-13.254c0.989-0.461,1.815-1.219,2.363-2.164c0.981,1.18,2.448,1.93,4.091,1.93
				c2.949,0,5.339-2.417,5.339-5.395c0-2.979-2.39-5.396-5.339-5.396c-0.224,0-0.44,0.019-0.658,0.047
				c-0.81-1.239-2.196-2.058-3.776-2.058c-0.563,0-1.101,0.108-1.596,0.298c-0.98-1.188-2.454-1.943-4.104-1.943
				c-1.451,0-2.765,0.584-3.727,1.533c-0.813-0.505-1.765-0.802-2.791-0.802c-2.611,0-4.78,1.896-5.245,4.399
				c-2.862,0.096-5.156,2.465-5.156,5.386C18.082,28.924,20.472,31.339,23.418,31.339z M51.178,56.79
				c-5.663-4.664-8.891-9.022-8.891-9.022l-1.784,1.097l-3.573-4.727c-0.598,0.233-1.247,0.368-1.926,0.368
				c-0.696,0-1.357-0.138-1.967-0.381l-3.376,4.618l-1.349-1.646c0,0-3.85,4.439-10.196,9.753c-2.987,2.503-0.127,3.475-3.208,4.206
				l37.745,1.018C52.653,62.073,55.012,59.948,51.178,56.79z"/>
		</g>
	</g>
</g>
</svg>
