<?xml version="1.0" encoding="utf-8"?>
<!-- Generator: Adobe Illustrator 16.0.0, SVG Export Plug-In . SVG Version: 6.00 Build 0)  -->
<!DOCTYPE svg PUBLIC "-//W3C//DTD SVG 1.1//EN" "http://www.w3.org/Graphics/SVG/1.1/DTD/svg11.dtd">
<svg version="1.1" id="Layer_1" xmlns="http://www.w3.org/2000/svg" xmlns:xlink="http://www.w3.org/1999/xlink" x="0px" y="0px"
	 width="67.992px" height="68.137px" viewBox="0 0 67.992 68.137" enable-background="new 0 0 67.992 68.137" xml:space="preserve">
<g>
	<path fill-rule="evenodd" clip-rule="evenodd" fill="#FFFFFF" d="M67.992,34.762c0,18.433-14.945,33.375-33.375,33.375
		c-18.433,0-33.376-14.942-33.376-33.375c0-18.432,14.943-33.375,33.376-33.375C53.046,1.387,67.992,16.33,67.992,34.762z"/>
	<path fill-rule="evenodd" clip-rule="evenodd" fill="#2F3539" d="M34.617,59.777c-13.794,0-25.014-11.223-25.014-25.015
		S20.823,9.749,34.617,9.749c13.79,0,25.011,11.221,25.011,25.013S48.407,59.777,34.617,59.777z"/>
	<g>
		<ellipse fill="#FFFFFF" cx="42.745" cy="40.662" rx="1.415" ry="1.167"/>
		<ellipse fill="#FFFFFF" cx="48.458" cy="45.456" rx="2.212" ry="1.965"/>
		<path fill="#FFFFFF" d="M45.861,56.329c-9.031-6.41-14.183-12.396-14.183-12.396l-2.85,1.507l-5.705-6.495
			c-0.953,0.321-1.991,0.508-3.076,0.508c-1.108,0-2.164-0.19-3.137-0.524l-6.56,6.466l4.425,10.084l15.666,7.697L48.22,63.59
			C48.22,63.59,51.99,60.669,45.861,56.329z"/>
		<path fill="#FFFFFF" d="M24.364,11.308l0.001-0.009l-8.115-0.796l3.199,27.159l2.045-10.972l0.313,10.797l4.646-27.461
			c-0.203-0.605-0.048,1.292-0.135,0.626L24.364,11.308z"/>
		<path fill="#FFFFFF" d="M49.075,39.926c0-0.341-0.276-0.617-0.617-0.617c-0.337,0-0.61,0.276-0.61,0.617
			c0,0.339,0.273,0.612,0.61,0.612C48.798,40.538,49.075,40.265,49.075,39.926z"/>
		<path fill="#FFFFFF" d="M55.96,18.657c0-2.53-1.511-4.7-3.706-5.8c-0.08-3.563-3.117-6.431-6.867-6.431
			c-2.715,0-5.037,1.514-6.16,3.693c-0.691-0.224-1.424-0.375-2.2-0.375c-0.372,0-0.733,0.051-1.094,0.105
			c-0.532-3.123-3.351-5.513-6.772-5.513c-3.801,0-6.884,2.944-6.884,6.576c0,0.356,0.053,0.697,0.109,1.038l0.013,0.683
			l0.404,0.798c0.281,0.645,0.685,1.221,1.153,1.743c-0.664,1.013-1.064,2.2-1.064,3.482c0,3.113,2.27,5.706,5.31,6.388
			c0.046,1.213,0.545,2.338,1.384,3.299c-0.016,0.173-0.057,0.34-0.057,0.517c0,3.293,2.863,5.965,6.396,5.965
			c1.589,0,3.03-0.565,4.148-1.464c1.204,1.625,3.2,2.691,5.468,2.691c3.683,0,6.667-2.807,6.667-6.269
			c0-1.848-0.864-3.491-2.216-4.637C53.356,24.713,55.96,21.989,55.96,18.657z"/>
	</g>
</g>
</svg>
