<?xml version="1.0" encoding="utf-8"?>
<!-- Generator: Adobe Illustrator 16.0.0, SVG Export Plug-In . SVG Version: 6.00 Build 0)  -->
<!DOCTYPE svg PUBLIC "-//W3C//DTD SVG 1.1//EN" "http://www.w3.org/Graphics/SVG/1.1/DTD/svg11.dtd">
<svg version="1.1" id="Layer_1" xmlns="http://www.w3.org/2000/svg" xmlns:xlink="http://www.w3.org/1999/xlink" x="0px" y="0px"
	 width="67.971px" height="68.137px" viewBox="0 0 67.971 68.137" enable-background="new 0 0 67.971 68.137" xml:space="preserve">
<g>
	<circle fill-rule="evenodd" clip-rule="evenodd" fill="#FFFFFF" cx="33.41" cy="34.727" r="33.41"/>
	<path fill-rule="evenodd" clip-rule="evenodd" fill="#2F3539" d="M33.409,59.764c-13.806,0-25.039-11.231-25.039-25.037
		S19.604,9.69,33.409,9.69c13.807,0,25.041,11.231,25.041,25.037S47.216,59.764,33.409,59.764z"/>
	<path fill-rule="evenodd" clip-rule="evenodd" fill="#FFFFFF" d="M52.167,36.44c-0.754,1.007-8.604,10.899-9.617,11.067
		c-1.014,0.171-16.035-0.334-16.71,0c-0.677,0.337-4.559,4.528-4.559,4.528l-6.583-8.046l9.113-9.559h12.153
		c0.594,0.084,1.52,1.258,1.52,2.516c0,1.257-0.083,1.675-1.52,2.01c0.087,0-5.378-0.209-5.57,0c-0.43,0.475-0.17,2.013,0.506,2.013
		c0.678,0,9.708,0.333,10.128,0c0.422-0.335,7.693-8.07,7.693-8.07S52.929,35.436,52.167,36.44z M39.005,32.922
		c-2.342,0.061-4.456-1.243-4.558-4.026c-0.074-2.074,4.351-9.465,4.351-9.465s4.244,7.507,4.256,9.465
		C43.068,31.148,41.348,32.858,39.005,32.922z"/>
</g>
</svg>
