<?xml version="1.0" encoding="utf-8"?>
<!-- Generator: Adobe Illustrator 16.0.0, SVG Export Plug-In . SVG Version: 6.00 Build 0)  -->
<!DOCTYPE svg PUBLIC "-//W3C//DTD SVG 1.1//EN" "http://www.w3.org/Graphics/SVG/1.1/DTD/svg11.dtd">
<svg version="1.1" id="Layer_1" xmlns="http://www.w3.org/2000/svg" xmlns:xlink="http://www.w3.org/1999/xlink" x="0px" y="0px"
	 width="1351px" height="68.137px" viewBox="0 0 1351 68.137" enable-background="new 0 0 1351 68.137" xml:space="preserve">
<path fill="#EE7B39" d="M1351,68V35.958c-15.474-9.436-26.521-22.263-55.105-22.263c-45.218,0-45.022,32.101-90.239,32.101
	c-44.843,0-49.702-31.555-95.017-32.076c-0.122-0.001-0.173-0.025-0.297-0.025c-0.131,0-0.535,0.009-0.669,0.009
	c-0.129,0-0.673-0.009-0.673-0.009v0.018c-45,0.371-43.26,32.083-90.515,32.083c-47.538,0-52.017-32.101-94.915-32.101
	c-42.902,0-43.983,32.101-90.359,32.101c-46.379,0-47.498-32.101-92.715-32.101s-45.195,32.101-90.415,32.101
	c-45.218,0-49.845-32.101-96.225-32.101c-45.22,0-44.054,32.101-91.59,32.101c-47.537,0-52.166-32.101-95.071-32.101
	c-42.895,0-44.055,32.101-90.43,32.101c-46.376,0-47.537-32.101-92.753-32.101c-45.217,0-45.494,32.101-90.716,32.101
	C49.155,45.796,44.042,15.217,0,13.767V68H1351z"/>
</svg>
