<?xml version="1.0" encoding="UTF-8" standalone="no"?>
<!-- Generator: Adobe Illustrator 16.0.1, SVG Export Plug-In . SVG Version: 6.00 Build 0)  -->

<svg
   xmlns:dc="http://purl.org/dc/elements/1.1/"
   xmlns:cc="http://creativecommons.org/ns#"
   xmlns:rdf="http://www.w3.org/1999/02/22-rdf-syntax-ns#"
   xmlns:svg="http://www.w3.org/2000/svg"
   xmlns="http://www.w3.org/2000/svg"
   xmlns:sodipodi="http://sodipodi.sourceforge.net/DTD/sodipodi-0.dtd"
   xmlns:inkscape="http://www.inkscape.org/namespaces/inkscape"
   version="1.1"
   id="Layer_1"
   x="0px"
   y="0px"
   width="1431.4131"
   height="684.59375"
   viewBox="0 0 1431.4131 684.59375"
   enable-background="new 0 0 1500 1500"
   xml:space="preserve"
   inkscape:version="0.48.4 r9939"
   sodipodi:docname="Kartoza_Logo-June_2014.svg"
   inkscape:export-filename="/home/timlinux/Sync/kartoza/LogosAndGraphics/Kartoza.png"
   inkscape:export-xdpi="300"
   inkscape:export-ydpi="300"><metadata
     id="metadata217"><rdf:RDF><cc:Work
         rdf:about=""><dc:format>image/svg+xml</dc:format><dc:type
           rdf:resource="http://purl.org/dc/dcmitype/StillImage" /><dc:title></dc:title></cc:Work></rdf:RDF></metadata><defs
     id="defs215" /><sodipodi:namedview
     pagecolor="#ffffff"
     bordercolor="#666666"
     borderopacity="1"
     objecttolerance="10"
     gridtolerance="10"
     guidetolerance="10"
     inkscape:pageopacity="0"
     inkscape:pageshadow="2"
     inkscape:window-width="1280"
     inkscape:window-height="773"
     id="namedview213"
     showgrid="false"
     inkscape:zoom="0.372"
     inkscape:cx="998.34672"
     inkscape:cy="341.9375"
     inkscape:window-x="0"
     inkscape:window-y="0"
     inkscape:window-maximized="1"
     inkscape:current-layer="Layer_1"
     fit-margin-top="0"
     fit-margin-left="0"
     fit-margin-right="0"
     fit-margin-bottom="0"
     showguides="false"
     inkscape:guide-bbox="true"><sodipodi:guide
       orientation="0,1"
       position="940.86022,298.3871"
       id="guide3804" /></sodipodi:namedview><path
     style="fill:#6f6d6b"
     inkscape:connector-curvature="0"
     id="path5"
     d="m 551.89555,567.55664 c -9.5293,0 -24.68408,-1.32031 -42.67871,-7.57031 -20.99219,-7.48633 -40.2002,-19.84277 -57.0898,-36.73047 l -195.3619,-195.45313 -39.1997,-39.10645 c -51.7139,-51.71777 -107.7353,-59.604 -136.564402,-59.69775 h -30.5943 v 140.86475 h 30.5601 c 31.147502,0.0937 77.596702,5.27148 121.192902,48.95117 l 39.4765,39.37012 191.2017,178.10648 c 41.83544,36.9677 75.54687,41.7109 100.24315,41.7109 2.90625,0 5.66113,-0.059 8.26074,-0.1103 0.11719,-0.01 0.23242,-0.01 0.34473,-0.01 h 40.70508 V 567.55664 h -30.49609 z" /><g
     id="g7"
     transform="translate(-35.239262,-407.34375)"><path
       style="fill:#4f4d4c"
       inkscape:connector-curvature="0"
       id="path9"
       d="m 617.63086,974.95117 h -30.49609 c -9.77832,0 -25.30566,-1.34473 -43.75195,-7.74023 -21.48145,-7.67383 -41.09863,-20.28613 -58.32861,-37.51367 L 289.69238,734.24365 250.49463,695.13769 C 199.60645,644.2539 144.53076,636.4956 116.22949,636.39355 H 85.646 v -6.54053 h 30.59424 c 29.31885,0.10205 86.33203,8.11572 138.87646,60.66064 l 39.19775,39.09717 195.36426,195.46143 c 16.54004,16.53906 35.33936,28.64062 55.87598,35.96387 17.55811,6.09766 32.30566,7.375 41.58008,7.375 h 30.49609 v 6.54004 z" /></g><g
     id="g11"
     transform="translate(-35.239262,-407.34375)"><path
       style="fill:#4f4d4c"
       inkscape:connector-curvature="0"
       id="path13"
       d="m 568.32031,1091.9375 c -25.27148,0 -59.74902,-4.8281 -102.4082,-42.5381 L 274.64648,871.24219 235.08886,831.7959 C 192.34228,788.95996 146.76171,783.89258 116.19531,783.79883 H 85.646 v -6.54004 h 30.56006 c 31.73535,0.0937 79.05518,5.37305 123.50732,49.9043 l 39.47217,39.37012 191.12109,178.02929 c 40.95166,36.1856 73.89648,40.835 98.01367,40.835 2.83789,0 5.53125,-0.06 8.07568,-0.1104 l 41.23486,-0.01 v 6.5401 h -40.70508 c -2.9785,0.059 -5.71825,0.1191 -8.60546,0.1191 z" /></g><path
     d="M 503.15775,3.5087891 V 23.104489 h -0.0855 c 0,21.83496 -6.59131,73.45996 -38.77783,107.473631 L 222.34274,381.25 l -39.1142,39.20801 c -48.8399,48.74609 -69.4917,101.1377 -69.5772,128.85742 v 19.69824 H 3.3125392 v -19.69824 c 0.09,-27.71973 7.7538988,-84.47168 56.4999988,-133.21777 l 39.1147,-39.20801 250.765702,-250.67188 c 20.7666,-20.7627 32.5229,-37.794921 39.3022,-56.777341 6.5869,-18.98242 8.1963,-35.36719 8.1963,-46.33594 V 3.5087891 h 105.96631 z"
     id="path17"
     inkscape:connector-curvature="0"
     style="fill:#e5a117" /><rect
     style="fill:#35a8e0"
     id="rect23"
     height="569.01367"
     width="108.3291"
     y="-1.947672e-06"
     x="3.3428073" /><g
     id="g25"
     transform="translate(-35.239262,-407.34375)"><rect
       style="fill:#4f4d4c"
       id="rect27"
       height="569.01367"
       width="6.6806598"
       y="407.34375"
       x="35.239262" /></g><g
     id="g31"
     transform="translate(-35.239262,-407.34375)"><path
       d="m 474.25391,612.60791 h 33.27637 l 79.39551,182.56006 h -45.36523 l -15.7207,-38.67188 h -70.92627 l -15.20996,38.67188 h -44.35596 l 78.90624,-182.56006 z m 15.48632,53.11475 -22.18066,56.74316 h 44.60352 l -22.42286,-56.74316 z"
       id="path33"
       inkscape:connector-curvature="0"
       style="fill:#4f4d4c" /></g><g
     id="g35"
     transform="translate(-35.239262,-407.34375)"><path
       d="m 604.60547,612.60791 h 70.6499 c 9.29102,0 18.09668,0.91113 26.43408,2.71631 8.33691,1.80566 15.64404,4.82031 21.92041,9.01855 6.27637,4.22461 11.2583,9.8877 14.9624,17.01562 3.69629,7.14502 5.54443,16.02734 5.54443,26.68945 0,12.88477 -3.33838,23.8623 -10.04932,32.88086 -6.71045,9.02686 -16.5127,14.73242 -29.40625,17.15137 l 46.42188,77.08789 h -48.22705 l -38.16064,-72.97461 h -19.85938 v 72.97461 H 604.60546 V 612.60791 z m 40.23047,75.55518 h 23.72559 c 3.60254,0 7.42578,-0.13672 11.47949,-0.38379 4.04541,-0.25488 7.68164,-1.03027 10.94336,-2.33301 3.27051,-1.27734 5.9873,-3.28711 8.15039,-6.04639 2.12891,-2.74219 3.20166,-6.62549 3.20166,-11.59912 0,-4.64111 -0.93701,-8.35449 -2.83545,-11.09668 -1.89062,-2.75879 -4.29248,-4.8457 -7.21338,-6.32715 -2.92139,-1.43945 -6.27637,-2.43555 -10.04932,-2.94678 -3.79785,-0.52783 -7.49414,-0.7749 -11.09619,-0.7749 h -26.30615 v 41.50782 z"
       id="path37"
       inkscape:connector-curvature="0"
       style="fill:#4f4d4c" /></g><path
     style="fill:#4f4d4c"
     inkscape:connector-curvature="0"
     id="path41"
     d="m 773.88281,240.86133 h -52.07617 v -35.59717 h 144.39941 v 35.59717 H 814.10449 V 387.82422 H 773.88281 V 240.86133 z" /><g
     id="g43"
     transform="translate(-35.239262,-407.34375)"><path
       d="m 908.29297,703.88379 c 0,-14.59668 2.44336,-27.83936 7.33984,-39.69385 4.90625,-11.87158 11.72754,-21.96289 20.49902,-30.30029 8.77148,-8.3291 19.16113,-14.72461 31.19434,-19.2207 12.0332,-4.47119 25.18164,-6.69385 39.45503,-6.69385 14.2647,0 27.4219,2.22266 39.4551,6.69385 12.0166,4.49609 22.4405,10.8916 31.1953,19.2207 8.7715,8.3374 15.5928,18.42871 20.5059,30.30029 4.8887,11.85449 7.3496,25.09717 7.3496,39.69385 0,14.61328 -2.4609,27.85596 -7.3496,39.71045 -4.9131,11.87158 -11.7344,21.96338 -20.5059,30.30029 -8.7548,8.35449 -19.1787,14.75 -31.1953,19.2207 -12.0332,4.4707 -25.1904,6.69336 -39.4551,6.69336 -14.27339,0 -27.42183,-2.22266 -39.45503,-6.69336 -12.0332,-4.4707 -22.42285,-10.86621 -31.19434,-19.2207 -8.77148,-8.33691 -15.59277,-18.42871 -20.49902,-30.30029 -4.89648,-11.85449 -7.33984,-25.09717 -7.33984,-39.71045 z m 41.77148,0 c 0,8.60938 1.33691,16.47852 3.99414,23.58984 2.66504,7.13623 6.48828,13.32715 11.46191,18.56445 4.98242,5.2627 10.97754,9.35059 17.92676,12.27246 6.95703,2.90332 14.74121,4.38574 23.33394,4.38574 8.6094,0 16.377,-1.48242 23.334,-4.38574 6.9668,-2.92188 12.9278,-7.00977 17.9268,-12.27246 4.9814,-5.2373 8.7969,-11.42822 11.4629,-18.56445 2.665,-7.11133 4.0107,-14.98047 4.0107,-23.58984 0,-8.40527 -1.3457,-16.24023 -4.0107,-23.45361 -2.666,-7.21338 -6.4815,-13.44678 -11.4629,-18.70166 -4.999,-5.24561 -10.96,-9.31641 -17.9268,-12.24609 -6.957,-2.9209 -14.7246,-4.39404 -23.334,-4.39404 -8.59273,0 -16.37691,1.47314 -23.33394,4.39404 -6.94922,2.92969 -12.94434,7.00049 -17.92676,12.24609 -4.97363,5.25488 -8.79688,11.48828 -11.46191,18.70166 -2.65722,7.21337 -3.99414,15.04834 -3.99414,23.45361 z"
       id="path45"
       inkscape:connector-curvature="0"
       style="fill:#4f4d4c" /></g><path
     style="fill:#4f4d4c"
     inkscape:connector-curvature="0"
     id="path49"
     d="m 1082.6347,350.70215 92.5791,-109.84082 h -89.207 v -35.59717 h 137.9443 v 35.59717 l -90.7646,109.84082 h 93.8652 v 37.12207 h -144.417 v -37.12207 z" /><g
     id="g51"
     transform="translate(-35.239262,-407.34375)"><path
       d="m 1353.9746,612.60791 h 33.2647 l 79.4131,182.56006 h -45.3829 l -15.7207,-38.67188 h -70.914 l -15.21,38.67188 h -44.3603 l 78.9101,-182.56006 z m 15.457,53.11475 -22.1669,56.74316 h 44.6074 l -22.4405,-56.74316 z"
       id="path53"
       inkscape:connector-curvature="0"
       style="fill:#4f4d4c" /></g><text
     sodipodi:linespacing="125%"
     id="text3284"
     y="455.92395"
     x="504.94189"
     style="font-size:32px;font-style:normal;font-variant:normal;font-weight:normal;font-stretch:normal;line-height:125%;letter-spacing:0px;word-spacing:0px;fill:#4f4d4c;fill-opacity:1;stroke:none;font-family:Arial;-inkscape-font-specification:Arial"
     xml:space="preserve"><tspan
       style="font-size:40px;font-weight:bold;fill:#4f4d4c;fill-opacity:1;-inkscape-font-specification:Arial Bold"
       y="455.92395"
       x="504.94189"
       id="tspan3286"
       sodipodi:role="line">OPEN SOURCE GEOSPATIAL SOLUTIONS</tspan></text>
<g
     id="g177"
     transform="translate(-35.239262,-407.34375)"><path
       style="fill:#4f4d4c"
       inkscape:connector-curvature="0"
       id="path179"
       d="m 149.00586,771.8418 -5.58203,-2.30762 V 407.34375 h 6.54004 v 354.2959 L 380.44434,531.24512 c 20.37695,-20.37109 31.90137,-36.98584 38.5332,-55.55957 6.61719,-19.06738 8.00732,-35.12891 8.00732,-45.2373 v -19.5957 h 6.54053 v 19.5957 c 0,10.61084 -1.4541,27.45605 -8.37793,47.40918 -6.98926,19.56982 -18.97168,36.90869 -40.0791,58.01172 L 149.00586,771.8418 z" /></g><path
     style="fill:#4f4d4c"
     inkscape:connector-curvature="0"
     id="path181"
     d="m 499.88773,23.019529 -0.0854,0.085 c 0,6.66797 -1.06201,66.31494 -37.86035,105.199221 l -241.91314,250.6377 -39.1103,39.2002 c -48.3355,48.24316 -70.4478,101.80957 -70.5366,131.17383 v 19.4248 c -0.01,0.0937 -0.011,0.17969 -0.011,0.27344 h 6.5508 v -19.68945 c 0.085,-28.05273 21.5947,-79.62598 68.621,-126.55859 L 224.69514,383.5147 466.67023,132.82622 C 505.07599,92.238329 506.3338,30.530319 506.34259,23.189499 l 0.085,-19.6806599 h -6.54004 V 23.019569 z" /><g
     id="g183"
     transform="translate(-35.239262,-407.34375)" /><g
     id="g185"
     transform="translate(-35.239262,-407.34375)" /><g
     id="g187"
     transform="translate(-35.239262,-407.34375)" /><g
     id="g189"
     transform="translate(-35.239262,-407.34375)" /><g
     id="g191"
     transform="translate(-35.239262,-407.34375)" /><g
     id="g193"
     transform="translate(-35.239262,-407.34375)" /><g
     id="g195"
     transform="translate(-35.239262,-407.34375)" /><g
     id="g197"
     transform="translate(-35.239262,-407.34375)" /><g
     id="g199"
     transform="translate(-35.239262,-407.34375)" /><g
     id="g201"
     transform="translate(-35.239262,-407.34375)" /><g
     id="g203"
     transform="translate(-35.239262,-407.34375)" /><g
     id="g205"
     transform="translate(-35.239262,-407.34375)" /><g
     id="g207"
     transform="translate(-35.239262,-407.34375)" /><g
     id="g209"
     transform="translate(-35.239262,-407.34375)" /><g
     id="g211"
     transform="translate(-35.239262,-407.34375)" /></svg>