<?xml version="1.0" encoding="utf-8"?>
<!-- Generator: Adobe Illustrator 16.0.0, SVG Export Plug-In . SVG Version: 6.00 Build 0)  -->
<!DOCTYPE svg PUBLIC "-//W3C//DTD SVG 1.1//EN" "http://www.w3.org/Graphics/SVG/1.1/DTD/svg11.dtd">
<svg version="1.1" id="Layer_1" xmlns="http://www.w3.org/2000/svg" xmlns:xlink="http://www.w3.org/1999/xlink" x="0px" y="0px"
	 width="680px" height="353px" viewBox="0 0 680 353" enable-background="new 0 0 680 353" xml:space="preserve">
<g>
	<g>
		<path fill="#FFFFFF" d="M239.533,138.644h12.76v70.174h-12.76V138.644z"/>
		<path fill="#FFFFFF" d="M266.458,157.58c2.362-0.674,5.435-1.316,9.215-1.924c3.779-0.608,7.966-0.912,12.558-0.912
			c4.319,0,7.931,0.593,10.835,1.772c2.901,1.182,5.214,2.835,6.936,4.962c1.722,2.126,2.937,4.693,3.646,7.696
			c0.709,3.006,1.063,6.295,1.063,9.873v29.771h-12.252v-27.848c0-2.834-0.187-5.248-0.557-7.24c-0.371-1.99-0.979-3.611-1.823-4.86
			c-0.844-1.249-1.992-2.16-3.442-2.734c-1.453-0.572-3.226-0.86-5.315-0.86c-1.555,0-3.175,0.101-4.862,0.303
			c-1.688,0.203-2.936,0.372-3.747,0.506v42.734h-12.252V157.58z"/>
		<path fill="#FFFFFF" d="M340.986,154.542c4.049,0,7.457,0.506,10.229,1.52c2.766,1.012,4.977,2.43,6.631,4.253
			s2.836,4.034,3.545,6.633c0.709,2.6,1.063,5.452,1.063,8.555v32.102c-1.891,0.404-4.744,0.895-8.557,1.469
			c-3.814,0.572-8.119,0.861-12.91,0.861c-3.174,0-6.076-0.307-8.708-0.912c-2.633-0.609-4.878-1.586-6.734-2.938
			c-1.857-1.35-3.309-3.104-4.354-5.266c-1.047-2.16-1.569-4.824-1.569-8c0-3.037,0.59-5.604,1.772-7.695
			c1.18-2.092,2.785-3.797,4.81-5.113c2.025-1.318,4.37-2.262,7.038-2.836c2.666-0.572,5.45-0.859,8.354-0.859
			c1.35,0,2.768,0.084,4.254,0.252c1.484,0.168,3.07,0.455,4.758,0.861v-2.025c0-1.418-0.168-2.768-0.506-4.051
			c-0.338-1.281-0.93-2.414-1.771-3.392c-0.846-0.979-1.959-1.738-3.342-2.278c-1.385-0.54-3.123-0.811-5.215-0.811
			c-2.835,0-5.435,0.202-7.797,0.607c-2.365,0.404-4.288,0.879-5.772,1.418l-1.519-9.924c1.552-0.54,3.813-1.08,6.784-1.62
			C334.437,154.813,337.609,154.542,340.986,154.542z M341.998,200.211c3.779,0,6.648-0.201,8.607-0.607v-13.568
			c-0.676-0.203-1.654-0.406-2.938-0.607c-1.281-0.203-2.699-0.305-4.252-0.305c-1.352,0-2.717,0.102-4.101,0.305
			c-1.384,0.201-2.633,0.572-3.745,1.113c-1.114,0.541-2.011,1.301-2.684,2.277c-0.677,0.98-1.015,2.213-1.015,3.697
			c0,2.902,0.912,4.91,2.734,6.025C336.429,199.654,338.893,200.211,341.998,200.211z"/>
		<path fill="#FFFFFF" d="M395.201,196.768c2.229,0,4.066-0.184,5.52-0.557c1.451-0.369,2.615-0.875,3.494-1.52
			c0.875-0.639,1.482-1.4,1.822-2.277c0.336-0.877,0.506-1.855,0.506-2.938c0-2.293-1.08-4.203-3.24-5.721
			c-2.162-1.518-5.873-3.156-11.139-4.91c-2.297-0.813-4.592-1.738-6.885-2.785c-2.297-1.047-4.355-2.363-6.18-3.951
			c-1.822-1.584-3.309-3.508-4.455-5.771c-1.148-2.261-1.721-5.013-1.721-8.253s0.607-6.159,1.822-8.759
			c1.215-2.599,2.938-4.81,5.164-6.633c2.229-1.822,4.928-3.223,8.102-4.202c3.174-0.979,6.75-1.469,10.734-1.469
			c4.725,0,8.809,0.507,12.252,1.519c3.443,1.014,6.279,2.127,8.506,3.342l-4.557,12.455c-1.959-1.012-4.137-1.906-6.531-2.683
			c-2.396-0.774-5.283-1.165-8.658-1.165c-3.781,0-6.498,0.524-8.15,1.569c-1.654,1.048-2.482,2.65-2.482,4.81
			c0,1.284,0.305,2.365,0.912,3.241c0.607,0.878,1.469,1.671,2.582,2.38c1.113,0.71,2.395,1.352,3.848,1.924
			c1.451,0.574,3.055,1.164,4.811,1.772c3.645,1.351,6.816,2.684,9.52,3.999c2.697,1.316,4.943,2.854,6.732,4.607
			c1.787,1.756,3.123,3.816,4,6.178c0.877,2.363,1.316,5.232,1.316,8.607c0,6.549-2.295,11.629-6.885,15.24
			c-4.592,3.611-11.512,5.418-20.76,5.418c-3.105,0-5.908-0.188-8.404-0.557c-2.498-0.373-4.709-0.828-6.633-1.367
			c-1.924-0.541-3.58-1.113-4.963-1.721c-1.383-0.609-2.549-1.182-3.492-1.723l4.455-12.557c2.092,1.148,4.674,2.178,7.746,3.088
			C386.982,196.313,390.746,196.768,395.201,196.768z"/>
		<path fill="#FFFFFF" d="M480.354,208.818c-0.781-2.438-1.619-4.943-2.52-7.512c-0.898-2.57-1.793-5.131-2.684-7.678h-27.408
			c-0.885,2.561-1.775,5.125-2.664,7.697c-0.891,2.572-1.721,5.07-2.486,7.492h-16.406c2.643-7.561,5.146-14.547,7.516-20.961
			c2.371-6.412,4.689-12.455,6.957-18.127c2.27-5.67,4.504-11.053,6.705-16.151c2.201-5.097,4.488-10.076,6.857-14.936h14.975
			c2.305,4.859,4.576,9.839,6.814,14.936c2.238,5.098,4.496,10.48,6.768,16.151c2.271,5.672,4.594,11.715,6.967,18.127
			c2.373,6.414,4.883,13.4,7.527,20.961H480.354z M461.375,154.542c-0.354,1.02-0.867,2.406-1.547,4.16s-1.451,3.781-2.318,6.08
			s-1.836,4.832-2.908,7.593c-1.07,2.766-2.16,5.664-3.266,8.697h20.066c-1.074-3.043-2.113-5.951-3.119-8.723
			s-1.963-5.309-2.869-7.609s-1.701-4.324-2.383-6.077C462.346,156.912,461.795,155.538,461.375,154.542z"/>
		<path fill="#FFFFFF" d="M504.895,208.818v-70.174h46.988v13.264h-31.189v14.685h27.746v13.265h-27.746v28.961H504.895z"/>
		<path fill="#FFFFFF" d="M561.016,208.818v-70.174h47.391v13.264h-31.594v13.773h28.049v12.961h-28.049v16.91h33.922v13.266
			H561.016z"/>
	</g>
	<g>
		<path fill="#FFFFFF" d="M255.007,240.953c-0.566,2.148-1.167,4.283-1.803,6.404c-0.636,2.119-1.308,4.254-2.015,6.402h-4.919
			c-0.51-1.188-1.063-2.6-1.658-4.24c-0.596-1.639-1.213-3.428-1.851-5.365c-0.638-1.936-1.29-3.986-1.956-6.148
			c-0.667-2.162-1.312-4.348-1.935-6.553h6.658c0.228,1.018,0.476,2.129,0.746,3.33s0.555,2.438,0.854,3.711
			c0.299,1.271,0.611,2.551,0.938,3.838s0.661,2.523,1.003,3.711c0.367-1.244,0.728-2.518,1.081-3.818
			c0.354-1.299,0.692-2.578,1.019-3.838c0.324-1.258,0.636-2.473,0.933-3.646c0.297-1.172,0.558-2.27,0.784-3.287h4.58
			c0.227,1.018,0.48,2.115,0.764,3.287c0.282,1.174,0.579,2.389,0.891,3.646c0.311,1.26,0.636,2.539,0.976,3.838
			c0.339,1.301,0.692,2.574,1.06,3.818c0.342-1.188,0.683-2.424,1.024-3.711c0.341-1.287,0.661-2.566,0.96-3.838
			c0.298-1.273,0.582-2.51,0.853-3.711s0.519-2.313,0.747-3.33h6.573c-0.624,2.205-1.27,4.391-1.936,6.553
			c-0.667,2.162-1.318,4.213-1.956,6.148c-0.639,1.938-1.262,3.727-1.871,5.365c-0.61,1.641-1.17,3.053-1.68,4.24h-4.92
			c-0.707-2.148-1.399-4.283-2.078-6.402C256.195,245.236,255.572,243.102,255.007,240.953z"/>
		<path fill="#FFFFFF" d="M289.421,240.953c-0.566,2.148-1.167,4.283-1.803,6.404c-0.636,2.119-1.308,4.254-2.015,6.402h-4.919
			c-0.51-1.188-1.063-2.6-1.658-4.24c-0.596-1.639-1.213-3.428-1.851-5.365c-0.638-1.936-1.29-3.986-1.956-6.148
			c-0.667-2.162-1.312-4.348-1.936-6.553h6.658c0.228,1.018,0.476,2.129,0.746,3.33s0.555,2.438,0.854,3.711
			c0.299,1.271,0.611,2.551,0.938,3.838s0.661,2.523,1.003,3.711c0.367-1.244,0.728-2.518,1.081-3.818
			c0.354-1.299,0.692-2.578,1.019-3.838c0.324-1.258,0.636-2.473,0.933-3.646c0.297-1.172,0.558-2.27,0.784-3.287h4.58
			c0.227,1.018,0.48,2.115,0.764,3.287c0.282,1.174,0.579,2.389,0.891,3.646c0.311,1.26,0.636,2.539,0.976,3.838
			c0.339,1.301,0.692,2.574,1.06,3.818c0.342-1.188,0.683-2.424,1.024-3.711c0.341-1.287,0.661-2.566,0.96-3.838
			c0.298-1.273,0.582-2.51,0.853-3.711s0.519-2.313,0.747-3.33h6.573c-0.624,2.205-1.27,4.391-1.936,6.553
			c-0.667,2.162-1.318,4.213-1.956,6.148c-0.639,1.938-1.262,3.727-1.871,5.365c-0.61,1.641-1.17,3.053-1.68,4.24h-4.92
			c-0.707-2.148-1.399-4.283-2.078-6.402C290.609,245.236,289.986,243.102,289.421,240.953z"/>
		<path fill="#FFFFFF" d="M323.834,240.953c-0.566,2.148-1.167,4.283-1.803,6.404c-0.636,2.119-1.308,4.254-2.015,6.402h-4.919
			c-0.51-1.188-1.063-2.6-1.658-4.24c-0.596-1.639-1.213-3.428-1.851-5.365c-0.638-1.936-1.29-3.986-1.956-6.148
			c-0.667-2.162-1.312-4.348-1.936-6.553h6.658c0.228,1.018,0.476,2.129,0.746,3.33s0.555,2.438,0.854,3.711
			c0.299,1.271,0.611,2.551,0.938,3.838s0.661,2.523,1.003,3.711c0.367-1.244,0.728-2.518,1.081-3.818
			c0.354-1.299,0.692-2.578,1.019-3.838c0.324-1.258,0.636-2.473,0.933-3.646c0.297-1.172,0.558-2.27,0.784-3.287h4.58
			c0.227,1.018,0.48,2.115,0.764,3.287c0.282,1.174,0.579,2.389,0.891,3.646c0.311,1.26,0.636,2.539,0.976,3.838
			c0.339,1.301,0.692,2.574,1.06,3.818c0.342-1.188,0.683-2.424,1.024-3.711c0.341-1.287,0.661-2.566,0.96-3.838
			c0.298-1.273,0.582-2.51,0.853-3.711s0.519-2.313,0.747-3.33h6.574c-0.625,2.205-1.27,4.391-1.936,6.553
			c-0.667,2.162-1.318,4.213-1.956,6.148c-0.639,1.938-1.262,3.727-1.871,5.365c-0.61,1.641-1.17,3.053-1.68,4.24h-4.92
			c-0.707-2.148-1.399-4.283-2.078-6.402C325.022,245.236,324.399,243.102,323.834,240.953z"/>
		<path fill="#FFFFFF" d="M348.299,250.41c0,1.271-0.402,2.24-1.209,2.904c-0.805,0.664-1.717,0.998-2.734,0.998
			s-1.93-0.334-2.736-0.998c-0.805-0.664-1.207-1.633-1.207-2.904s0.402-2.24,1.207-2.904c0.807-0.664,1.719-0.998,2.736-0.998
			s1.93,0.334,2.734,0.998C347.896,248.17,348.299,249.139,348.299,250.41z"/>
		<path fill="#FFFFFF" d="M353.646,224.371h6.615v29.389h-6.615V224.371z"/>
		<path fill="#FFFFFF" d="M386.516,253.76c-1.895-3.363-3.943-6.686-6.148-9.965s-4.553-6.375-7.039-9.287v19.252h-6.531v-29.389
			h5.385c0.934,0.934,1.965,2.078,3.096,3.436s2.283,2.807,3.457,4.348c1.172,1.541,2.338,3.137,3.498,4.791
			s2.248,3.244,3.266,4.771v-17.346h6.574v29.389H386.516z"/>
		<path fill="#FFFFFF" d="M418.377,253.76c-0.326-1.021-0.678-2.07-1.055-3.146c-0.375-1.076-0.75-2.146-1.123-3.215h-11.479
			c-0.371,1.072-0.744,2.146-1.115,3.225c-0.373,1.076-0.721,2.123-1.043,3.137h-6.869c1.105-3.166,2.154-6.092,3.146-8.777
			c0.994-2.686,1.965-5.217,2.914-7.592c0.951-2.375,1.887-4.629,2.809-6.764c0.92-2.135,1.879-4.219,2.871-6.256h6.271
			c0.965,2.037,1.916,4.121,2.854,6.256s1.883,4.389,2.834,6.764s1.924,4.906,2.918,7.592s2.045,5.611,3.152,8.777H418.377z
			 M410.43,231.029c-0.148,0.428-0.363,1.008-0.648,1.742c-0.283,0.734-0.607,1.584-0.971,2.547s-0.77,2.023-1.217,3.18
			c-0.449,1.158-0.904,2.373-1.369,3.643h8.404c-0.449-1.273-0.885-2.492-1.307-3.652c-0.422-1.162-0.822-2.225-1.201-3.188
			s-0.713-1.811-0.998-2.545C410.836,232.021,410.605,231.447,410.43,231.029z"/>
		<path fill="#FFFFFF" d="M437.857,248.713c0.934,0,1.703-0.076,2.313-0.232c0.607-0.154,1.096-0.367,1.463-0.637
			c0.367-0.268,0.621-0.586,0.764-0.953c0.141-0.367,0.211-0.777,0.211-1.23c0-0.961-0.451-1.76-1.357-2.396
			c-0.904-0.635-2.459-1.32-4.664-2.057c-0.961-0.338-1.922-0.727-2.883-1.166c-0.963-0.438-1.824-0.988-2.588-1.654
			c-0.764-0.664-1.385-1.469-1.865-2.416c-0.482-0.947-0.721-2.1-0.721-3.457s0.254-2.58,0.764-3.668
			c0.508-1.088,1.229-2.014,2.162-2.777s2.063-1.35,3.393-1.76c1.328-0.41,2.826-0.615,4.494-0.615c1.979,0,3.689,0.211,5.133,0.637
			c1.441,0.424,2.629,0.891,3.563,1.398l-1.91,5.217c-0.82-0.424-1.73-0.799-2.734-1.125c-1.004-0.324-2.213-0.486-3.625-0.486
			c-1.584,0-2.723,0.219-3.414,0.656c-0.693,0.439-1.039,1.111-1.039,2.016c0,0.537,0.127,0.988,0.381,1.355
			c0.254,0.369,0.615,0.701,1.082,0.998s1.002,0.564,1.611,0.805c0.607,0.24,1.279,0.488,2.014,0.742
			c1.527,0.566,2.855,1.125,3.986,1.676s2.07,1.195,2.82,1.93s1.307,1.598,1.676,2.586c0.367,0.99,0.551,2.191,0.551,3.605
			c0,2.742-0.961,4.869-2.883,6.383c-1.924,1.512-4.822,2.268-8.695,2.268c-1.299,0-2.473-0.078-3.52-0.232
			c-1.045-0.156-1.971-0.348-2.777-0.572c-0.805-0.227-1.498-0.467-2.078-0.721c-0.58-0.256-1.066-0.496-1.463-0.723l1.865-5.258
			c0.877,0.48,1.959,0.912,3.246,1.293C434.416,248.523,435.992,248.713,437.857,248.713z"/>
		<path fill="#FFFFFF" d="M473.91,253.76c-0.328-1.021-0.678-2.07-1.055-3.146s-0.752-2.146-1.125-3.215h-11.479
			c-0.371,1.072-0.742,2.146-1.115,3.225c-0.373,1.076-0.721,2.123-1.041,3.137h-6.871c1.107-3.166,2.156-6.092,3.148-8.777
			s1.963-5.217,2.914-7.592c0.949-2.375,1.885-4.629,2.807-6.764s1.879-4.219,2.871-6.256h6.271
			c0.965,2.037,1.918,4.121,2.855,6.256c0.936,2.135,1.881,4.389,2.832,6.764c0.953,2.375,1.926,4.906,2.92,7.592
			c0.992,2.686,2.043,5.611,3.152,8.777H473.91z M465.963,231.029c-0.148,0.428-0.365,1.008-0.648,1.742
			c-0.285,0.734-0.607,1.584-0.971,2.547s-0.77,2.023-1.219,3.18c-0.449,1.158-0.904,2.373-1.367,3.643h8.404
			c-0.451-1.273-0.885-2.492-1.307-3.652c-0.422-1.162-0.822-2.225-1.201-3.188c-0.381-0.963-0.713-1.811-1-2.545
			C466.369,232.021,466.137,231.447,465.963,231.029z"/>
		<path fill="#FFFFFF" d="M484.574,253.76v-29.389h19.676v5.557h-13.061v6.148h11.619v5.555h-11.619v12.129H484.574z"/>
		<path fill="#FFFFFF" d="M508.479,253.76v-29.389h19.848v5.557h-13.232v5.768h11.748v5.428h-11.748v7.082h14.207v5.555H508.479z"/>
		<path fill="#FFFFFF" d="M541.594,250.41c0,1.271-0.402,2.24-1.209,2.904c-0.805,0.664-1.717,0.998-2.734,0.998
			s-1.93-0.334-2.736-0.998c-0.805-0.664-1.207-1.633-1.207-2.904s0.402-2.24,1.207-2.904c0.807-0.664,1.719-0.998,2.736-0.998
			s1.93,0.334,2.734,0.998C541.191,248.17,541.594,249.139,541.594,250.41z"/>
		<path fill="#FFFFFF" d="M566.377,242.564c0,1.754-0.254,3.357-0.764,4.813c-0.51,1.457-1.244,2.701-2.205,3.732
			c-0.961,1.033-2.113,1.832-3.457,2.396c-1.342,0.564-2.848,0.848-4.516,0.848c-1.641,0-3.131-0.283-4.475-0.848
			c-1.342-0.564-2.494-1.363-3.455-2.396c-0.963-1.031-1.711-2.275-2.248-3.732c-0.537-1.455-0.807-3.059-0.807-4.813
			c0-1.752,0.275-3.35,0.828-4.791c0.551-1.443,1.314-2.672,2.289-3.689c0.977-1.02,2.135-1.811,3.479-2.375
			c1.342-0.566,2.805-0.85,4.389-0.85c1.611,0,3.088,0.283,4.432,0.85c1.342,0.564,2.494,1.355,3.455,2.375
			c0.961,1.018,1.711,2.246,2.248,3.689C566.107,239.215,566.377,240.813,566.377,242.564z M559.93,242.564
			c0-1.951-0.389-3.484-1.166-4.602c-0.777-1.115-1.887-1.674-3.328-1.674s-2.559,0.559-3.35,1.674
			c-0.793,1.117-1.188,2.65-1.188,4.602s0.395,3.498,1.188,4.645c0.791,1.145,1.908,1.717,3.35,1.717s2.551-0.572,3.328-1.717
			C559.541,246.063,559.93,244.516,559.93,242.564z"/>
		<path fill="#FFFFFF" d="M584.26,237.051c-0.566-0.141-1.23-0.289-1.992-0.445c-0.764-0.154-1.584-0.232-2.461-0.232
			c-0.396,0-0.869,0.035-1.42,0.105c-0.551,0.072-0.969,0.148-1.252,0.234v17.047h-6.318v-21.119
			c1.131-0.395,2.467-0.77,4.008-1.123s3.258-0.529,5.152-0.529c0.34,0,0.748,0.02,1.23,0.063c0.48,0.043,0.961,0.1,1.441,0.17
			s0.961,0.156,1.441,0.254c0.48,0.1,0.891,0.221,1.23,0.361L584.26,237.051z"/>
		<path fill="#FFFFFF" d="M607.461,250.961c0,3.648-0.926,6.354-2.777,8.121s-4.715,2.65-8.588,2.65
			c-1.357,0-2.713-0.121-4.07-0.359c-1.357-0.24-2.615-0.559-3.775-0.955l1.104-5.301c0.988,0.396,2.027,0.707,3.117,0.934
			c1.088,0.225,2.324,0.338,3.711,0.338c1.809,0,3.088-0.395,3.838-1.188c0.748-0.791,1.123-1.809,1.123-3.053v-0.805
			c-0.678,0.311-1.379,0.543-2.1,0.699s-1.506,0.232-2.354,0.232c-3.082,0-5.443-0.912-7.082-2.734
			c-1.641-1.824-2.459-4.375-2.459-7.654c0-1.641,0.254-3.131,0.764-4.475c0.508-1.342,1.25-2.494,2.227-3.457
			c0.975-0.961,2.168-1.703,3.582-2.227c1.414-0.521,3.012-0.783,4.793-0.783c0.764,0,1.547,0.035,2.354,0.105
			c0.805,0.07,1.604,0.164,2.396,0.275c0.791,0.113,1.547,0.248,2.268,0.402c0.721,0.156,1.363,0.318,1.93,0.488V250.961z
			 M593.594,241.887c0,3.533,1.428,5.301,4.283,5.301c0.65,0,1.258-0.086,1.824-0.256c0.564-0.168,1.045-0.365,1.441-0.592v-10.094
			c-0.311-0.057-0.678-0.105-1.104-0.148c-0.424-0.043-0.918-0.064-1.482-0.064c-1.67,0-2.914,0.553-3.732,1.654
			C594.004,238.791,593.594,240.189,593.594,241.887z"/>
	</g>
	<g>
		<path fill="#FCB040" d="M206.418,167.61c-4.867-8.113-67.023-96.818-67.023-96.818s-57.928,88.703-62.797,96.818
			c-5.25,8.75-5.641,19.431-1.512,26.056c3.686,5.914,16.398,16.512,18.607,20.656c3.514,6.594-10.514,21.125-2.85,38.125
			c4.371,9.695,13.578,14.125,19.744,14.043c16.164-0.215,22.244-0.074,22.244-0.074s0.181,8.327-0.125,11.167
			c-0.438,4.063-2.125,6.417-2.125,6.417h9.914h9.086c0,0-2.25-2.042-2.625-6.042c-0.24-2.563-0.125-11.458-0.125-11.458
			s7.563,0.091,23.727,0.306c6.164,0.082,15.777-4.506,20.145-14.201c7.664-17-5.371-32.287-2.727-38.203
			c1.917-4.287,16.793-16.848,19.223-20.695C210.873,187.889,211.668,176.361,206.418,167.61z"/>
		<path fill="#F15A2B" d="M133,247.416c0,2.75-1.084,6.158-4.839,6.156c-3.239,0-12.746-0.006-18.079-0.08
			c-5.333-0.076-8.955-6.764-8.874-15.67c0.082-8.906,6.915-16.545,4.134-26.281c-2.5-8.75-14.062-17.27-16.941-21.787
			c-2.844-4.463-2.934-10.838-1.274-14.334c2.482-5.23,42.273-65.988,43.996-68.587s1.877-0.416,1.877,4.834
			S133,247.416,133,247.416z"/>
		<path fill="#F15A2B" d="M146,247.416c0,2,1.041,5.75,4.176,5.912c3.234,0.166,14.994,0.238,20.327,0.164
			c5.333-0.076,9.385-6.764,9.304-15.67c-0.082-8.906-7.554-15.795-5.033-25.6c2.521-9.807,15.149-18.039,18.164-22.469
			c3.122-4.588,4.333-9.387,1.327-14.334c-3.004-4.949-44.748-65.986-46.47-68.585S146,106.417,146,111.667S146,247.416,146,247.416
			z"/>
	</g>
</g>
</svg>
